<?xml version="1.0" encoding="UTF-8"?>
<svg id="Layer_2" data-name="Layer 2" xmlns="http://www.w3.org/2000/svg" viewBox="0 0 25.31 40.57">
  <defs>
    <style>
      .cls-1 {
        fill: #010101;
      }

      .cls-2 {
        fill: #fff;
      }
    </style>
  </defs>
  <g id="perforation">
    <g>
      <g>
        <path class="cls-1" d="M6.87,30.63c0-.12.07-.19.19-.19h.51v-2.32l-.49.2c-.11.04-.2.02-.25-.09l-.04-.1c-.05-.12,0-.2.1-.24l.65-.26c.09-.04.17-.07.28-.07h.12c.12,0,.19.08.19.19v2.69h.39c.12,0,.19.08.19.19v.08c0,.12-.08.19-.19.19h-1.45c-.12,0-.19-.08-.19-.19v-.08Z"/>
        <path class="cls-1" d="M9.12,28.84c0-.84.42-1.35,1.16-1.35s1.17.54,1.17,1.35v.76c0,.84-.42,1.36-1.17,1.36s-1.16-.53-1.16-1.36v-.76ZM10.88,29.53v-.62c0-.55-.14-.95-.6-.95s-.6.4-.6.95v.62c0,.55.13.96.6.96s.6-.41.6-.96Z"/>
        <path class="cls-1" d="M11.97,28.84c0-.84.42-1.35,1.16-1.35s1.17.54,1.17,1.35v.76c0,.84-.42,1.36-1.17,1.36s-1.16-.53-1.16-1.36v-.76ZM13.73,29.53v-.62c0-.55-.14-.95-.6-.95s-.6.4-.6.95v.62c0,.55.13.96.6.96s.6-.41.6-.96Z"/>
        <path class="cls-1" d="M14.87,28.52v-.28c0-.39.27-.75.74-.75s.74.36.74.75v.28c0,.4-.28.76-.74.76s-.74-.36-.74-.76ZM15.95,28.5v-.23c0-.24-.11-.42-.34-.42s-.34.18-.34.42v.23c0,.24.12.42.35.42s.34-.19.34-.42ZM17.08,27.69c.03-.09.1-.14.18-.14h.13c.09,0,.12.07.08.15l-1.21,3.06c-.03.08-.09.13-.18.13h-.12c-.09,0-.12-.07-.09-.15l1.21-3.06ZM16.96,29.93c0-.39.27-.75.74-.75s.74.36.74.75v.28c0,.39-.28.75-.74.75s-.74-.36-.74-.75v-.28ZM17.71,30.6c.23,0,.34-.18.34-.42v-.22c0-.24-.11-.42-.34-.42s-.34.18-.34.42v.22c0,.24.12.42.35.42Z"/>
        <path class="cls-1" d="M3.63,33.53c0-.8.47-1.24,1.23-1.24.35,0,.6.05.81.11.09.02.13.1.11.19l-.03.16c-.02.1-.11.13-.2.11-.14-.03-.35-.08-.61-.08-.49,0-.71.26-.71.81v.89c0,.55.22.81.71.81.31,0,.51-.05.63-.08.1-.02.16.02.18.11l.03.16c.02.08-.02.16-.11.19-.13.03-.42.1-.81.1-.76,0-1.23-.44-1.23-1.24v-.99Z"/>
        <path class="cls-1" d="M6.46,32.54c0-.12.08-.19.19-.19h.19c.12,0,.19.08.19.19v1.2h1.29v-1.2c0-.12.08-.19.19-.19h.19c.12,0,.19.08.19.19v2.97c0,.12-.08.19-.19.19h-.19c-.12,0-.19-.08-.19-.19v-1.29h-1.29v1.29c0,.12-.07.19-.19.19h-.19c-.12,0-.19-.08-.19-.19v-2.97Z"/>
        <path class="cls-1" d="M9.7,32.54c0-.12.08-.19.19-.19h.19c.12,0,.19.08.19.19v2.97c0,.12-.07.19-.19.19h-.19c-.12,0-.19-.08-.19-.19v-2.97Z"/>
        <path class="cls-1" d="M10.95,33.53c0-.8.47-1.24,1.23-1.24.35,0,.6.05.81.11.09.02.13.1.11.19l-.03.16c-.02.1-.11.13-.2.11-.14-.03-.35-.08-.61-.08-.49,0-.71.26-.71.81v.89c0,.55.22.81.71.81.31,0,.51-.05.63-.08.1-.02.16.02.18.11l.03.16c.02.08-.02.16-.11.19-.13.03-.42.1-.81.1-.76,0-1.23-.44-1.23-1.24v-.99Z"/>
        <path class="cls-1" d="M13.78,32.54c0-.12.08-.19.19-.19h.19c.12,0,.19.08.19.19v1.21l.35-.02.56-1.23c.05-.11.13-.15.24-.15h.24c.12,0,.17.1.12.22l-.59,1.21c.2.08.31.24.39.46l.42,1.25c.04.12-.03.21-.14.21h-.2c-.12,0-.21-.07-.25-.18l-.38-1.13c-.04-.11-.11-.2-.26-.19l-.49.03v1.27c0,.12-.07.19-.19.19h-.19c-.12,0-.19-.08-.19-.19v-2.97Z"/>
        <path class="cls-1" d="M16.58,33.24c0-.54.34-.89,1.02-.89h.72c.12,0,.19.08.19.19v.1c0,.12-.08.19-.19.19h-.71c-.35,0-.45.16-.45.45v.46h1.02c.12,0,.19.08.19.19v.1c0,.12-.08.19-.19.19h-1.02v.55c0,.29.11.44.45.44h.73c.12,0,.19.08.19.19v.1c0,.12-.08.19-.19.19h-.73c-.68,0-1.02-.36-1.02-.89v-1.57Z"/>
        <path class="cls-1" d="M19.17,32.54c0-.12.08-.19.19-.19h.16c.12,0,.2.06.27.18l1.23,2.14c-.02-.23-.03-.46-.03-.63v-1.49c0-.12.07-.19.19-.19h.19c.12,0,.19.08.19.19v2.97c0,.12-.07.19-.19.19h-.16c-.12,0-.21-.07-.27-.18l-1.22-2.13c.02.23.03.46.03.63v1.49c0,.12-.08.19-.19.19h-.18c-.12,0-.19-.08-.19-.19v-2.97Z"/>
        <path class="cls-1" d="M4.87,37.5c0-.12.09-.22.2-.26.15-.05.47-.15.8-.15.68,0,1.09.43,1.09.95,0,.3-.13.53-.37.68.36.14.55.43.55.79,0,.54-.42.99-1.18.99h-.88c-.12,0-.19-.08-.19-.19v-2.81ZM5.85,38.53c.35,0,.51-.23.51-.49s-.15-.47-.5-.47c-.15,0-.28.02-.42.07v.89h.41ZM5.93,40.02c.4,0,.6-.23.6-.51s-.16-.52-.6-.52h-.48v1.03h.48Z"/>
        <path class="cls-1" d="M7.72,37.47c0-.12.08-.22.2-.24.17-.05.52-.14.86-.14.73,0,1.12.52,1.12,1.09,0,.32-.18.8-.68.98l.54,1.12c.05.12-.01.22-.13.22h-.24c-.12,0-.19-.06-.24-.17l-.5-1.09h-.36v1.07c0,.12-.07.19-.19.19h-.19c-.12,0-.19-.08-.19-.19v-2.84ZM8.73,38.78c.38,0,.57-.26.57-.6,0-.32-.14-.61-.52-.61-.16,0-.33.02-.49.07v1.13h.44Z"/>
        <path class="cls-1" d="M10.41,38.04c0-.54.34-.89,1.02-.89h.72c.12,0,.19.08.19.19v.1c0,.12-.08.19-.19.19h-.71c-.35,0-.45.16-.45.45v.46h1.02c.12,0,.19.08.19.19v.1c0,.12-.08.19-.19.19h-1.02v.55c0,.29.11.44.45.44h.73c.12,0,.19.08.19.19v.1c0,.12-.08.19-.19.19h-.73c-.68,0-1.02-.36-1.02-.89v-1.57Z"/>
        <path class="cls-1" d="M13.51,37.66c.08-.32.31-.57.68-.57s.59.26.67.57l.69,2.64c.03.11-.03.21-.15.21h-.19c-.12,0-.2-.08-.23-.19l-.18-.71h-1.23l-.18.71c-.03.13-.11.19-.22.19h-.2c-.12,0-.18-.1-.15-.21l.69-2.63ZM14.69,39.13l-.35-1.39c-.02-.1-.08-.15-.15-.15s-.12.05-.15.15l-.35,1.39h1Z"/>
        <path class="cls-1" d="M16.04,40.09c.03-.12.12-.16.23-.12.12.03.38.12.67.12.38,0,.55-.2.55-.48,0-.71-1.45-.48-1.45-1.59,0-.58.47-.92,1.11-.92.29,0,.51.07.64.11.11.04.17.12.13.24l-.03.1c-.04.11-.13.15-.24.12-.12-.04-.29-.08-.5-.08-.34,0-.51.17-.51.44,0,.62,1.45.48,1.45,1.59,0,.58-.46.96-1.15.96-.32,0-.59-.07-.78-.13-.12-.03-.17-.11-.14-.24l.02-.11Z"/>
        <path class="cls-1" d="M19.28,37.64h-.63c-.12,0-.19-.08-.19-.19v-.1c0-.12.08-.19.19-.19h1.84c.12,0,.19.08.19.19v.1c0,.12-.07.19-.19.19h-.64v2.67c0,.12-.07.19-.19.19h-.19c-.12,0-.19-.08-.19-.19v-2.67Z"/>
      </g>
      <g>
        <path class="cls-1" d="M25.31,25.31H0V0h25.31v25.31ZM.84,24.47h23.63V.84H.84v23.63Z"/>
        <path class="cls-1" d="M14.44,7.03l-.4-1.66c-.49-2.03-2.49-3.32-4.47-2.88-1.8.4-3.32,1.68-4.39,3.69-1.99,3.75-2.02,9.1-.91,11.91.26.66.83,1.12,1.53,1.24.11.02.22.03.33.03.58,0,1.13-.25,1.52-.71l1.29-1.53c.02-.24.08-.48.18-.7-.04-.26-.06-.53,0-.8l-2.1,2.49c-.26.31-.66.46-1.07.39-.4-.07-.74-.33-.89-.72-1.04-2.65-.94-7.79.87-11.21.96-1.82,2.25-2.92,3.83-3.27,1.53-.34,3.09.67,3.47,2.26l.4,1.67s0,.02,0,.02l.17.57c.22-.14.49-.24.79-.28l-.16-.53Z"/>
        <path class="cls-1" d="M10.23,22.93c-.58,0-.98-.23-1.23-.44-.55-.48-.85-1.35-.8-2.33.22-3.99,1.77-11.86,6.02-13.05h0c.12-.03.33-.09.74-.21l1.79-.62c1.09-.38,2.33-.27,3.4.29,1.01.53,1.73,1.39,2.02,2.42.42,1.5-.06,3.52-1.46,6.18-2.11,4.01-5.84,6.89-9.99,7.7h0c-.18.03-.34.05-.49.05ZM14.45,7.92s0,0,0,0c-2.05.57-3.33,3.13-4.03,5.17-.86,2.49-1.27,5.3-1.38,7.11-.04.71.16,1.34.51,1.65.25.22.59.28,1,.2h0c3.9-.77,7.42-3.49,9.41-7.27,1.3-2.46,1.75-4.28,1.39-5.56-.23-.81-.79-1.48-1.6-1.91-.87-.45-1.86-.54-2.74-.24l-1.8.62s-.02,0-.02,0c0,0-.71.2-.75.21Z"/>
        <g>
          <path class="cls-2" d="M6.03,16.45c-.43-1.7-.5-3.45-.2-5.15"/>
          <path class="cls-1" d="M6.03,16.87c-.19,0-.36-.13-.41-.32-.45-1.75-.52-3.55-.2-5.33.04-.23.26-.38.49-.34.23.04.38.26.34.49-.29,1.67-.23,3.34.19,4.98.06.22-.08.45-.3.51-.03,0-.07.01-.1.01Z"/>
        </g>
        <path class="cls-1" d="M19.67,11.71s-.08,0-.12-.02c-.22-.07-.35-.3-.28-.53.35-1.12-.28-2.31-1.4-2.66-.22-.07-.35-.3-.28-.53.07-.22.3-.35.53-.28.76.23,1.38.75,1.75,1.45.37.7.44,1.5.21,2.26-.06.18-.22.3-.4.3Z"/>
        <path class="cls-1" d="M10.91,18.95c-.23,0-.42-.18-.42-.41,0-.17-.05-4.22,2.47-7.99.13-.19.39-.24.58-.12.19.13.24.39.12.58-2.37,3.54-2.33,7.47-2.33,7.51,0,.23-.18.42-.41.43h0Z"/>
      </g>
    </g>
  </g>
</svg>