<?xml version="1.0" encoding="UTF-8"?>
<svg id="Layer_2" data-name="Layer 2" xmlns="http://www.w3.org/2000/svg" viewBox="0 0 25.79 40.57">
  <defs>
    <style>
      .cls-1 {
        fill: #010101;
      }
    </style>
  </defs>
  <g id="perforation">
    <g>
      <g>
        <path class="cls-1" d="M25.51,25.31H.2V0h25.31v25.31ZM1.04,24.47h23.63V.84H1.04v23.63Z"/>
        <g>
          <path class="cls-1" d="M12.86,18.82c-3.2,0-6.36-.48-9.39-1.43-.22-.07-.34-.31-.28-.53.07-.22.3-.34.53-.28,2.95.92,6.02,1.39,9.13,1.39s6.19-.47,9.13-1.39c.22-.07.46.05.53.28.07.22-.05.46-.28.53-3.03.95-6.19,1.43-9.39,1.43Z"/>
          <path class="cls-1" d="M22.12,21.05H3.6c-.23,0-.42-.19-.42-.42s.19-.42.42-.42h18.52c.23,0,.42.19.42.42s-.19.42-.42.42Z"/>
          <path class="cls-1" d="M22.12,21.05H3.6c-.23,0-.42-.19-.42-.42s.19-.42.42-.42h18.52c.23,0,.42.19.42.42s-.19.42-.42.42Z"/>
          <path class="cls-1" d="M12.86,18.82c-3.2,0-6.36-.48-9.39-1.43-.22-.07-.34-.31-.28-.53.07-.22.3-.34.53-.28,2.95.92,6.02,1.39,9.13,1.39s6.19-.47,9.13-1.39c.22-.07.46.05.53.28.07.22-.05.46-.28.53-3.03.95-6.19,1.43-9.39,1.43Z"/>
          <path class="cls-1" d="M12.86,16.45c-3.4,0-6.68-.99-9.49-2.87-.19-.13-.25-.39-.12-.58s.39-.25.58-.12c2.68,1.78,5.8,2.73,9.03,2.73s6.35-.94,9.03-2.73c.19-.13.45-.08.58.12.13.19.08.45-.12.58-2.82,1.88-6.1,2.87-9.49,2.87Z"/>
          <path class="cls-1" d="M12.86,16.45c-3.4,0-6.68-.99-9.49-2.87-.19-.13-.25-.39-.12-.58s.39-.25.58-.12c2.68,1.78,5.8,2.73,9.03,2.73s6.35-.94,9.03-2.73c.19-.13.45-.08.58.12.13.19.08.45-.12.58-2.82,1.88-6.1,2.87-9.49,2.87Z"/>
        </g>
        <g>
          <path class="cls-1" d="M6.05,5.98c0-.2.13-.33.33-.33h.33c.2,0,.32.13.32.33v2.08h2.24v-2.08c0-.2.13-.33.33-.33h.33c.2,0,.33.13.33.33v5.15c0,.2-.13.33-.33.33h-.33c-.2,0-.33-.13-.33-.33v-2.24h-2.24v2.24c0,.2-.12.33-.32.33h-.33c-.2,0-.33-.13-.33-.33v-5.15Z"/>
          <path class="cls-1" d="M11.66,5.98c0-.2.13-.33.33-.33h1.32c1.32,0,2.04.87,2.04,1.87s-.72,1.86-2.04,1.86h-.66v1.74c0,.2-.12.33-.32.33h-.33c-.2,0-.33-.13-.33-.33v-5.15ZM13.27,8.55c.72,0,1.03-.51,1.03-1.03s-.32-1.03-1.03-1.03h-.62v2.06h.62Z"/>
          <path class="cls-1" d="M16.35,5.98c0-.2.13-.33.33-.33h1.32c1.32,0,2.04.87,2.04,1.87s-.72,1.86-2.04,1.86h-.66v1.74c0,.2-.12.33-.32.33h-.33c-.2,0-.33-.13-.33-.33v-5.15ZM17.97,8.55c.72,0,1.03-.51,1.03-1.03s-.32-1.03-1.03-1.03h-.62v2.06h.62Z"/>
        </g>
      </g>
      <g>
        <path class="cls-1" d="M7.82,27.74c0-.12.08-.19.19-.19h.19c.12,0,.19.08.19.19v1.2h1.29v-1.2c0-.12.08-.19.19-.19h.19c.12,0,.19.08.19.19v2.97c0,.12-.08.19-.19.19h-.19c-.12,0-.19-.08-.19-.19v-1.29h-1.29v1.29c0,.12-.07.19-.19.19h-.19c-.12,0-.19-.08-.19-.19v-2.97Z"/>
        <path class="cls-1" d="M11.05,27.74c0-.12.08-.19.19-.19h.19c.12,0,.19.08.19.19v2.97c0,.12-.07.19-.19.19h-.19c-.12,0-.19-.08-.19-.19v-2.97Z"/>
        <path class="cls-1" d="M12.31,28.73c0-.8.47-1.24,1.23-1.24.34,0,.58.05.77.09.13.04.18.11.15.24l-.02.1c-.02.11-.12.16-.24.13-.15-.03-.32-.07-.59-.07-.49,0-.71.26-.71.81v.89c0,.55.22.81.71.81.23,0,.39-.04.58-.08v-.95c0-.12.06-.2.18-.21h.21c.12-.02.17.05.17.16v1.16c0,.12-.09.22-.2.24-.23.06-.58.15-1.01.15-.76,0-1.23-.44-1.23-1.24v-.99Z"/>
        <path class="cls-1" d="M15.46,27.74c0-.12.08-.19.19-.19h.19c.12,0,.19.08.19.19v1.2h1.29v-1.2c0-.12.08-.19.19-.19h.19c.12,0,.19.08.19.19v2.97c0,.12-.08.19-.19.19h-.19c-.12,0-.19-.08-.19-.19v-1.29h-1.29v1.29c0,.12-.07.19-.19.19h-.19c-.12,0-.19-.08-.19-.19v-2.97Z"/>
        <path class="cls-1" d="M2.52,32.54c0-.12.08-.19.19-.19h.76c.76,0,1.18.5,1.18,1.08s-.42,1.08-1.18,1.08h-.38v1c0,.12-.07.19-.19.19h-.19c-.12,0-.19-.08-.19-.19v-2.97ZM3.45,34.03c.41,0,.6-.29.6-.6s-.18-.6-.6-.6h-.36v1.19h.36Z"/>
        <path class="cls-1" d="M5.22,32.67c0-.12.08-.22.2-.24.17-.05.52-.14.86-.14.73,0,1.12.52,1.12,1.09,0,.32-.18.8-.68.98l.54,1.12c.05.12-.01.22-.13.22h-.24c-.12,0-.19-.06-.24-.17l-.5-1.09h-.36v1.07c0,.12-.07.19-.19.19h-.19c-.12,0-.19-.08-.19-.19v-2.84ZM6.23,33.98c.38,0,.57-.26.57-.6,0-.32-.14-.61-.52-.61-.16,0-.33.02-.49.07v1.13h.44Z"/>
        <path class="cls-1" d="M7.92,33.24c0-.54.34-.89,1.02-.89h.72c.12,0,.19.08.19.19v.1c0,.12-.08.19-.19.19h-.71c-.35,0-.45.16-.45.45v.46h1.02c.12,0,.19.08.19.19v.1c0,.12-.08.19-.19.19h-1.02v.55c0,.29.11.44.45.44h.73c.12,0,.19.08.19.19v.1c0,.12-.08.19-.19.19h-.73c-.68,0-1.02-.36-1.02-.89v-1.57Z"/>
        <path class="cls-1" d="M10.37,35.29c.03-.12.12-.16.23-.12.12.03.38.12.67.12.38,0,.55-.2.55-.48,0-.71-1.45-.48-1.45-1.59,0-.58.47-.92,1.11-.92.29,0,.51.07.64.11.11.04.17.12.13.24l-.03.1c-.04.11-.13.15-.24.12-.12-.04-.29-.08-.5-.08-.34,0-.51.17-.51.44,0,.62,1.45.48,1.45,1.59,0,.58-.46.96-1.15.96-.32,0-.59-.07-.78-.13-.12-.03-.17-.11-.14-.24l.02-.11Z"/>
        <path class="cls-1" d="M12.89,35.29c.03-.12.12-.16.23-.12.12.03.38.12.67.12.38,0,.55-.2.55-.48,0-.71-1.45-.48-1.45-1.59,0-.58.47-.92,1.11-.92.29,0,.51.07.64.11.11.04.17.12.13.24l-.03.1c-.04.11-.13.15-.24.12-.12-.04-.29-.08-.5-.08-.34,0-.51.17-.51.44,0,.62,1.45.48,1.45,1.59,0,.58-.46.96-1.15.96-.32,0-.59-.07-.78-.13-.12-.03-.17-.11-.14-.24l.02-.11Z"/>
        <path class="cls-1" d="M15.47,32.54c0-.12.08-.19.19-.19h.19c.12,0,.19.08.19.19v1.99c0,.36.19.74.69.74s.68-.38.68-.74v-1.99c0-.12.08-.19.19-.19h.19c.12,0,.19.08.19.19v1.91c0,.82-.45,1.31-1.26,1.31s-1.26-.49-1.26-1.31v-1.91Z"/>
        <path class="cls-1" d="M18.71,32.67c0-.12.08-.22.2-.24.17-.05.52-.14.86-.14.73,0,1.12.52,1.12,1.09,0,.32-.18.8-.68.98l.54,1.12c.05.12-.01.22-.13.22h-.24c-.12,0-.19-.06-.24-.17l-.5-1.09h-.36v1.07c0,.12-.07.19-.19.19h-.19c-.12,0-.19-.08-.19-.19v-2.84ZM19.72,33.98c.38,0,.57-.26.57-.6,0-.32-.14-.61-.52-.61-.16,0-.33.02-.49.07v1.13h.44Z"/>
        <path class="cls-1" d="M21.41,33.24c0-.54.34-.89,1.02-.89h.72c.12,0,.19.08.19.19v.1c0,.12-.08.19-.19.19h-.71c-.35,0-.45.16-.45.45v.46h1.02c.12,0,.19.08.19.19v.1c0,.12-.08.19-.19.19h-1.02v.55c0,.29.11.44.45.44h.73c.12,0,.19.08.19.19v.1c0,.12-.08.19-.19.19h-.73c-.68,0-1.02-.36-1.02-.89v-1.57Z"/>
        <path class="cls-1" d="M0,37.34c0-.12.08-.19.19-.19h.76c.76,0,1.18.5,1.18,1.08s-.42,1.08-1.18,1.08h-.38v1c0,.12-.07.19-.19.19h-.19c-.12,0-.19-.08-.19-.19v-2.97ZM.93,38.83c.41,0,.6-.29.6-.6s-.18-.6-.6-.6h-.36v1.19h.36Z"/>
        <path class="cls-1" d="M2.71,37.47c0-.12.08-.22.2-.24.17-.05.52-.14.86-.14.73,0,1.12.52,1.12,1.09,0,.32-.18.8-.68.98l.54,1.12c.05.12-.01.22-.13.22h-.24c-.12,0-.19-.06-.24-.17l-.5-1.09h-.36v1.07c0,.12-.07.19-.19.19h-.19c-.12,0-.19-.08-.19-.19v-2.84ZM3.72,38.78c.38,0,.57-.26.57-.6,0-.32-.14-.61-.52-.61-.16,0-.33.02-.49.07v1.13h.44Z"/>
        <path class="cls-1" d="M5.37,38.5c0-.82.48-1.41,1.32-1.41s1.32.59,1.32,1.41v.66c0,.83-.48,1.41-1.32,1.41s-1.32-.58-1.32-1.41v-.66ZM6.69,40.08c.57,0,.73-.45.73-.97v-.56c0-.52-.16-.97-.73-.97s-.73.46-.73.97v.56c0,.52.16.97.73.97Z"/>
        <path class="cls-1" d="M8.56,38.33c0-.8.47-1.24,1.23-1.24.35,0,.6.05.81.11.09.02.13.1.11.19l-.03.16c-.02.1-.11.13-.2.11-.14-.03-.35-.08-.61-.08-.49,0-.71.26-.71.81v.89c0,.55.22.81.71.81.31,0,.51-.05.63-.08.1-.02.16.02.18.11l.03.16c.02.08-.02.16-.11.19-.13.03-.42.1-.81.1-.76,0-1.23-.44-1.23-1.24v-.99Z"/>
        <path class="cls-1" d="M11.29,38.04c0-.54.34-.89,1.02-.89h.72c.12,0,.19.08.19.19v.1c0,.12-.08.19-.19.19h-.71c-.35,0-.45.16-.45.45v.46h1.02c.12,0,.19.08.19.19v.1c0,.12-.08.19-.19.19h-1.02v.55c0,.29.11.44.45.44h.73c.12,0,.19.08.19.19v.1c0,.12-.08.19-.19.19h-.73c-.68,0-1.02-.36-1.02-.89v-1.57Z"/>
        <path class="cls-1" d="M13.75,40.09c.03-.12.12-.16.23-.12.12.03.38.12.67.12.38,0,.55-.2.55-.48,0-.71-1.45-.48-1.45-1.59,0-.58.47-.92,1.11-.92.29,0,.51.07.64.11.11.04.17.12.13.24l-.03.1c-.04.11-.13.15-.24.12-.12-.04-.29-.08-.5-.08-.34,0-.51.17-.51.44,0,.62,1.45.48,1.45,1.59,0,.58-.46.96-1.15.96-.32,0-.59-.07-.78-.13-.12-.03-.17-.11-.14-.24l.02-.11Z"/>
        <path class="cls-1" d="M16.27,40.09c.03-.12.12-.16.23-.12.12.03.38.12.67.12.38,0,.55-.2.55-.48,0-.71-1.45-.48-1.45-1.59,0-.58.47-.92,1.11-.92.29,0,.51.07.64.11.11.04.17.12.13.24l-.03.1c-.04.11-.13.15-.24.12-.12-.04-.29-.08-.5-.08-.34,0-.51.17-.51.44,0,.62,1.45.48,1.45,1.59,0,.58-.46.96-1.15.96-.32,0-.59-.07-.78-.13-.12-.03-.17-.11-.14-.24l.02-.11Z"/>
        <path class="cls-1" d="M18.92,37.34c0-.12.08-.19.19-.19h.19c.12,0,.19.08.19.19v2.97c0,.12-.07.19-.19.19h-.19c-.12,0-.19-.08-.19-.19v-2.97Z"/>
        <path class="cls-1" d="M20.3,37.34c0-.12.08-.19.19-.19h.16c.12,0,.2.06.27.18l1.23,2.14c-.02-.23-.03-.46-.03-.63v-1.49c0-.12.07-.19.19-.19h.19c.12,0,.19.08.19.19v2.97c0,.12-.07.19-.19.19h-.16c-.12,0-.21-.07-.27-.18l-1.22-2.13c.02.23.03.46.03.63v1.49c0,.12-.08.19-.19.19h-.18c-.12,0-.19-.08-.19-.19v-2.97Z"/>
        <path class="cls-1" d="M23.36,38.33c0-.8.47-1.24,1.23-1.24.34,0,.58.05.77.09.13.04.18.11.15.24l-.02.1c-.02.11-.12.16-.24.13-.15-.03-.32-.07-.59-.07-.49,0-.71.26-.71.81v.89c0,.55.22.81.71.81.23,0,.39-.04.58-.08v-.95c0-.12.06-.2.18-.21h.21c.12-.02.17.05.17.16v1.16c0,.12-.09.22-.2.24-.23.06-.58.15-1.01.15-.76,0-1.23-.44-1.23-1.24v-.99Z"/>
      </g>
    </g>
  </g>
</svg>