<?xml version="1.0" encoding="UTF-8"?>
<svg id="Layer_2" data-name="Layer 2" xmlns="http://www.w3.org/2000/svg" viewBox="0 0 25.31 40.57">
  <defs>
    <style>
      .cls-1 {
        fill: #010101;
      }

      .cls-2 {
        fill: #fff;
      }
    </style>
  </defs>
  <g id="perforation">
    <g>
      <g>
        <path class="cls-1" d="M9.87,27.74c0-.12.08-.19.19-.19h.16c.12,0,.2.06.27.18l1.23,2.14c-.02-.23-.03-.46-.03-.63v-1.49c0-.12.07-.19.19-.19h.19c.12,0,.19.08.19.19v2.97c0,.12-.07.19-.19.19h-.16c-.12,0-.21-.07-.27-.18l-1.22-2.13c.02.23.03.46.03.63v1.49c0,.12-.08.19-.19.19h-.18c-.12,0-.19-.08-.19-.19v-2.97Z"/>
        <path class="cls-1" d="M12.93,28.9c0-.82.48-1.41,1.32-1.41s1.32.59,1.32,1.41v.66c0,.83-.48,1.41-1.32,1.41s-1.32-.58-1.32-1.41v-.66ZM14.25,30.48c.57,0,.73-.45.73-.97v-.56c0-.52-.16-.97-.73-.97s-.73.46-.73.97v.56c0,.52.16.97.73.97Z"/>
        <path class="cls-1" d="M6.02,32.86c.08-.32.31-.57.68-.57s.59.26.67.57l.69,2.64c.03.11-.03.21-.15.21h-.19c-.12,0-.2-.08-.23-.19l-.18-.71h-1.23l-.18.71c-.03.12-.11.19-.22.19h-.2c-.12,0-.18-.1-.15-.21l.69-2.63ZM7.2,34.32l-.35-1.39c-.02-.1-.08-.15-.15-.15s-.12.05-.15.15l-.35,1.39h1Z"/>
        <path class="cls-1" d="M8.68,32.54c0-.12.08-.19.19-.19h1.02c.85,0,1.25.39,1.25,1.23v.9c0,.84-.4,1.22-1.25,1.22h-1.02c-.12,0-.19-.08-.19-.19v-2.97ZM9.88,35.22c.59,0,.68-.31.68-.79v-.79c0-.48-.09-.8-.68-.8h-.63v2.38h.63Z"/>
        <path class="cls-1" d="M11.82,32.54c0-.12.08-.19.19-.19h1.02c.85,0,1.25.39,1.25,1.23v.9c0,.84-.4,1.22-1.25,1.22h-1.02c-.12,0-.19-.08-.19-.19v-2.97ZM13.02,35.22c.59,0,.68-.31.68-.79v-.79c0-.48-.09-.8-.68-.8h-.63v2.38h.63Z"/>
        <path class="cls-1" d="M14.87,33.24c0-.54.34-.89,1.02-.89h.72c.12,0,.19.08.19.19v.1c0,.12-.08.19-.19.19h-.71c-.35,0-.45.16-.45.45v.46h1.02c.12,0,.19.08.19.19v.1c0,.12-.08.19-.19.19h-1.02v.55c0,.29.11.44.45.44h.73c.12,0,.19.08.19.19v.1c0,.12-.08.19-.19.19h-.73c-.68,0-1.02-.36-1.02-.89v-1.57Z"/>
        <path class="cls-1" d="M17.46,32.54c0-.12.08-.19.19-.19h1.02c.85,0,1.25.39,1.25,1.23v.9c0,.84-.4,1.22-1.25,1.22h-1.02c-.12,0-.19-.08-.19-.19v-2.97ZM18.66,35.22c.59,0,.68-.31.68-.79v-.79c0-.48-.09-.8-.68-.8h-.63v2.38h.63Z"/>
        <path class="cls-1" d="M5.58,40.09c.03-.12.12-.16.23-.12.12.03.38.12.67.12.38,0,.55-.2.55-.48,0-.71-1.45-.48-1.45-1.59,0-.58.47-.92,1.11-.92.29,0,.51.07.64.11.11.04.17.12.13.24l-.03.1c-.04.11-.13.15-.24.12-.12-.04-.29-.08-.5-.08-.34,0-.51.17-.51.44,0,.62,1.45.48,1.45,1.59,0,.58-.46.96-1.15.96-.32,0-.59-.07-.78-.13-.12-.03-.17-.11-.14-.24l.02-.11Z"/>
        <path class="cls-1" d="M8.16,37.34c0-.12.08-.19.19-.19h.19c.12,0,.19.08.19.19v1.99c0,.36.19.74.69.74s.68-.38.68-.74v-1.99c0-.12.08-.19.19-.19h.19c.12,0,.19.08.19.19v1.91c0,.82-.45,1.31-1.26,1.31s-1.26-.48-1.26-1.31v-1.91Z"/>
        <path class="cls-1" d="M11.28,38.33c0-.8.47-1.24,1.23-1.24.34,0,.58.05.77.09.13.04.18.11.15.24l-.02.1c-.02.11-.12.16-.24.13-.15-.03-.32-.07-.59-.07-.49,0-.71.26-.71.81v.89c0,.55.22.81.71.81.23,0,.39-.04.58-.08v-.95c0-.12.06-.2.18-.21h.21c.12-.02.17.05.17.16v1.16c0,.12-.09.22-.2.24-.23.06-.58.15-1.01.15-.76,0-1.23-.44-1.23-1.24v-.99Z"/>
        <path class="cls-1" d="M14.94,37.66c.08-.32.31-.57.68-.57s.59.26.67.57l.69,2.64c.03.11-.03.21-.15.21h-.19c-.12,0-.2-.08-.23-.19l-.18-.71h-1.23l-.18.71c-.03.13-.11.19-.22.19h-.2c-.12,0-.18-.1-.15-.21l.69-2.63ZM16.12,39.13l-.35-1.39c-.02-.1-.08-.15-.15-.15s-.12.05-.15.15l-.35,1.39h1Z"/>
        <path class="cls-1" d="M17.61,37.47c0-.12.08-.22.2-.24.17-.05.52-.14.86-.14.73,0,1.12.52,1.12,1.09,0,.32-.18.8-.68.98l.54,1.12c.05.12-.01.22-.13.22h-.24c-.12,0-.19-.06-.24-.17l-.5-1.09h-.36v1.07c0,.12-.07.19-.19.19h-.19c-.12,0-.19-.08-.19-.19v-2.84ZM18.62,38.78c.38,0,.57-.26.57-.6,0-.32-.14-.61-.52-.61-.16,0-.33.02-.49.07v1.13h.44Z"/>
      </g>
      <g>
        <g>
          <path class="cls-1" d="M25.31,25.31H0V0h25.31v25.31ZM.84,24.47h23.63V.84H.84v23.63Z"/>
          <g>
            <path class="cls-1" d="M9.32,21.52s-.07,0-.11-.02l-5.35-1.7c-.12-.04-.21-.13-.24-.25l-1.5-5.54c-.03-.13,0-.27.1-.36.1-.09.24-.13.36-.08l5.35,1.7c.12.04.21.13.24.25l1.5,5.54c.03.13,0,.27-.1.36-.07.07-.16.1-.25.1ZM4.27,19.17l4.52,1.43-1.28-4.7-4.52-1.43,1.28,4.7Z"/>
            <path class="cls-1" d="M12.37,17.23l-2.88,3.19-1.28-4.7,1.38-1.53c-.2-.15-.37-.34-.49-.55l-1.56,1.73c-.08.09-.11.22-.08.34l1.5,5.54c.04.13.14.23.27.26.03,0,.06,0,.09,0,.1,0,.2-.04.27-.12l3.37-3.74c-.23-.11-.43-.26-.59-.44Z"/>
            <path class="cls-1" d="M9.11,13.64l-1.41,1.56-4.59-1.45,3.22-3.57,2.63.83c.04-.24.12-.48.23-.69l-2.87-.91c-.14-.04-.29,0-.38.1l-3.76,4.17c-.08.09-.11.22-.08.34.03.12.12.22.24.25l5.35,1.7s.07.02.11.02c.1,0,.2-.04.27-.12l1.51-1.68c-.2-.15-.37-.34-.49-.55Z"/>
          </g>
          <g>
            <path class="cls-1" d="M13.55,18.93c-.12,0-.23-.05-.31-.14l-5.07-5.62c-.1-.11-.13-.25-.09-.39l2.03-7.47c.04-.15.16-.26.31-.3.15-.04.31.01.41.13l5.07,5.62c.1.11.13.25.09.39l-2.03,7.47c-.04.15-.16.26-.31.3-.03,0-.07.01-.1.01ZM8.95,12.78l4.4,4.88,1.77-6.51-4.4-4.88-1.77,6.51Z"/>
            <path class="cls-1" d="M13.55,18.93c-.11,0-.21-.04-.29-.12-.11-.11-.15-.27-.11-.41l2.03-7.47c.04-.14.14-.25.28-.29l7.22-2.28c.15-.05.31,0,.42.1.11.11.15.27.11.41l-2.03,7.47c-.04.14-.14.25-.28.29l-7.22,2.28s-.08.02-.13.02ZM15.93,11.37l-1.77,6.51,6.27-1.98,1.77-6.51-6.27,1.98ZM20.77,16.23h0,0Z"/>
            <path class="cls-1" d="M15.59,11.46c-.12,0-.23-.05-.31-.14l-5.07-5.62c-.1-.11-.13-.25-.09-.39.04-.14.14-.25.28-.29l7.22-2.28c.16-.05.33,0,.44.12l5.07,5.62c.1.11.13.25.09.39-.04.14-.14.25-.28.29l-7.22,2.28s-.08.02-.13.02ZM11.26,5.62l4.45,4.94,6.34-2.01-4.45-4.94-6.34,2.01Z"/>
          </g>
        </g>
        <g>
          <line class="cls-2" x1="24.89" y1=".42" x2=".42" y2="24.89"/>
          <rect class="cls-1" x="-4.65" y="12.24" width="34.61" height=".84" transform="translate(-5.24 12.65) rotate(-45)"/>
        </g>
      </g>
    </g>
  </g>
</svg>