<?xml version="1.0" encoding="UTF-8"?>
<svg id="Layer_2" data-name="Layer 2" xmlns="http://www.w3.org/2000/svg" viewBox="0 0 32.67 35.77">
  <defs>
    <style>
      .cls-1 {
        fill: #010101;
      }

      .cls-2 {
        fill: #fff;
      }
    </style>
  </defs>
  <g id="perforation">
    <g>
      <g>
        <path class="cls-1" d="M28.89,25.31H3.58V0h25.31v25.31ZM4.42,24.47h23.63V.84H4.42v23.63Z"/>
        <path class="cls-1" d="M23.59,17.57l-4.85-7.31v-4.72s0,0,0,0c-.02,0-.04,0-.06,0-.31.03-.61-.04-.92-.07-.03.08-.1.14-.21.14-.78,0-1.55-.05-2.32-.12-.04.03-.09.06-.15.06-.13.01-.26.01-.39.02-.02,0-.03-.01-.05-.02,0,0,0,0,0,0-.3,0-.59.03-.89.06v4.67l-4.85,7.31c-.67,1.01-.73,2.26-.15,3.33.58,1.07,1.64,1.71,2.86,1.71h9.29c1.22,0,2.29-.64,2.86-1.71.58-1.07.52-2.32-.15-3.33ZM23,20.51c-.43.79-1.22,1.27-2.12,1.27h-9.29c-.9,0-1.69-.47-2.12-1.27-.43-.79-.38-1.72.11-2.47l4.92-7.41c.05-.07.07-.15.07-.23v-4.55h3.33v4.55c0,.08.02.16.07.23l4.92,7.41c.5.75.54,1.67.11,2.47Z"/>
        <path class="cls-1" d="M14.97,20.18c-.98,0-1.78-.8-1.78-1.78s.8-1.78,1.78-1.78,1.78.8,1.78,1.78-.8,1.78-1.78,1.78ZM14.97,17.45c-.52,0-.94.42-.94.94s.42.94.94.94.94-.42.94-.94-.42-.94-.94-.94Z"/>
        <circle class="cls-1" cx="18.54" cy="15.43" r=".88"/>
        <path class="cls-1" d="M19.42,6.23h-6.36c-.23,0-.42-.19-.42-.42v-2.69c0-.23.19-.42.42-.42h6.36c.23,0,.42.19.42.42v2.69c0,.23-.19.42-.42.42ZM13.48,5.39h5.52v-1.85h-5.52v1.85Z"/>
        <path class="cls-1" d="M20.14,13.55h-7.79c-.23,0-.42-.19-.42-.42s.19-.42.42-.42h7.79c.23,0,.42.19.42.42s-.19.42-.42.42Z"/>
      </g>
      <g>
        <path class="cls-1" d="M5.36,27.74c0-.12.08-.19.19-.19h.16c.12,0,.2.06.27.18l1.23,2.14c-.02-.23-.03-.46-.03-.63v-1.49c0-.12.07-.19.19-.19h.19c.12,0,.19.08.19.19v2.97c0,.12-.07.19-.19.19h-.16c-.12,0-.21-.07-.27-.18l-1.22-2.13c.02.23.03.46.03.63v1.49c0,.12-.08.19-.19.19h-.18c-.12,0-.19-.08-.19-.19v-2.97Z"/>
        <path class="cls-1" d="M8.42,28.9c0-.82.48-1.41,1.32-1.41s1.32.59,1.32,1.41v.66c0,.83-.48,1.41-1.32,1.41s-1.32-.58-1.32-1.41v-.66ZM9.74,30.48c.57,0,.73-.45.73-.97v-.56c0-.52-.16-.97-.73-.97s-.73.46-.73.97v.56c0,.52.16.97.73.97Z"/>
        <path class="cls-1" d="M13.34,28.06c.08-.32.31-.57.68-.57s.59.26.67.57l.69,2.64c.03.11-.03.21-.15.21h-.19c-.12,0-.2-.08-.23-.19l-.18-.71h-1.23l-.18.71c-.03.12-.11.19-.22.19h-.2c-.12,0-.18-.1-.15-.21l.69-2.63ZM14.52,29.52l-.35-1.39c-.02-.1-.08-.15-.15-.15s-.12.05-.15.15l-.35,1.39h1Z"/>
        <path class="cls-1" d="M16,27.74c0-.12.08-.19.19-.19h1.02c.85,0,1.25.39,1.25,1.23v.9c0,.84-.4,1.22-1.25,1.22h-1.02c-.12,0-.19-.08-.19-.19v-2.97ZM17.2,30.42c.59,0,.68-.31.68-.79v-.79c0-.48-.09-.8-.68-.8h-.63v2.38h.63Z"/>
        <path class="cls-1" d="M19.14,27.74c0-.12.08-.19.19-.19h1.02c.85,0,1.25.39,1.25,1.23v.9c0,.84-.4,1.22-1.25,1.22h-1.02c-.12,0-.19-.08-.19-.19v-2.97ZM20.34,30.42c.59,0,.68-.31.68-.79v-.79c0-.48-.09-.8-.68-.8h-.63v2.38h.63Z"/>
        <path class="cls-1" d="M22.19,28.44c0-.54.34-.89,1.02-.89h.72c.12,0,.19.08.19.19v.1c0,.12-.08.19-.19.19h-.71c-.35,0-.45.16-.45.45v.46h1.02c.12,0,.19.08.19.19v.1c0,.12-.08.19-.19.19h-1.02v.55c0,.29.11.44.45.44h.73c.12,0,.19.08.19.19v.1c0,.12-.08.19-.19.19h-.73c-.68,0-1.02-.36-1.02-.89v-1.57Z"/>
        <path class="cls-1" d="M24.78,27.74c0-.12.08-.19.19-.19h1.02c.85,0,1.25.39,1.25,1.23v.9c0,.84-.4,1.22-1.25,1.22h-1.02c-.12,0-.19-.08-.19-.19v-2.97ZM25.98,30.42c.59,0,.68-.31.68-.79v-.79c0-.48-.09-.8-.68-.8h-.63v2.38h.63Z"/>
        <path class="cls-1" d="M0,32.54c0-.12.08-.19.19-.19h.76c.76,0,1.18.5,1.18,1.08s-.42,1.08-1.18,1.08h-.38v1c0,.12-.07.19-.19.19h-.19c-.12,0-.19-.08-.19-.19v-2.97ZM.93,34.03c.41,0,.6-.29.6-.6s-.18-.6-.6-.6h-.36v1.19h.36Z"/>
        <path class="cls-1" d="M2.71,32.67c0-.12.08-.22.2-.24.17-.05.52-.14.86-.14.73,0,1.12.52,1.12,1.09,0,.32-.18.8-.68.98l.54,1.12c.05.12-.01.22-.13.22h-.24c-.12,0-.19-.06-.24-.17l-.5-1.09h-.36v1.07c0,.12-.07.19-.19.19h-.19c-.12,0-.19-.08-.19-.19v-2.84ZM3.72,33.98c.38,0,.57-.26.57-.6,0-.32-.14-.61-.52-.61-.16,0-.33.02-.49.07v1.13h.44Z"/>
        <path class="cls-1" d="M5.4,33.24c0-.54.34-.89,1.02-.89h.72c.12,0,.19.08.19.19v.1c0,.12-.08.19-.19.19h-.71c-.35,0-.45.16-.45.45v.46h1.02c.12,0,.19.08.19.19v.1c0,.12-.08.19-.19.19h-1.02v.55c0,.29.11.44.45.44h.73c.12,0,.19.08.19.19v.1c0,.12-.08.19-.19.19h-.73c-.68,0-1.02-.36-1.02-.89v-1.57Z"/>
        <path class="cls-1" d="M7.85,35.29c.03-.12.12-.16.23-.12.12.03.38.12.67.12.38,0,.55-.2.55-.48,0-.71-1.45-.48-1.45-1.59,0-.58.47-.92,1.11-.92.29,0,.51.07.64.11.11.04.17.12.13.24l-.03.1c-.04.11-.13.15-.24.12-.12-.04-.29-.08-.5-.08-.34,0-.51.17-.51.44,0,.62,1.45.48,1.45,1.59,0,.58-.46.96-1.15.96-.32,0-.59-.07-.78-.13-.12-.03-.17-.11-.14-.24l.02-.11Z"/>
        <path class="cls-1" d="M10.42,33.24c0-.54.34-.89,1.02-.89h.72c.12,0,.19.08.19.19v.1c0,.12-.08.19-.19.19h-.71c-.35,0-.45.16-.45.45v.46h1.02c.12,0,.19.08.19.19v.1c0,.12-.08.19-.19.19h-1.02v.55c0,.29.11.44.45.44h.73c.12,0,.19.08.19.19v.1c0,.12-.08.19-.19.19h-.73c-.68,0-1.02-.36-1.02-.89v-1.57Z"/>
        <path class="cls-1" d="M13,32.67c0-.12.08-.22.2-.24.17-.05.52-.14.86-.14.73,0,1.12.52,1.12,1.09,0,.32-.18.8-.68.98l.54,1.12c.05.12-.01.22-.13.22h-.24c-.12,0-.19-.06-.24-.17l-.5-1.09h-.36v1.07c0,.12-.07.19-.19.19h-.19c-.12,0-.19-.08-.19-.19v-2.84ZM14.01,33.98c.38,0,.57-.26.57-.6,0-.32-.14-.61-.52-.61-.16,0-.33.02-.49.07v1.13h.44Z"/>
        <path class="cls-1" d="M15.6,32.57c-.04-.12.02-.22.14-.22h.2c.12,0,.2.05.23.16l.59,1.89c.06.18.12.45.17.69.05-.24.12-.51.17-.69l.59-1.88c.03-.11.12-.17.23-.17h.2c.12,0,.18.09.14.23l-.94,2.92c-.04.13-.14.21-.25.21h-.27c-.12,0-.21-.08-.25-.21l-.94-2.93Z"/>
        <path class="cls-1" d="M18.97,32.86c.08-.32.31-.57.68-.57s.59.26.67.57l.69,2.64c.03.11-.03.21-.15.21h-.19c-.12,0-.2-.08-.23-.19l-.18-.71h-1.23l-.18.71c-.03.12-.11.19-.22.19h-.2c-.12,0-.18-.1-.15-.21l.69-2.63ZM20.14,34.32l-.35-1.39c-.02-.1-.08-.15-.15-.15s-.12.05-.15.15l-.35,1.39h1Z"/>
        <path class="cls-1" d="M21.91,32.84h-.63c-.12,0-.19-.08-.19-.19v-.1c0-.12.08-.19.19-.19h1.84c.12,0,.19.08.19.19v.1c0,.12-.07.19-.19.19h-.64v2.67c0,.12-.07.19-.19.19h-.19c-.12,0-.19-.08-.19-.19v-2.67Z"/>
        <path class="cls-1" d="M23.87,32.54c0-.12.08-.19.19-.19h.19c.12,0,.19.08.19.19v2.97c0,.12-.07.19-.19.19h-.19c-.12,0-.19-.08-.19-.19v-2.97Z"/>
        <path class="cls-1" d="M25.06,32.57c-.04-.12.02-.22.14-.22h.2c.12,0,.2.05.23.16l.59,1.89c.06.18.12.45.17.69.05-.24.12-.51.17-.69l.59-1.88c.03-.11.12-.17.23-.17h.2c.12,0,.18.09.14.23l-.94,2.92c-.04.13-.14.21-.25.21h-.27c-.12,0-.21-.08-.25-.21l-.94-2.93Z"/>
        <path class="cls-1" d="M28.17,33.24c0-.54.34-.89,1.02-.89h.72c.12,0,.19.08.19.19v.1c0,.12-.08.19-.19.19h-.71c-.35,0-.45.16-.45.45v.46h1.02c.12,0,.19.08.19.19v.1c0,.12-.08.19-.19.19h-1.02v.55c0,.29.11.44.45.44h.73c.12,0,.19.08.19.19v.1c0,.12-.08.19-.19.19h-.73c-.68,0-1.02-.36-1.02-.89v-1.57Z"/>
        <path class="cls-1" d="M30.62,35.29c.03-.12.12-.16.23-.12.12.03.38.12.67.12.38,0,.55-.2.55-.48,0-.71-1.45-.48-1.45-1.59,0-.58.47-.92,1.11-.92.29,0,.51.07.64.11.11.04.17.12.13.24l-.03.1c-.04.11-.13.15-.24.12-.12-.04-.29-.08-.5-.08-.34,0-.51.17-.51.44,0,.62,1.45.48,1.45,1.59,0,.58-.46.96-1.15.96-.32,0-.59-.07-.78-.13-.12-.03-.17-.11-.14-.24l.02-.11Z"/>
      </g>
      <g>
        <line class="cls-2" x1="28.47" y1=".42" x2="4" y2="24.89"/>
        <rect class="cls-1" x="-1.06" y="12.23" width="34.61" height=".84" transform="translate(-4.19 15.19) rotate(-45.01)"/>
      </g>
    </g>
  </g>
</svg>