<?xml version="1.0" encoding="UTF-8"?>
<svg id="Layer_2" data-name="Layer 2" xmlns="http://www.w3.org/2000/svg" viewBox="0 0 62.79 62.79">
  <defs>
    <style>
      .cls-1 {
        fill: #010101;
      }

      .cls-2 {
        fill: #e5e5e5;
      }
    </style>
  </defs>
  <g id="perforation">
    <g>
      <rect class="cls-2" width="62.79" height="62.79"/>
      <path class="cls-1" d="M47.52,41.59v4.7s11.83,0,11.83,0v4.56h-11.83s0,5.18,0,5.18h13.07v4.56h-18.14s0-23.56,0-23.56h18.14v4.56h-13.07Z"/>
      <path class="cls-1" d="M25,21.27l2.19,1.92-2.57,2.98-2.4-2.09c-2.09,1.58-4.7,2.5-7.51,2.5-6.76,0-12.52-5.59-12.52-12.21,0-6.62,5.76-12.17,12.52-12.17s12.52,5.56,12.52,12.17c0,2.54-.82,4.9-2.23,6.89ZM18.49,20.86l-2.74-2.4,2.57-2.98,2.85,2.47c.58-1.06.89-2.3.89-3.57,0-4.08-3.36-7.58-7.34-7.58-3.94,0-7.3,3.5-7.3,7.58s3.36,7.61,7.3,7.61c1.37,0,2.67-.41,3.77-1.13Z"/>
      <path class="cls-1" d="M25.76,46.42l-7.65,5.38v3.74s7.65,0,7.65,0v5.04s-23.56,0-23.56,0v-10.6c0-5.11,3.29-8.88,7.96-8.88,3.5,0,6.24,2.13,7.37,5.35l8.23-5.8v5.76ZM13.48,55.54v-5.01c0-2.5-1.3-4.22-3.33-4.22s-3.33,1.71-3.33,4.22v5.01s6.65,0,6.65,0Z"/>
      <path class="cls-1" d="M49.99,23.53h-13.37v-5.04h13.17c3.63,0,6.21-2.33,6.21-5.62s-2.57-5.59-6.21-5.59h-13.17V2.2h13.37c6.21,0,10.6,4.42,10.6,10.66s-4.39,10.66-10.6,10.66Z"/>
    </g>
  </g>
</svg>
