<?xml version="1.0" encoding="UTF-8"?>
<svg id="Layer_2" data-name="Layer 2" xmlns="http://www.w3.org/2000/svg" viewBox="0 0 98.91 98.91">
  <defs>
    <style>
      .cls-1 { fill: #010101; }
      .cls-2 { fill: #e5e5e5; }
    </style>
  </defs>
  <g id="Layer_1-2" data-name="Layer 1">
    <g>
      <rect class="cls-2" width="98.91" height="98.91"/>
      <path class="cls-1" d="M74.86,65.52v7.4s18.64,0,18.64,0v7.19s-18.64,0-18.64,0v8.16s20.58,0,20.58,0v7.19s-28.58,0-28.58,0v-37.11s28.58,0,28.58,0v7.19s-20.58,0-20.58,0Z"/>
      <path class="cls-1" d="M39.39,33.5l3.46,3.03-4.05,4.7-3.78-3.3c-3.3,2.49-7.4,3.94-11.83,3.94-10.64,0-19.72-8.81-19.72-19.23,0-10.43,9.08-19.18,19.72-19.18,10.75,0,19.72,8.75,19.72,19.18,0,4-1.3,7.73-3.51,10.86ZM29.13,32.86l-4.32-3.78,4.05-4.7,4.48,3.89c.92-1.67,1.4-3.62,1.4-5.62,0-6.43-5.29-11.94-11.56-11.94s-11.51,5.51-11.51,11.94c0,6.48,5.29,11.99,11.51,11.99,2.16,0,4.21-.65,5.94-1.78Z"/>
      <path class="cls-1" d="M40.58,73.13l-12.05,8.48v5.89s12.05,0,12.05,0v7.94s-37.11,0-37.11,0v-16.69c0-8.05,5.19-13.99,12.53-13.99,5.51,0,9.83,3.35,11.61,8.43l12.97-9.13v9.08ZM21.24,87.5v-7.89c0-3.94-2.05-6.64-5.24-6.64s-5.24,2.7-5.24,6.64v7.89s10.48,0,10.48,0Z"/>
      <path class="cls-1" d="M78.75,37.07h-21.07s0-7.94,0-7.94h20.74c5.73,0,9.78-3.67,9.78-8.86,0-5.13-4.05-8.81-9.78-8.81h-20.74s0-8,0-8h21.07c9.78,0,16.69,6.97,16.69,16.8,0,9.89-6.91,16.8-16.69,16.8Z"/>
    </g>
  </g>
</svg>
