<?xml version="1.0" encoding="UTF-8"?>
<svg id="Layer_2" data-name="Layer 2" xmlns="http://www.w3.org/2000/svg" viewBox="0 0 200.17 50.81">
  <g id="Layer_1-2" data-name="Layer 1">
    <g>
      <path d="M47.53,39.74l4.57,4-5.36,6.22-5-4.36c-4.36,3.29-9.79,5.22-15.65,5.22C12.01,50.81,0,39.16,0,25.37,0,11.58,12.01,0,26.09,0c14.22,0,26.09,11.58,26.09,25.37,0,5.29-1.72,10.22-4.65,14.36ZM33.95,38.88l-5.72-5,5.36-6.22,5.93,5.15c1.21-2.22,1.86-4.79,1.86-7.43,0-8.5-7-15.79-15.29-15.79s-15.22,7.29-15.22,15.79,7,15.87,15.22,15.87c2.86,0,5.57-.86,7.86-2.36Z"/>
      <path d="M59.89,28.73V.86s10.51,0,10.51,0v27.44c0,7.58,4.86,12.94,11.72,12.94,6.79,0,11.65-5.36,11.65-12.94V.86s10.58,0,10.58,0v27.87c0,12.94-9.22,22.08-22.23,22.08-13.08,0-22.23-9.15-22.23-22.08Z"/>
      <path d="M143.43,49.96l-11.22-15.94h-7.79s0,15.94,0,15.94h-10.51s0-49.1,0-49.1h22.08c10.65,0,18.51,6.86,18.51,16.58,0,7.29-4.43,13.01-11.15,15.37l12.08,17.15h-12.01ZM124.42,24.37h10.43c5.22,0,8.79-2.72,8.79-6.93,0-4.22-3.57-6.93-8.79-6.93h-10.43s0,13.86,0,13.86Z"/>
      <path d="M172.94,10.36v9.79s24.66,0,24.66,0v9.51s-24.66,0-24.66,0v10.79s27.23,0,27.23,0v9.51s-37.81,0-37.81,0V.86s37.81,0,37.81,0v9.51s-27.23,0-27.23,0Z"/>
    </g>
  </g>
</svg>