<?xml version="1.0" encoding="UTF-8"?>
<svg id="Layer_2" data-name="Layer 2" xmlns="http://www.w3.org/2000/svg" viewBox="0 0 62.79 62.79">
  <defs>
    <style>
      .cls-1 {
        fill: #000000;
      }

      .cls-2 {
        fill: #9279b7;
      }
    </style>
  </defs>
  <g id="perforation">
    <g>
      <rect class="cls-2" width="62.79" height="62.79"/>
      <g>
        <path class="cls-1" d="M10.54,26.06l.15-.61c.18-.71.74-1.05,1.45-.82.61.2,1.74.59,3.01.59,2.25,0,3.19-1.61,3.19-3.21,0-1.5-.74-2.91-2.76-2.91-1.17,0-2.09.28-2.32.36-.74.25-1.25.23-1.61-.31l-.43-.66c-.28-.43-.36-.92-.36-1.86v-5.31c0-.66.43-1.22,1.1-1.22h8.04c.74,0,1.22.25,1.15,1.15l-.05.69c-.05.79-.59,1.12-1.33,1.12h-5.64v3.27c.56-.1,1.1-.15,1.66-.15,3.93,0,6.17,2.35,6.17,5.84,0,3.85-2.93,6.23-6.86,6.23-1.68,0-2.99-.41-3.73-.66-.79-.28-1.02-.79-.84-1.5Z"/>
        <path class="cls-1" d="M24.19,17.03c0-4.49,2.3-7.27,6.35-7.27s6.35,2.91,6.35,7.27v3.9c0,4.49-2.25,7.3-6.35,7.3s-6.35-2.91-6.35-7.3v-3.9ZM33.27,20.42v-2.88c0-2.86-.66-4.77-2.73-4.77s-2.73,1.89-2.73,4.77v2.88c0,2.88.64,4.8,2.73,4.8s2.73-1.91,2.73-4.8Z"/>
        <path class="cls-1" d="M39.39,17.03c0-4.49,2.3-7.27,6.35-7.27s6.35,2.91,6.35,7.27v3.9c0,4.49-2.25,7.3-6.35,7.3s-6.35-2.91-6.35-7.3v-3.9ZM48.47,20.42v-2.88c0-2.86-.66-4.77-2.73-4.77s-2.73,1.89-2.73,4.77v2.88c0,2.88.64,4.8,2.73,4.8s2.73-1.91,2.73-4.8Z"/>
        <path class="cls-1" d="M19.08,41.34c0-.74.48-1.22,1.22-1.22h.69c.74,0,1.17.33,1.25.97l.03.18c.84-.79,1.94-1.48,3.32-1.48,1.68,0,2.86.59,3.52,1.66.97-.87,2.14-1.66,3.67-1.66,2.73,0,4.26,1.66,4.26,4.54v7.86c0,.74-.49,1.22-1.22,1.22h-1.12c-.74,0-1.22-.48-1.22-1.22v-7.45c0-1.43-.43-1.94-1.45-1.94-.84,0-1.53.43-2.19,1.07,0,.18.03.38.03.56v7.76c0,.74-.48,1.22-1.22,1.22h-1.12c-.74,0-1.22-.48-1.22-1.22v-7.45c0-1.43-.43-1.94-1.45-1.94-.87,0-1.45.48-2.17,1.15v8.24c0,.74-.48,1.22-1.22,1.22h-1.12c-.74,0-1.22-.48-1.22-1.22v-10.84Z"/>
        <path class="cls-1" d="M40.06,36.11c0-.74.48-1.22,1.22-1.22h1.12c.74,0,1.22.49,1.22,1.22v13.9c0,.46.08.69.23.82.36.23.49.64.36,1.15l-.23.84c-.13.51-.43.94-1.35.79-1.33-.31-2.58-1.02-2.58-3.21v-14.29Z"/>
      </g>
    </g>
  </g>
</svg>