<?xml version="1.0" encoding="UTF-8"?>
<svg xmlns="http://www.w3.org/2000/svg" viewBox="0 80 220 50.86">
  <defs>
    <style>
      .cls-2 { fill: #9279b7; }
    </style>
  </defs><g transform="translate(-185.350 0)">
  <path class="cls-2" d="M223.2,82.15l-4.96,13.64c1.32-1.74,2.63-2.99,3.95-3.76,1.32-.77,2.52-1.16,3.61-1.16,1.38,0,2.51.53,3.37,1.59.87,1.06,1.36,2.54,1.49,4.43s-.26,4.1-1.16,6.6c-1.09,3.02-2.55,5.45-4.36,7.3-1.81,1.85-3.85,3.2-6.1,4.05-2.25.85-4.59,1.28-7.04,1.28-.42,0-.88-.19-1.37-.58-.5-.38-.92-.83-1.25-1.33-.34-.5-.46-.88-.36-1.13.13-.22.34-.34.63-.34,2.31,0,4.53-.42,6.65-1.25,2.12-.83,4.02-2.14,5.71-3.9,1.69-1.77,3.03-4.03,4.02-6.79.54-1.45.55-2.65.02-3.61s-1.36-1.45-2.48-1.45c-.87,0-1.84.35-2.91,1.06-1.08.71-2.16,1.84-3.25,3.4-1.09,1.56-2.12,3.65-3.08,6.29l-1.35,3.66c-.03.22-.21.34-.53.34-.39,0-.83-.18-1.33-.55-.5-.37-.92-.8-1.25-1.28s-.44-.88-.31-1.21l10.17-28c.1-.22.29-.34.58-.34.39,0,.83.19,1.33.55s.92.79,1.25,1.25.44.88.31,1.23Z"/>
  <path class="cls-2" d="M245.03,82.15l-9.73,26.79c-.51,1.45-.83,2.63-.94,3.57s-.13,1.62-.05,2.07.1.71.07.77c-.03.19-.19.29-.48.29-1.61,0-2.61-.86-3.01-2.58-.4-1.72-.1-3.93.89-6.63l9.78-26.99c.1-.22.29-.34.58-.34.39,0,.83.19,1.33.55.5.37.92.79,1.25,1.25.34.47.44.88.31,1.23Z"/>
  <path class="cls-2" d="M262.71,94.2l-7.66,21.11c-.1.26-.29.38-.58.38-.35,0-.79-.18-1.3-.55-.51-.37-.93-.8-1.25-1.3-.32-.5-.43-.91-.34-1.23l1.16-3.18c-1.61,2.18-3.22,3.81-4.84,4.87-1.62,1.06-3.06,1.59-4.31,1.59-2.15,0-3.54-.84-4.17-2.53s-.43-3.98.6-6.87l5.49-14.99c.06-.26.26-.39.58-.39.39,0,.82.19,1.3.55.48.37.89.79,1.23,1.28.34.48.44.9.31,1.25l-4.48,12.29c-.51,1.41-.58,2.51-.19,3.3s1.03,1.18,1.93,1.18,1.97-.43,3.2-1.28c1.24-.85,2.51-2.19,3.81-4.02,1.3-1.83,2.48-4.24,3.54-7.23l2.55-6.94c.06-.26.26-.39.58-.39.39,0,.82.19,1.3.55.48.37.89.79,1.23,1.28.34.48.44.9.31,1.25Z"/>
  <path class="cls-2" d="M277.7,111.98c-1.51,1.25-2.96,2.22-4.34,2.89-1.38.67-2.78,1.01-4.19,1.01-1.7,0-3.08-.31-4.12-.92-1.04-.61-1.82-1.42-2.31-2.43-.5-1.01-.79-2.13-.89-3.35-.1-1.22-.03-2.45.19-3.69.22-1.24.55-2.39.96-3.45.87-2.25,2.05-4.2,3.54-5.86,1.49-1.65,3.1-2.95,4.82-3.88,1.72-.93,3.32-1.4,4.79-1.4.9,0,1.81.17,2.75.51s1.74.84,2.43,1.49c.69.66,1.16,1.48,1.4,2.46.24.98.1,2.13-.41,3.45-.8,2.15-2.36,4.1-4.67,5.85s-5.61,3-9.88,3.73c-.29.07-.65-.03-1.08-.29-.43-.26-.81-.56-1.13-.92-.42,1.35-.63,2.39-.63,3.13s.12,1.26.36,1.57c.24.31.51.48.82.53.3.05.55.07.75.07,1.03,0,2.22-.31,3.57-.94,1.35-.63,2.73-1.52,4.14-2.67.26-.22.6-.23,1.04-.02s.86.52,1.28.94c.42.42.72.84.92,1.25.19.42.16.72-.1.92ZM266.38,104.75l-.05.14c2.63-.55,4.97-1.34,7.01-2.39,2.04-1.04,3.7-2.14,4.96-3.28,1.27-1.14,2.08-2.14,2.43-3.01.06-.13.09-.34.07-.65-.02-.31-.19-.59-.51-.87-.32-.27-.93-.41-1.83-.41-1.09,0-2.24.29-3.45.87s-2.36,1.36-3.47,2.34c-1.11.98-2.11,2.1-3.01,3.35s-1.62,2.55-2.17,3.9Z"/>
  <path class="cls-2" d="M295.92,82.15l-4.96,13.64c1.32-1.74,2.63-2.99,3.95-3.76,1.32-.77,2.52-1.16,3.61-1.16,1.38,0,2.51.53,3.37,1.59.87,1.06,1.36,2.54,1.49,4.43s-.26,4.1-1.16,6.6c-1.09,3.02-2.55,5.45-4.36,7.3-1.81,1.85-3.85,3.2-6.1,4.05-2.25.85-4.59,1.28-7.04,1.28-.42,0-.88-.19-1.37-.58-.5-.38-.92-.83-1.25-1.33-.34-.5-.46-.88-.36-1.13.13-.22.34-.34.63-.34,2.31,0,4.53-.42,6.65-1.25,2.12-.83,4.02-2.14,5.71-3.9,1.69-1.77,3.03-4.03,4.02-6.79.54-1.45.55-2.65.02-3.61s-1.36-1.45-2.48-1.45c-.87,0-1.84.35-2.91,1.06-1.08.71-2.16,1.84-3.25,3.4-1.09,1.56-2.12,3.65-3.08,6.29l-1.35,3.66c-.03.22-.21.34-.53.34-.39,0-.83-.18-1.33-.55-.5-.37-.92-.8-1.25-1.28s-.44-.88-.31-1.21l10.17-28c.1-.22.29-.34.58-.34.39,0,.83.19,1.33.55s.92.79,1.25,1.25.44.88.31,1.23Z"/>
  <path class="cls-2" d="M320.11,111.98c-1.51,1.25-2.96,2.22-4.34,2.89-1.38.67-2.78,1.01-4.19,1.01-1.7,0-3.08-.31-4.12-.92-1.04-.61-1.82-1.42-2.31-2.43-.5-1.01-.79-2.13-.89-3.35-.1-1.22-.03-2.45.19-3.69.22-1.24.54-2.39.96-3.45.87-2.25,2.05-4.2,3.54-5.86,1.49-1.65,3.1-2.95,4.82-3.88s3.32-1.4,4.79-1.4c.9,0,1.81.17,2.75.51s1.74.84,2.43,1.49c.69.66,1.16,1.48,1.4,2.46.24.98.1,2.13-.41,3.45-.8,2.15-2.36,4.1-4.67,5.85-2.31,1.75-5.61,3-9.88,3.73-.29.07-.65-.03-1.08-.29-.43-.26-.81-.56-1.13-.92-.42,1.35-.63,2.39-.63,3.13s.12,1.26.36,1.57c.24.31.51.48.82.53.3.05.55.07.75.07,1.03,0,2.22-.31,3.57-.94,1.35-.63,2.73-1.52,4.14-2.67.26-.22.6-.23,1.04-.02s.86.52,1.28.94c.42.42.72.84.92,1.25.19.42.16.72-.1.92ZM308.78,104.75l-.05.14c2.63-.55,4.97-1.34,7.01-2.39,2.04-1.04,3.69-2.14,4.96-3.28,1.27-1.14,2.08-2.14,2.43-3.01.06-.13.09-.34.07-.65-.02-.31-.19-.59-.51-.87-.32-.27-.93-.41-1.83-.41-1.09,0-2.24.29-3.45.87s-2.36,1.36-3.47,2.34c-1.11.98-2.11,2.1-3.01,3.35-.9,1.25-1.62,2.55-2.17,3.9Z"/>
  <path class="cls-2" d="M334.27,94.2l-2.75,7.47c1.45-2.22,3-4.24,4.67-6.07s3.39-3.23,5.16-4.19c.29-.16.64-.14,1.06.07.42.21.81.5,1.18.87.37.37.62.75.75,1.13.13.39.03.66-.29.82-1.64.9-3.29,2.04-4.94,3.42-1.66,1.38-3.24,2.92-4.75,4.6-1.51,1.69-2.88,3.47-4.1,5.35-1.22,1.88-2.22,3.77-2.99,5.66l-.72,1.98c-.13.35-.39.47-.79.36-.4-.11-.83-.35-1.28-.72-.45-.37-.82-.77-1.11-1.21s-.38-.81-.29-1.13l7.71-21.11c.13-.35.39-.47.79-.36.4.11.83.35,1.28.72.45.37.82.77,1.11,1.21s.39.81.29,1.13Z"/>
  <path class="cls-2" d="M351.29,94.2l-2.75,7.47c1.45-2.22,3-4.24,4.67-6.07,1.67-1.83,3.39-3.23,5.16-4.19.29-.16.64-.14,1.06.07.42.21.81.5,1.18.87.37.37.62.75.75,1.13s.03.66-.29.82c-1.64.9-3.29,2.04-4.94,3.42s-3.24,2.92-4.75,4.6c-1.51,1.69-2.88,3.47-4.1,5.35-1.22,1.88-2.22,3.77-2.99,5.66l-.72,1.98c-.13.35-.39.47-.79.36-.4-.11-.83-.35-1.28-.72-.45-.37-.82-.77-1.11-1.21s-.39-.81-.29-1.13l7.71-21.11c.13-.35.39-.47.79-.36.4.11.83.35,1.28.72.45.37.82.77,1.11,1.21s.39.81.29,1.13Z"/>
  <path class="cls-2" d="M367.33,93.96l-1.01,16.87,12.05-19.42c.19-.29.5-.35.92-.19.42.16.84.43,1.28.82s.77.79,1.01,1.23.28.78.12,1.04l-15.28,24.67c-.67,1.06-1.49,2.12-2.43,3.18-.95,1.06-2.04,1.94-3.28,2.65-1.24.71-2.63,1.06-4.17,1.06-.39,0-.8-.17-1.25-.51-.45-.34-.83-.73-1.16-1.18-.32-.45-.5-.84-.53-1.18-.03-.34.19-.51.67-.51,1.03,0,2.11-.31,3.23-.94,1.12-.63,2.18-1.44,3.16-2.43.98-1,1.79-2.01,2.43-3.04l1.78-2.89c-.48-.26-.96-.65-1.45-1.18-.48-.53-.72-1-.72-1.42l1.16-18.84c0-.45.18-.66.55-.63.37.03.78.21,1.23.53.45.32.84.7,1.18,1.13s.51.83.51,1.18Z"/>
</g></svg>
