<?xml version="1.0" encoding="UTF-8"?>
<svg id="Layer_2" data-name="Layer 2" xmlns="http://www.w3.org/2000/svg" viewBox="0 0 381.79 125.33">
  <defs>
    <style>
      .cls-1 {
        fill: none;
      }

      .cls-2 {
        fill: #f89a1c;
      }

      path:not([class]), polygon:not([class]) {
        fill: #000000;
      }
    </style>
  </defs>
  <g id="perforation">
    <g>
      <g>
        <path class="cls-1" d="M20.72,48.39c0,16.36,13.36,30.26,29.03,30.26,5.45,0,10.63-1.64,14.99-4.5l-10.9-9.54,10.22-11.86,11.31,9.81c2.32-4.23,3.54-9.13,3.54-14.18,0-16.22-13.36-30.12-29.17-30.12s-29.03,13.9-29.03,30.12Z"/>
        <path class="cls-1" d="M156.61,78.65c12.95,0,22.22-10.22,22.22-24.67V8.82h-44.57v45.16c0,14.45,9.27,24.67,22.35,24.67Z"/>
        <path class="cls-1" d="M273.97,33.26c0-8.04-6.82-13.22-16.77-13.22h-19.9v26.44s19.9,0,19.9,0c9.95,0,16.77-5.18,16.77-13.22Z"/>
        <path d="M0,48.39c0,26.31,22.9,48.53,49.75,48.53,11.18,0,21.54-3.68,29.85-9.95l9.54,8.32,10.22-11.86-8.72-7.63c5.59-7.91,8.86-17.31,8.86-27.4,0-16.18-8.56-30.74-21.45-39.57H21.57C8.66,17.65,0,32.22,0,48.39ZM78.92,48.39c0,5.04-1.23,9.95-3.54,14.18l-11.31-9.81-10.22,11.86,10.9,9.54c-4.36,2.86-9.54,4.5-14.99,4.5-15.68,0-29.03-13.9-29.03-30.26s13.36-30.12,29.03-30.12,29.17,13.9,29.17,30.12Z"/>
        <path d="M178.83,53.98c0,14.45-9.27,24.67-22.22,24.67s-22.35-10.22-22.35-24.67V8.82h-20.04v45.98c0,24.67,17.45,42.12,42.39,42.12,24.81,0,42.39-17.45,42.39-42.12V8.82h-20.17v45.16Z"/>
        <path d="M217.27,95.28h20.04v-30.4h14.86l21.4,30.4h22.9l-23.04-32.71c12.81-4.5,21.26-15.4,21.26-29.31,0-10.24-4.58-18.82-12.11-24.44h-65.32v86.46ZM237.3,20.04h19.9c9.95,0,16.77,5.18,16.77,13.22s-6.82,13.22-16.77,13.22h-19.9v-26.44Z"/>
        <polygon points="309.68 95.28 381.79 95.28 381.79 77.15 329.85 77.15 329.85 56.57 376.88 56.57 376.88 38.44 329.85 38.44 329.85 19.76 381.79 19.76 381.79 8.82 309.68 8.82 309.68 95.28"/>
        <g>
          <path class="cls-2" d="M21.57,8.82h56.48C69.98,3.29,60.2,0,49.75,0s-20.09,3.29-28.18,8.82Z"/>
          <rect class="cls-2" x="178.83" y="1.64" width="20.17" height="7.18"/>
          <rect class="cls-2" x="114.22" y="1.64" width="20.04" height="7.18"/>
          <path class="cls-2" d="M217.27,1.64v7.18h65.32c-6.09-4.56-14.11-7.18-23.2-7.18h-42.12Z"/>
          <rect class="cls-2" x="309.68" y="1.64" width="72.11" height="7.18"/>
        </g>
      </g>
      <g>
        <path class="cls-2" d="M268.31,94.19l-.96,2.6c1.48-2.02,2.92-3.52,4.31-4.48,1.4-.96,2.63-1.45,3.69-1.45,1.22,0,2.14.62,2.75,1.86.61,1.24.74,3.03.38,5.37,1.61-2.47,3.19-4.3,4.75-5.47,1.56-1.17,2.93-1.76,4.12-1.76,1.06,0,1.9.47,2.51,1.4s.88,2.29.82,4.07c-.06,1.78-.56,3.96-1.49,6.53l-4.53,12.43c-.1.26-.29.38-.58.38-.35,0-.78-.18-1.28-.55-.5-.37-.92-.8-1.25-1.3-.34-.5-.44-.91-.31-1.23l4.48-12.43c.55-1.45.71-2.57.48-3.37-.22-.8-.71-1.21-1.45-1.21s-1.65.43-2.72,1.3c-1.08.87-2.2,2.22-3.37,4.07-1.17,1.85-2.31,4.26-3.4,7.25l-2.6,7.08c-.1.26-.29.38-.58.38-.35,0-.78-.18-1.28-.55-.5-.37-.92-.8-1.25-1.3-.34-.5-.44-.91-.31-1.23l4.48-12.43c.54-1.45.7-2.57.46-3.37-.24-.8-.73-1.21-1.47-1.21s-1.6.43-2.67,1.3c-1.08.87-2.21,2.22-3.4,4.07-1.19,1.85-2.33,4.26-3.42,7.25l-2.6,7.08c-.1.26-.29.38-.58.38-.35,0-.78-.18-1.28-.55-.5-.37-.92-.8-1.25-1.3-.34-.5-.44-.91-.31-1.23l7.66-21.11c.1-.26.29-.39.58-.39.39,0,.82.19,1.3.55.48.37.9.79,1.25,1.28.35.48.46.9.34,1.25Z"/>
        <path class="cls-2" d="M307.87,94.53c-1.41,0-2.77.37-4.07,1.11s-2.51,1.7-3.61,2.89c-1.11,1.19-2.07,2.45-2.87,3.78-.8,1.33-1.43,2.61-1.88,3.83-.55,1.54-.84,2.72-.89,3.54-.05.82.03,1.4.24,1.73.21.34.44.53.7.58.26.05.4.07.43.07.74,0,1.6-.39,2.58-1.16.98-.77,1.98-1.75,3.01-2.94,1.03-1.19,2.02-2.45,2.96-3.78s1.76-2.57,2.43-3.71c.68-1.14,1.14-2.03,1.4-2.67l2.31-6.31c.13-.35.4-.47.82-.36.42.11.85.35,1.3.72.45.37.82.77,1.11,1.21s.37.81.24,1.13l-4.34,11.95c-.61,1.64-.94,3.21-.99,4.7-.05,1.49.12,2.74.51,3.73.19.51.16.84-.1.96-.26.13-.61.1-1.06-.1-.45-.19-.89-.47-1.33-.84s-.73-.79-.89-1.28c-.45-1.29-.69-2.62-.72-4-1.06,1.9-2.24,3.45-3.54,4.67-1.3,1.22-2.79,1.83-4.46,1.83-1.41,0-2.55-.3-3.42-.89-.87-.6-1.5-1.37-1.9-2.31-.4-.95-.64-1.98-.72-3.08s-.03-2.2.14-3.28c.18-1.08.41-2.02.7-2.82.54-1.45,1.29-2.89,2.24-4.34.95-1.45,2.03-2.77,3.25-3.98,1.22-1.21,2.52-2.17,3.9-2.89,1.38-.72,2.76-1.08,4.14-1.08.45,0,.9.17,1.35.51.45.34.83.73,1.16,1.18.32.45.49.84.51,1.18.02.34-.2.51-.65.51Z"/>
        <path class="cls-2" d="M311.72,112.56l7.66-21.11c.1-.26.29-.39.58-.39.38,0,.82.19,1.3.55.48.37.9.8,1.25,1.28.35.48.47.9.34,1.25l-1.16,3.18c1.61-2.18,3.22-3.81,4.84-4.87s3.06-1.59,4.31-1.59c2.15,0,3.54.84,4.17,2.53s.43,3.98-.6,6.87l-5.49,14.99c-.06.26-.26.39-.58.39-.35,0-.78-.19-1.28-.55-.5-.37-.92-.8-1.25-1.3-.34-.5-.44-.91-.31-1.23l4.48-12.29c.51-1.41.58-2.51.19-3.3s-1.03-1.18-1.93-1.18-1.97.43-3.2,1.28c-1.24.85-2.5,2.19-3.78,4.02s-2.47,4.24-3.57,7.23l-2.55,6.94c-.07.26-.26.39-.58.39-.35,0-.78-.19-1.28-.55-.5-.37-.92-.8-1.25-1.3-.34-.5-.44-.91-.31-1.23Z"/>
        <path class="cls-2" d="M358.27,94.19l-8.14,22.36c-1.03,2.83-2.57,5-4.63,6.5-2.06,1.51-4.21,2.27-6.46,2.27-1.03,0-2.06-.18-3.08-.53-1.03-.35-1.99-.88-2.89-1.59-.13-.13-.14-.31-.05-.53.1-.32.33-.71.7-1.16.37-.45.78-.88,1.23-1.3.45-.42.87-.75,1.25-.99.38-.24.64-.3.77-.17,1.16.87,2.25,1.3,3.28,1.3,1.28,0,2.49-.56,3.61-1.69,1.12-1.12,2.06-2.73,2.79-4.82l.19-.58c-1.74,1.54-3.71,2.31-5.93,2.31-1.77,0-3.1-.33-4-.99s-1.47-1.5-1.71-2.53c-.24-1.03-.29-2.14-.14-3.33s.38-2.31.7-3.37c.32-1.06.61-1.94.87-2.65.39-1.03.92-2.19,1.59-3.49.68-1.3,1.52-2.58,2.53-3.83,1.01-1.25,2.2-2.28,3.57-3.08,1.37-.8,2.9-1.21,4.6-1.21.83,0,1.71.11,2.63.34.92.22,1.87.61,2.87,1.16l.39-1.11c.1-.26.29-.39.58-.39.38,0,.83.19,1.32.55s.92.79,1.25,1.28c.34.48.44.9.31,1.25ZM340.11,105.42c-.74,2.06-1.1,3.78-1.08,5.18.02,1.4.39,2.1,1.13,2.1.45,0,1.09-.13,1.93-.39.83-.26,1.76-.75,2.77-1.49,1.01-.74,2.05-1.82,3.13-3.25,1.08-1.43,2.08-3.3,3.01-5.61l2.6-7.13c-.8-.26-1.59-.39-2.36-.39-1.25,0-2.45.32-3.59.96-1.14.64-2.19,1.49-3.16,2.55-.96,1.06-1.82,2.24-2.55,3.54-.74,1.3-1.35,2.61-1.83,3.93Z"/>
        <path class="cls-2" d="M365.69,115.88c-2.02,0-3.64-.44-4.84-1.33-1.21-.88-2.06-2.02-2.58-3.42s-.73-2.9-.65-4.51c.08-1.61.38-3.13.89-4.58,1.25-3.44,2.97-6.16,5.16-8.17s4.69-3.01,7.52-3.01c2.02,0,3.64.44,4.84,1.33,1.21.88,2.06,2.02,2.58,3.42s.74,2.91.67,4.53c-.07,1.62-.37,3.16-.92,4.6-1.25,3.44-2.96,6.15-5.13,8.14-2.17,1.99-4.68,2.99-7.54,2.99ZM363.33,112.51c2.38,0,4.61-.94,6.7-2.82,2.09-1.88,3.71-4.42,4.87-7.64.87-2.41,1.18-4.31.94-5.71s-1-2.1-2.29-2.1c-2.38,0-4.61.94-6.7,2.82-2.09,1.88-3.71,4.44-4.87,7.69-.87,2.38-1.18,4.26-.94,5.66.24,1.4,1,2.1,2.29,2.1Z"/>
      </g>
    </g>
  </g>
</svg>