<?xml version="1.0" encoding="UTF-8"?>
<svg xmlns="http://www.w3.org/2000/svg" viewBox="0 80 220 50.86">
  <defs>
    <style>
      .cls-2 { fill: #f89a1c; }
    </style>
  </defs><g transform="translate(-208.250 0)">
  <path class="cls-2" d="M268.31,94.19l-.96,2.6c1.48-2.02,2.92-3.52,4.31-4.48,1.4-.96,2.63-1.45,3.69-1.45,1.22,0,2.14.62,2.75,1.86.61,1.24.74,3.03.38,5.37,1.61-2.47,3.19-4.3,4.75-5.47,1.56-1.17,2.93-1.76,4.12-1.76,1.06,0,1.9.47,2.51,1.4s.88,2.29.82,4.07c-.06,1.78-.56,3.96-1.49,6.53l-4.53,12.43c-.1.26-.29.38-.58.38-.35,0-.78-.18-1.28-.55-.5-.37-.92-.8-1.25-1.3-.34-.5-.44-.91-.31-1.23l4.48-12.43c.55-1.45.71-2.57.48-3.37-.22-.8-.71-1.21-1.45-1.21s-1.65.43-2.72,1.3c-1.08.87-2.2,2.22-3.37,4.07-1.17,1.85-2.31,4.26-3.4,7.25l-2.6,7.08c-.1.26-.29.38-.58.38-.35,0-.78-.18-1.28-.55-.5-.37-.92-.8-1.25-1.3-.34-.5-.44-.91-.31-1.23l4.48-12.43c.54-1.45.7-2.57.46-3.37-.24-.8-.73-1.21-1.47-1.21s-1.6.43-2.67,1.3c-1.08.87-2.21,2.22-3.4,4.07-1.19,1.85-2.33,4.26-3.42,7.25l-2.6,7.08c-.1.26-.29.38-.58.38-.35,0-.78-.18-1.28-.55-.5-.37-.92-.8-1.25-1.3-.34-.5-.44-.91-.31-1.23l7.66-21.11c.1-.26.29-.39.58-.39.39,0,.82.19,1.3.55.48.37.9.79,1.25,1.28.35.48.46.9.34,1.25Z"/>
  <path class="cls-2" d="M307.87,94.53c-1.41,0-2.77.37-4.07,1.11s-2.51,1.7-3.61,2.89c-1.11,1.19-2.07,2.45-2.87,3.78-.8,1.33-1.43,2.61-1.88,3.83-.55,1.54-.84,2.72-.89,3.54-.05.82.03,1.4.24,1.73.21.34.44.53.7.58.26.05.4.07.43.07.74,0,1.6-.39,2.58-1.16.98-.77,1.98-1.75,3.01-2.94,1.03-1.19,2.02-2.45,2.96-3.78s1.76-2.57,2.43-3.71c.68-1.14,1.14-2.03,1.4-2.67l2.31-6.31c.13-.35.4-.47.82-.36.42.11.85.35,1.3.72.45.37.82.77,1.11,1.21s.37.81.24,1.13l-4.34,11.95c-.61,1.64-.94,3.21-.99,4.7-.05,1.49.12,2.74.51,3.73.19.51.16.84-.1.96-.26.13-.61.1-1.06-.1-.45-.19-.89-.47-1.33-.84s-.73-.79-.89-1.28c-.45-1.29-.69-2.62-.72-4-1.06,1.9-2.24,3.45-3.54,4.67-1.3,1.22-2.79,1.83-4.46,1.83-1.41,0-2.55-.3-3.42-.89-.87-.6-1.5-1.37-1.9-2.31-.4-.95-.64-1.98-.72-3.08s-.03-2.2.14-3.28c.18-1.08.41-2.02.7-2.82.54-1.45,1.29-2.89,2.24-4.34.95-1.45,2.03-2.77,3.25-3.98,1.22-1.21,2.52-2.17,3.9-2.89,1.38-.72,2.76-1.08,4.14-1.08.45,0,.9.17,1.35.51.45.34.83.73,1.16,1.18.32.45.49.84.51,1.18.02.34-.2.51-.65.51Z"/>
  <path class="cls-2" d="M311.72,112.56l7.66-21.11c.1-.26.29-.39.58-.39.38,0,.82.19,1.3.55.48.37.9.8,1.25,1.28.35.48.47.9.34,1.25l-1.16,3.18c1.61-2.18,3.22-3.81,4.84-4.87s3.06-1.59,4.31-1.59c2.15,0,3.54.84,4.17,2.53s.43,3.98-.6,6.87l-5.49,14.99c-.06.26-.26.39-.58.39-.35,0-.78-.19-1.28-.55-.5-.37-.92-.8-1.25-1.3-.34-.5-.44-.91-.31-1.23l4.48-12.29c.51-1.41.58-2.51.19-3.3s-1.03-1.18-1.93-1.18-1.97.43-3.2,1.28c-1.24.85-2.5,2.19-3.78,4.02s-2.47,4.24-3.57,7.23l-2.55,6.94c-.07.26-.26.39-.58.39-.35,0-.78-.19-1.28-.55-.5-.37-.92-.8-1.25-1.3-.34-.5-.44-.91-.31-1.23Z"/>
  <path class="cls-2" d="M358.27,94.19l-8.14,22.36c-1.03,2.83-2.57,5-4.63,6.5-2.06,1.51-4.21,2.27-6.46,2.27-1.03,0-2.06-.18-3.08-.53-1.03-.35-1.99-.88-2.89-1.59-.13-.13-.14-.31-.05-.53.1-.32.33-.71.7-1.16.37-.45.78-.88,1.23-1.3.45-.42.87-.75,1.25-.99.38-.24.64-.3.77-.17,1.16.87,2.25,1.3,3.28,1.3,1.28,0,2.49-.56,3.61-1.69,1.12-1.12,2.06-2.73,2.79-4.82l.19-.58c-1.74,1.54-3.71,2.31-5.93,2.31-1.77,0-3.1-.33-4-.99s-1.47-1.5-1.71-2.53c-.24-1.03-.29-2.14-.14-3.33s.38-2.31.7-3.37c.32-1.06.61-1.94.87-2.65.39-1.03.92-2.19,1.59-3.49.68-1.3,1.52-2.58,2.53-3.83,1.01-1.25,2.2-2.28,3.57-3.08,1.37-.8,2.9-1.21,4.6-1.21.83,0,1.71.11,2.63.34.92.22,1.87.61,2.87,1.16l.39-1.11c.1-.26.29-.39.58-.39.38,0,.83.19,1.32.55s.92.79,1.25,1.28c.34.48.44.9.31,1.25ZM340.11,105.42c-.74,2.06-1.1,3.78-1.08,5.18.02,1.4.39,2.1,1.13,2.1.45,0,1.09-.13,1.93-.39.83-.26,1.76-.75,2.77-1.49,1.01-.74,2.05-1.82,3.13-3.25,1.08-1.43,2.08-3.3,3.01-5.61l2.6-7.13c-.8-.26-1.59-.39-2.36-.39-1.25,0-2.45.32-3.59.96-1.14.64-2.19,1.49-3.16,2.55-.96,1.06-1.82,2.24-2.55,3.54-.74,1.3-1.35,2.61-1.83,3.93Z"/>
  <path class="cls-2" d="M365.69,115.88c-2.02,0-3.64-.44-4.84-1.33-1.21-.88-2.06-2.02-2.58-3.42s-.73-2.9-.65-4.51c.08-1.61.38-3.13.89-4.58,1.25-3.44,2.97-6.16,5.16-8.17s4.69-3.01,7.52-3.01c2.02,0,3.64.44,4.84,1.33,1.21.88,2.06,2.02,2.58,3.42s.74,2.91.67,4.53c-.07,1.62-.37,3.16-.92,4.6-1.25,3.44-2.96,6.15-5.13,8.14-2.17,1.99-4.68,2.99-7.54,2.99ZM363.33,112.51c2.38,0,4.61-.94,6.7-2.82,2.09-1.88,3.71-4.42,4.87-7.64.87-2.41,1.18-4.31.94-5.71s-1-2.1-2.29-2.1c-2.38,0-4.61.94-6.7,2.82-2.09,1.88-3.71,4.44-4.87,7.69-.87,2.38-1.18,4.26-.94,5.66.24,1.4,1,2.1,2.29,2.1Z"/>
</g></svg>
