<?xml version="1.0" encoding="UTF-8"?>
<svg xmlns="http://www.w3.org/2000/svg" viewBox="0 80 220 50.86">
  <defs>
    <style>
      .cls-2 { fill: #ed1c24; }
    </style>
  </defs><g transform="translate(-173.550 0)">
  <path class="cls-2" d="M201.03,99.5c.06-1.22-.06-2.24-.36-3.06-.31-.82-.67-1.43-1.08-1.83-.42-.4-.77-.6-1.06-.6-.07,0-.25.02-.55.07-.31.05-.64.23-1.01.53-.37.31-.7.84-.99,1.61-.35,1-.42,1.88-.19,2.65.22.77.61,1.47,1.16,2.1.55.63,1.16,1.24,1.86,1.83s1.32,1.2,1.88,1.81c.56.61.96,1.27,1.2,1.98.24.71.2,1.51-.12,2.41-.39,1.09-1.07,2.09-2.05,2.99-.98.9-2.14,1.61-3.47,2.14s-2.72.79-4.17.79-2.51-.14-3.4-.43c-.88-.29-1.58-.81-2.1-1.57-.51-.75-.92-1.81-1.21-3.16-.06-.22.12-.52.55-.89.43-.37.94-.71,1.52-1.04.58-.32,1.11-.55,1.59-.67.48-.13.74-.06.77.19.42,1.86,1.08,3.27,1.97,4.22.9.95,1.75,1.42,2.55,1.42.55,0,1.11-.12,1.69-.36s1.03-.78,1.35-1.61c.26-.74.25-1.41-.02-2.02-.27-.61-.71-1.2-1.3-1.76-.6-.56-1.23-1.13-1.9-1.71-.67-.58-1.29-1.22-1.83-1.93-.55-.71-.92-1.49-1.11-2.36-.19-.87-.08-1.86.34-2.99.35-.96.96-1.95,1.83-2.96.87-1.01,1.91-1.86,3.13-2.55,1.22-.69,2.54-1.04,3.95-1.04,2.06,0,3.45.51,4.17,1.54.72,1.03,1.02,2.35.89,3.95,0,.29-.23.62-.7.99-.46.37-1,.71-1.59,1.01-.59.31-1.12.51-1.57.6-.45.1-.66,0-.63-.29Z"/>
  <path class="cls-2" d="M208.6,91.16h2.7l2.6-7.18c.13-.35.39-.47.79-.36.4.11.83.35,1.3.72.47.37.84.77,1.11,1.21.27.43.36.81.26,1.13l-1.64,4.48h2.17c.45,0,.9.17,1.35.51.45.34.83.73,1.13,1.18.3.45.47.84.48,1.18.02.34-.2.51-.65.51h-5.69l-5.25,14.41c-.07.23-.2.68-.41,1.37-.21.69-.38,1.45-.51,2.29-.13.84-.13,1.59,0,2.27.1.48,0,.74-.31.77-.3.03-.69-.07-1.16-.31-.47-.24-.9-.57-1.3-.99-.4-.42-.63-.85-.7-1.3-.19-.96-.22-1.91-.1-2.84.13-.93.3-1.75.53-2.46.22-.71.39-1.2.48-1.49l4.34-11.95c-.48-.22-.95-.59-1.4-1.11-.45-.51-.71-.98-.79-1.4-.08-.42.14-.63.65-.63Z"/>
  <path class="cls-2" d="M226.72,94.2l-2.75,7.47c1.45-2.22,3-4.24,4.67-6.07,1.67-1.83,3.39-3.23,5.16-4.19.29-.16.64-.14,1.06.07.42.21.81.5,1.18.87s.62.75.75,1.13c.13.39.03.66-.29.82-1.64.9-3.29,2.04-4.94,3.42s-3.24,2.92-4.75,4.6-2.88,3.47-4.1,5.35c-1.22,1.88-2.22,3.77-2.99,5.66l-.72,1.98c-.13.35-.39.47-.79.36-.4-.11-.83-.35-1.28-.72-.45-.37-.82-.77-1.11-1.21s-.39-.81-.29-1.13l7.71-21.11c.13-.35.39-.47.8-.36.4.11.83.35,1.28.72.45.37.82.77,1.11,1.21s.38.81.29,1.13Z"/>
  <path class="cls-2" d="M249.61,94.53c-1.41,0-2.77.37-4.07,1.11-1.3.74-2.51,1.7-3.61,2.89-1.11,1.19-2.06,2.45-2.87,3.78-.8,1.33-1.43,2.61-1.88,3.83-.55,1.54-.84,2.72-.89,3.54-.05.82.03,1.4.24,1.73.21.34.44.53.7.58.26.05.4.07.43.07.74,0,1.6-.39,2.58-1.16.98-.77,1.98-1.75,3.01-2.94,1.03-1.19,2.02-2.45,2.96-3.78.95-1.33,1.76-2.57,2.43-3.71.67-1.14,1.14-2.03,1.4-2.67l2.31-6.31c.13-.35.4-.47.82-.36.42.11.85.35,1.3.72.45.37.82.77,1.11,1.21.29.43.37.81.24,1.13l-4.34,11.95c-.61,1.64-.94,3.21-.99,4.7-.05,1.49.12,2.74.51,3.73.19.51.16.84-.1.96-.26.13-.61.1-1.06-.1-.45-.19-.89-.47-1.33-.84s-.73-.79-.89-1.28c-.45-1.29-.69-2.62-.72-4-1.06,1.9-2.24,3.45-3.54,4.67-1.3,1.22-2.79,1.83-4.46,1.83-1.41,0-2.55-.3-3.42-.89-.87-.6-1.5-1.37-1.9-2.31-.4-.95-.64-1.98-.72-3.08-.08-1.11-.03-2.2.14-3.28.18-1.08.41-2.02.7-2.82.55-1.45,1.29-2.89,2.24-4.34.95-1.45,2.03-2.77,3.25-3.98,1.22-1.21,2.52-2.17,3.9-2.89,1.38-.72,2.76-1.08,4.14-1.08.45,0,.9.17,1.35.51.45.34.83.73,1.16,1.18s.49.84.51,1.18c.02.34-.2.51-.65.51Z"/>
  <path class="cls-2" d="M259.97,93.95l-.58,13.2,10.12-15.76c.13-.22.35-.3.67-.24.32,0,.73.17,1.23.51.5.34.93.73,1.3,1.18.37.45.52.85.46,1.2l-1.97,14.26c1.61-1.93,3.16-4.24,4.67-6.94,1.51-2.7,2.97-5.99,4.38-9.88.13-.35.39-.47.79-.36.4.11.84.35,1.3.72.47.37.83.77,1.11,1.21.27.43.36.81.26,1.13-1.32,3.63-2.69,6.77-4.12,9.42s-2.9,4.93-4.41,6.84c-1.51,1.91-3.08,3.61-4.72,5.08-.16.16-.39.19-.67.1-.35.03-.78-.12-1.28-.46-.5-.34-.93-.74-1.3-1.2-.37-.47-.54-.88-.51-1.23l1.54-11.28-9.01,13.97c-.16.26-.47.32-.92.19-.32-.03-.71-.21-1.18-.53s-.87-.69-1.2-1.11c-.34-.42-.49-.8-.46-1.16l.96-21.11c0-.45.18-.66.55-.63.37.03.79.21,1.25.53.46.32.88.7,1.23,1.13s.51.83.48,1.18Z"/>
  <path class="cls-2" d="M295.92,82.15l-4.96,13.64c1.32-1.74,2.63-2.99,3.95-3.76,1.32-.77,2.52-1.16,3.61-1.16,1.38,0,2.51.53,3.37,1.59s1.37,2.54,1.49,4.43c.13,1.9-.26,4.1-1.16,6.6-1.09,3.02-2.55,5.45-4.36,7.3-1.82,1.85-3.85,3.2-6.1,4.05-2.25.85-4.59,1.28-7.04,1.28-.42,0-.88-.19-1.37-.58-.5-.38-.92-.83-1.25-1.33-.34-.5-.46-.88-.36-1.13.13-.22.34-.34.63-.34,2.31,0,4.53-.42,6.65-1.25,2.12-.83,4.02-2.14,5.71-3.9,1.69-1.77,3.03-4.03,4.02-6.79.55-1.45.55-2.65.02-3.61-.53-.96-1.36-1.45-2.48-1.45-.87,0-1.84.35-2.92,1.06-1.08.71-2.16,1.84-3.25,3.4-1.09,1.56-2.12,3.65-3.08,6.29l-1.35,3.66c-.03.22-.21.34-.53.34-.39,0-.83-.18-1.33-.55s-.92-.8-1.25-1.28c-.34-.48-.44-.88-.31-1.21l10.17-28c.1-.22.29-.34.58-.34.39,0,.83.19,1.33.55s.92.79,1.25,1.25c.34.47.44.88.31,1.23Z"/>
  <path class="cls-2" d="M320.11,111.98c-1.51,1.25-2.96,2.22-4.34,2.89-1.38.67-2.78,1.01-4.19,1.01-1.7,0-3.08-.31-4.12-.92-1.04-.61-1.82-1.42-2.31-2.43-.5-1.01-.79-2.13-.89-3.35-.1-1.22-.03-2.45.19-3.69.22-1.24.55-2.39.96-3.45.87-2.25,2.05-4.2,3.54-5.86,1.49-1.65,3.1-2.95,4.82-3.88,1.72-.93,3.32-1.4,4.79-1.4.9,0,1.81.17,2.75.51s1.74.84,2.43,1.49c.69.66,1.16,1.48,1.4,2.46.24.98.1,2.13-.41,3.45-.8,2.15-2.36,4.1-4.67,5.85s-5.61,3-9.88,3.73c-.29.07-.65-.03-1.08-.29-.43-.26-.81-.56-1.13-.92-.42,1.35-.63,2.39-.63,3.13s.12,1.26.36,1.57c.24.31.51.48.82.53.3.05.55.07.75.07,1.03,0,2.22-.31,3.57-.94,1.35-.63,2.73-1.52,4.14-2.67.26-.22.6-.23,1.04-.02s.86.52,1.28.94c.42.42.72.84.92,1.25.19.42.16.72-.1.92ZM308.78,104.75l-.05.14c2.63-.55,4.97-1.34,7.01-2.39,2.04-1.04,3.7-2.14,4.96-3.28,1.27-1.14,2.08-2.14,2.43-3.01.06-.13.09-.34.07-.65-.02-.31-.19-.59-.51-.87-.32-.27-.93-.41-1.83-.41-1.09,0-2.24.29-3.45.87s-2.36,1.36-3.47,2.34c-1.11.98-2.11,2.1-3.01,3.35s-1.62,2.55-2.17,3.9Z"/>
  <path class="cls-2" d="M334.27,94.2l-2.75,7.47c1.45-2.22,3-4.24,4.67-6.07s3.39-3.23,5.16-4.19c.29-.16.64-.14,1.06.07.42.21.81.5,1.18.87.37.37.62.75.75,1.13.13.39.03.66-.29.82-1.64.9-3.29,2.04-4.94,3.42-1.66,1.38-3.24,2.92-4.75,4.6-1.51,1.69-2.88,3.47-4.1,5.35-1.22,1.88-2.22,3.77-2.99,5.66l-.72,1.98c-.13.35-.39.47-.79.36-.4-.11-.83-.35-1.28-.72-.45-.37-.82-.77-1.11-1.21s-.38-.81-.29-1.13l7.71-21.11c.13-.35.39-.47.79-.36.4.11.83.35,1.28.72.45.37.82.77,1.11,1.21s.39.81.29,1.13Z"/>
  <path class="cls-2" d="M351.29,94.2l-2.75,7.47c1.45-2.22,3-4.24,4.67-6.07,1.67-1.83,3.39-3.23,5.16-4.19.29-.16.64-.14,1.06.07.42.21.81.5,1.18.87.37.37.62.75.75,1.13s.03.66-.29.82c-1.64.9-3.29,2.04-4.94,3.42s-3.24,2.92-4.75,4.6c-1.51,1.69-2.88,3.47-4.1,5.35-1.22,1.88-2.22,3.77-2.99,5.66l-.72,1.98c-.13.35-.39.47-.79.36-.4-.11-.83-.35-1.28-.72-.45-.37-.82-.77-1.11-1.21s-.39-.81-.29-1.13l7.71-21.11c.13-.35.39-.47.79-.36.4.11.83.35,1.28.72.45.37.82.77,1.11,1.21s.39.81.29,1.13Z"/>
  <path class="cls-2" d="M367.33,93.95l-1.01,16.87,12.05-19.42c.19-.29.5-.35.92-.19.42.16.84.43,1.28.82s.77.79,1.01,1.23c.24.43.28.78.12,1.04l-15.28,24.67c-.67,1.06-1.49,2.12-2.43,3.18-.95,1.06-2.04,1.94-3.28,2.65-1.24.71-2.63,1.06-4.17,1.06-.39,0-.8-.17-1.25-.51-.45-.34-.83-.73-1.16-1.18-.32-.45-.5-.84-.53-1.18-.03-.34.19-.51.67-.51,1.03,0,2.1-.31,3.23-.94,1.12-.63,2.18-1.44,3.16-2.43.98-1,1.79-2.01,2.43-3.04l1.78-2.89c-.48-.26-.96-.65-1.45-1.18-.48-.53-.72-1-.72-1.42l1.16-18.84c0-.45.18-.66.55-.63.37.03.78.21,1.23.53.45.32.84.7,1.18,1.13.34.43.51.83.51,1.18Z"/>
</g></svg>
