<?xml version="1.0" encoding="UTF-8"?>
<svg xmlns="http://www.w3.org/2000/svg" viewBox="0 80 220 50.86">
  <defs>
    <style>
      .cls-2 { fill: #60bb46; }
    </style>
  </defs><g transform="translate(-235.500 0)">
  <path class="cls-2" d="M324.49,82.15l-9.73,26.79c-.51,1.45-.83,2.63-.94,3.57-.11.93-.13,1.62-.05,2.07.08.45.1.71.07.77-.03.19-.19.29-.48.29-1.61,0-2.61-.86-3.01-2.58-.4-1.72-.1-3.93.89-6.63l9.78-26.99c.1-.22.29-.34.58-.34.38,0,.83.19,1.32.55s.92.79,1.25,1.25c.34.47.44.88.31,1.23Z"/>
  <path class="cls-2" d="M317.51,112.6l7.71-21.11c.13-.35.39-.47.79-.36.4.11.83.35,1.28.72.45.37.82.77,1.11,1.21s.37.81.24,1.13l-7.66,21.11c-.13.35-.39.47-.8.36-.4-.11-.83-.35-1.3-.72-.47-.37-.83-.77-1.11-1.21-.27-.43-.36-.81-.27-1.13ZM327.38,85.28l1.06-2.89c.13-.35.39-.47.79-.36.4.11.84.35,1.3.72.47.37.84.77,1.11,1.2.27.43.36.81.26,1.13l-1.06,2.89c-.13.35-.39.47-.8.36-.4-.11-.83-.35-1.28-.72-.45-.37-.82-.77-1.11-1.21s-.38-.81-.29-1.13Z"/>
  <path class="cls-2" d="M336.93,94.2l-.96,2.6c1.48-2.02,2.92-3.52,4.31-4.48,1.4-.96,2.63-1.45,3.69-1.45,1.22,0,2.14.62,2.75,1.86.61,1.24.74,3.03.38,5.37,1.61-2.47,3.19-4.3,4.75-5.47,1.56-1.17,2.93-1.76,4.12-1.76,1.06,0,1.9.47,2.51,1.4s.88,2.29.82,4.07c-.06,1.78-.56,3.96-1.49,6.53l-4.53,12.43c-.1.26-.29.38-.58.38-.35,0-.78-.18-1.28-.55-.5-.37-.92-.8-1.25-1.3-.34-.5-.44-.91-.31-1.23l4.48-12.43c.55-1.45.71-2.57.48-3.37-.22-.8-.71-1.21-1.45-1.21s-1.65.43-2.72,1.3c-1.08.87-2.2,2.22-3.37,4.07-1.17,1.85-2.31,4.26-3.4,7.25l-2.6,7.08c-.1.26-.29.38-.58.38-.35,0-.78-.18-1.28-.55-.5-.37-.92-.8-1.25-1.3-.34-.5-.44-.91-.31-1.23l4.48-12.43c.54-1.45.7-2.57.46-3.37-.24-.8-.73-1.21-1.47-1.21s-1.6.43-2.67,1.3c-1.08.87-2.21,2.22-3.4,4.07-1.19,1.85-2.33,4.26-3.42,7.25l-2.6,7.08c-.1.26-.29.38-.58.38-.35,0-.78-.18-1.28-.55-.5-.37-.92-.8-1.25-1.3-.34-.5-.44-.91-.31-1.23l7.66-21.11c.1-.26.29-.39.58-.39.39,0,.82.19,1.3.55.48.37.9.79,1.25,1.28.35.48.46.9.34,1.25Z"/>
  <path class="cls-2" d="M375.67,111.98c-1.51,1.25-2.96,2.22-4.34,2.89-1.38.67-2.78,1.01-4.19,1.01-1.7,0-3.08-.31-4.12-.92s-1.81-1.42-2.31-2.43c-.5-1.01-.79-2.13-.89-3.35s-.03-2.45.19-3.69c.22-1.24.55-2.39.96-3.45.87-2.25,2.05-4.2,3.54-5.86,1.49-1.65,3.1-2.95,4.82-3.88s3.32-1.4,4.79-1.4c.9,0,1.81.17,2.75.51.93.34,1.74.84,2.43,1.49s1.16,1.48,1.4,2.46c.24.98.1,2.13-.41,3.45-.8,2.15-2.36,4.1-4.67,5.85s-5.61,3-9.88,3.73c-.29.07-.65-.03-1.08-.29-.43-.26-.81-.56-1.13-.92-.42,1.35-.63,2.39-.63,3.13s.12,1.26.36,1.57c.24.31.51.48.82.53.3.05.55.07.75.07,1.03,0,2.22-.31,3.57-.94,1.35-.63,2.73-1.52,4.14-2.67.26-.22.6-.23,1.04-.02s.86.52,1.28.94c.42.42.72.84.92,1.25.19.42.16.72-.1.92ZM364.35,104.75l-.05.14c2.63-.55,4.97-1.34,7.01-2.39,2.04-1.04,3.69-2.14,4.96-3.28,1.27-1.14,2.08-2.14,2.43-3.01.06-.13.09-.34.07-.65s-.19-.59-.51-.87c-.32-.27-.93-.41-1.83-.41-1.09,0-2.24.29-3.45.87-1.21.58-2.36,1.36-3.47,2.34-1.11.98-2.11,2.1-3.01,3.35-.9,1.25-1.62,2.55-2.17,3.9Z"/>
</g></svg>
