<?xml version="1.0" encoding="UTF-8"?>
<svg id="Layer_2" data-name="Layer 2" xmlns="http://www.w3.org/2000/svg" viewBox="0 0 381.79 115.88">
  <defs>
    <style>
      .cls-1 {
        fill: none;
      }

      .cls-2 {
        fill: #60bb46;
      }

      path:not([class]), polygon:not([class]) {
        fill: #000000;
      }
    </style>
  </defs>
  <g id="perforation">
    <g>
      <g>
        <path class="cls-1" d="M20.72,48.39c0,16.36,13.36,30.26,29.03,30.26,5.45,0,10.63-1.64,14.99-4.5l-10.9-9.54,10.22-11.86,11.31,9.81c2.32-4.23,3.54-9.13,3.54-14.18,0-16.22-13.36-30.12-29.17-30.12s-29.03,13.9-29.03,30.12Z"/>
        <path class="cls-1" d="M156.61,78.65c12.95,0,22.22-10.22,22.22-24.67V8.82h-44.57v45.16c0,14.45,9.27,24.67,22.35,24.67Z"/>
        <path class="cls-1" d="M273.97,33.26c0-8.04-6.82-13.22-16.77-13.22h-19.9v26.44s19.9,0,19.9,0c9.95,0,16.77-5.18,16.77-13.22Z"/>
        <path d="M0,48.39c0,26.31,22.9,48.53,49.75,48.53,11.18,0,21.54-3.68,29.85-9.95l9.54,8.32,10.22-11.86-8.72-7.63c5.59-7.91,8.86-17.31,8.86-27.4,0-16.18-8.56-30.74-21.45-39.57H21.57C8.66,17.65,0,32.22,0,48.39ZM78.92,48.39c0,5.04-1.23,9.95-3.54,14.18l-11.31-9.81-10.22,11.86,10.9,9.54c-4.36,2.86-9.54,4.5-14.99,4.5-15.68,0-29.03-13.9-29.03-30.26s13.36-30.12,29.03-30.12,29.17,13.9,29.17,30.12Z"/>
        <path d="M178.83,53.98c0,14.45-9.27,24.67-22.22,24.67s-22.35-10.22-22.35-24.67V8.82h-20.04v45.98c0,24.67,17.45,42.12,42.39,42.12,24.81,0,42.39-17.45,42.39-42.12V8.82h-20.17v45.16Z"/>
        <path d="M217.27,95.28h20.04v-30.4h14.86l21.4,30.4h22.9l-23.04-32.71c12.81-4.5,21.26-15.4,21.26-29.31,0-10.24-4.58-18.82-12.11-24.44h-65.32v86.46ZM237.3,20.04h19.9c9.95,0,16.77,5.18,16.77,13.22s-6.82,13.22-16.77,13.22h-19.9v-26.44Z"/>
        <polygon points="309.68 95.28 381.79 95.28 381.79 77.15 329.85 77.15 329.85 56.57 376.88 56.57 376.88 38.44 329.85 38.44 329.85 19.76 381.79 19.76 381.79 8.82 309.68 8.82 309.68 95.28"/>
        <g>
          <path class="cls-2" d="M21.57,8.82h56.48C69.98,3.29,60.2,0,49.75,0s-20.09,3.29-28.18,8.82Z"/>
          <rect class="cls-2" x="178.83" y="1.64" width="20.17" height="7.18"/>
          <rect class="cls-2" x="114.22" y="1.64" width="20.04" height="7.18"/>
          <path class="cls-2" d="M217.27,1.64v7.18h65.32c-6.09-4.56-14.11-7.18-23.2-7.18h-42.12Z"/>
          <rect class="cls-2" x="309.68" y="1.64" width="72.11" height="7.18"/>
        </g>
      </g>
      <g>
        <path class="cls-2" d="M324.49,82.15l-9.73,26.79c-.51,1.45-.83,2.63-.94,3.57-.11.93-.13,1.62-.05,2.07.08.45.1.71.07.77-.03.19-.19.29-.48.29-1.61,0-2.61-.86-3.01-2.58-.4-1.72-.1-3.93.89-6.63l9.78-26.99c.1-.22.29-.34.58-.34.38,0,.83.19,1.32.55s.92.79,1.25,1.25c.34.47.44.88.31,1.23Z"/>
        <path class="cls-2" d="M317.51,112.6l7.71-21.11c.13-.35.39-.47.79-.36.4.11.83.35,1.28.72.45.37.82.77,1.11,1.21s.37.81.24,1.13l-7.66,21.11c-.13.35-.39.47-.8.36-.4-.11-.83-.35-1.3-.72-.47-.37-.83-.77-1.11-1.21-.27-.43-.36-.81-.27-1.13ZM327.38,85.28l1.06-2.89c.13-.35.39-.47.79-.36.4.11.84.35,1.3.72.47.37.84.77,1.11,1.2.27.43.36.81.26,1.13l-1.06,2.89c-.13.35-.39.47-.8.36-.4-.11-.83-.35-1.28-.72-.45-.37-.82-.77-1.11-1.21s-.38-.81-.29-1.13Z"/>
        <path class="cls-2" d="M336.93,94.2l-.96,2.6c1.48-2.02,2.92-3.52,4.31-4.48,1.4-.96,2.63-1.45,3.69-1.45,1.22,0,2.14.62,2.75,1.86.61,1.24.74,3.03.38,5.37,1.61-2.47,3.19-4.3,4.75-5.47,1.56-1.17,2.93-1.76,4.12-1.76,1.06,0,1.9.47,2.51,1.4s.88,2.29.82,4.07c-.06,1.78-.56,3.96-1.49,6.53l-4.53,12.43c-.1.26-.29.38-.58.38-.35,0-.78-.18-1.28-.55-.5-.37-.92-.8-1.25-1.3-.34-.5-.44-.91-.31-1.23l4.48-12.43c.55-1.45.71-2.57.48-3.37-.22-.8-.71-1.21-1.45-1.21s-1.65.43-2.72,1.3c-1.08.87-2.2,2.22-3.37,4.07-1.17,1.85-2.31,4.26-3.4,7.25l-2.6,7.08c-.1.26-.29.38-.58.38-.35,0-.78-.18-1.28-.55-.5-.37-.92-.8-1.25-1.3-.34-.5-.44-.91-.31-1.23l4.48-12.43c.54-1.45.7-2.57.46-3.37-.24-.8-.73-1.21-1.47-1.21s-1.6.43-2.67,1.3c-1.08.87-2.21,2.22-3.4,4.07-1.19,1.85-2.33,4.26-3.42,7.25l-2.6,7.08c-.1.26-.29.38-.58.38-.35,0-.78-.18-1.28-.55-.5-.37-.92-.8-1.25-1.3-.34-.5-.44-.91-.31-1.23l7.66-21.11c.1-.26.29-.39.58-.39.39,0,.82.19,1.3.55.48.37.9.79,1.25,1.28.35.48.46.9.34,1.25Z"/>
        <path class="cls-2" d="M375.67,111.98c-1.51,1.25-2.96,2.22-4.34,2.89-1.38.67-2.78,1.01-4.19,1.01-1.7,0-3.08-.31-4.12-.92s-1.81-1.42-2.31-2.43c-.5-1.01-.79-2.13-.89-3.35s-.03-2.45.19-3.69c.22-1.24.55-2.39.96-3.45.87-2.25,2.05-4.2,3.54-5.86,1.49-1.65,3.1-2.95,4.82-3.88s3.32-1.4,4.79-1.4c.9,0,1.81.17,2.75.51.93.34,1.74.84,2.43,1.49s1.16,1.48,1.4,2.46c.24.98.1,2.13-.41,3.45-.8,2.15-2.36,4.1-4.67,5.85s-5.61,3-9.88,3.73c-.29.07-.65-.03-1.08-.29-.43-.26-.81-.56-1.13-.92-.42,1.35-.63,2.39-.63,3.13s.12,1.26.36,1.57c.24.31.51.48.82.53.3.05.55.07.75.07,1.03,0,2.22-.31,3.57-.94,1.35-.63,2.73-1.52,4.14-2.67.26-.22.6-.23,1.04-.02s.86.52,1.28.94c.42.42.72.84.92,1.25.19.42.16.72-.1.92ZM364.35,104.75l-.05.14c2.63-.55,4.97-1.34,7.01-2.39,2.04-1.04,3.69-2.14,4.96-3.28,1.27-1.14,2.08-2.14,2.43-3.01.06-.13.09-.34.07-.65s-.19-.59-.51-.87c-.32-.27-.93-.41-1.83-.41-1.09,0-2.24.29-3.45.87-1.21.58-2.36,1.36-3.47,2.34-1.11.98-2.11,2.1-3.01,3.35-.9,1.25-1.62,2.55-2.17,3.9Z"/>
      </g>
    </g>
  </g>
</svg>