<?xml version="1.0" encoding="UTF-8"?>
<svg id="Layer_2" data-name="Layer 2" xmlns="http://www.w3.org/2000/svg" viewBox="-8.665 -1.00661 42.5832 42.5832">
  <defs>
    <style>
      .cls-1 {
        fill: #010101;
      }
    </style>
  </defs>
  <g id="perforation">
    <g>
      <g>
        <path d="M7.58,27.69c0-.12.08-.19.19-.19h.19c.12,0,.19.08.19.19v1.2h1.29v-1.2c0-.12.08-.19.19-.19h.19c.12,0,.19.08.19.19v2.97c0,.12-.08.19-.19.19h-.19c-.12,0-.19-.08-.19-.19v-1.29h-1.29v1.29c0,.12-.07.19-.19.19h-.19c-.12,0-.19-.08-.19-.19v-2.97Z"/>
        <path d="M10.81,27.69c0-.12.08-.19.19-.19h.19c.12,0,.19.08.19.19v2.97c0,.12-.07.19-.19.19h-.19c-.12,0-.19-.08-.19-.19v-2.97Z"/>
        <path d="M12.07,28.67c0-.8.47-1.24,1.23-1.24.34,0,.58.05.77.09.13.04.18.11.15.24l-.02.1c-.02.11-.12.16-.24.13-.15-.03-.32-.07-.59-.07-.49,0-.71.26-.71.81v.89c0,.55.22.81.71.81.23,0,.39-.04.58-.08v-.95c0-.12.06-.2.18-.21h.21c.12-.02.17.05.17.16v1.16c0,.12-.09.22-.2.24-.23.06-.58.15-1.01.15-.76,0-1.23-.44-1.23-1.24v-.99Z"/>
        <path d="M15.22,27.69c0-.12.08-.19.19-.19h.19c.12,0,.19.08.19.19v1.2h1.29v-1.2c0-.12.08-.19.19-.19h.19c.12,0,.19.08.19.19v2.97c0,.12-.08.19-.19.19h-.19c-.12,0-.19-.08-.19-.19v-1.29h-1.29v1.29c0,.12-.07.19-.19.19h-.19c-.12,0-.19-.08-.19-.19v-2.97Z"/>
        <path d="M3.94,32.48c0-.12.08-.19.19-.19h.76c.76,0,1.18.5,1.18,1.08s-.42,1.07-1.18,1.07h-.38v1c0,.12-.07.19-.19.19h-.19c-.12,0-.19-.08-.19-.19v-2.97ZM4.87,33.96c.41,0,.59-.29.59-.59s-.18-.59-.59-.59h-.36v1.19h.36Z"/>
        <path d="M6.64,32.61c0-.12.08-.22.2-.24.17-.05.52-.14.86-.14.73,0,1.12.52,1.12,1.09,0,.32-.18.8-.68.98l.54,1.12c.05.12-.01.22-.13.22h-.24c-.12,0-.19-.06-.23-.17l-.5-1.09h-.36v1.07c0,.12-.07.19-.19.19h-.19c-.12,0-.19-.08-.19-.19v-2.84ZM7.65,33.92c.38,0,.57-.26.57-.6,0-.32-.14-.6-.52-.6-.16,0-.33.02-.49.07v1.13h.44Z"/>
        <path d="M9.3,33.63c0-.82.48-1.41,1.31-1.41s1.31.59,1.31,1.41v.66c0,.83-.48,1.41-1.31,1.41s-1.31-.58-1.31-1.41v-.66ZM10.62,35.22c.57,0,.73-.45.73-.97v-.56c0-.52-.16-.97-.73-.97s-.73.46-.73.97v.56c0,.52.16.97.73.97Z"/>
        <path d="M13.14,32.78h-.63c-.12,0-.19-.08-.19-.19v-.1c0-.12.08-.19.19-.19h1.84c.12,0,.19.08.19.19v.1c0,.12-.07.19-.19.19h-.64v2.67c0,.12-.07.19-.19.19h-.19c-.12,0-.19-.08-.19-.19v-2.67Z"/>
        <path d="M14.96,33.18c0-.54.34-.89,1.02-.89h.72c.12,0,.19.08.19.19v.1c0,.12-.08.19-.19.19h-.71c-.35,0-.45.16-.45.45v.46h1.02c.12,0,.19.08.19.19v.1c0,.12-.08.19-.19.19h-1.02v.55c0,.29.11.44.45.44h.73c.12,0,.19.08.19.19v.1c0,.12-.08.19-.19.19h-.73c-.68,0-1.02-.35-1.02-.89v-1.57Z"/>
        <path d="M17.54,32.48c0-.12.08-.19.19-.19h.19c.12,0,.19.08.19.19v2.97c0,.12-.07.19-.19.19h-.19c-.12,0-.19-.08-.19-.19v-2.97Z"/>
        <path d="M18.92,32.48c0-.12.08-.19.19-.19h.16c.12,0,.2.06.27.18l1.23,2.13c-.02-.23-.03-.46-.03-.63v-1.49c0-.12.07-.19.19-.19h.19c.12,0,.19.08.19.19v2.97c0,.12-.07.19-.19.19h-.16c-.12,0-.21-.07-.27-.18l-1.22-2.13c.02.23.03.46.03.63v1.49c0,.12-.08.19-.19.19h-.18c-.12,0-.19-.08-.19-.19v-2.97Z"/>
      </g>
      <g>
        <path class="cls-1" d="M0,0v25.23h25.23V0H0ZM24.4,24.4H.84V.84h23.56v23.56Z"/>
        <path class="cls-1" d="M4.58,19.66l1.27.34c.42.11.85.24,1.26.37.77.23,1.57.48,2.39.62,2.52.45,4.69.23,6.61-.67.37.62.85,1.15,1.45,1.6.08.06.18.09.27.09.12,0,.23-.05.32-.15.07-.09.1-.21.09-.32-.01-.11-.07-.21-.16-.27-.59-.44-1.07-1-1.4-1.66-.06-.12-.16-.2-.28-.24-.1-.03-.22-.02-.32.03-1.73.94-3.89,1.22-6.26.8-.86-.15-1.65-.34-2.39-.57l-1.69-.53-1.01-.27c-.57-.15-.94-.74-.84-1.31.08-.4.12-.74.1-1.15-.07-1.38.16-2.76.7-4.1.23-.58.48-1.11.75-1.67l.16-.33c.59-1.25.99-2.31,1.27-3.33.14-.52.4-.92.8-1.21l1.86-1.37c.95-.7,1.81-.04,2.45.62.32.33.5.61.57.93.13.51-.06,1.04-.48,1.3-.29.19-.58.36-.91.55-.46.27-1.04.18-1.42-.22-.19-.2-.44-.2-.65-.02-.04.03-.07.06-.11.09-.11.09-.23.18-.31.31-.17.26-.28.56-.35.96-.16.9-.12,1.85.12,2.92.15.65.21,1.27.19,1.88-.02.6-.21,1.13-.57,1.6-.15.19-.12.47.05.61.1.08.23.12.36.09.1-.02.19-.08.25-.17.48-.81,1.15-1.38,1.98-1.71,1.6-.63,3.41-.08,4.51,1.36.15.2.41.24.6.09.18-.14.21-.39.07-.58-.26-.35-.58-.68-.98-.99,1.29-1.19,3.1-1.57,4.77-.99.37.13.72.31,1.05.49.18.1.42.05.53-.12.12-.17.09-.38-.06-.55l-.02-.02c-2.23-1.43-5.15-1.13-6.99.73-1.53-.77-3.31-.66-4.72.29.04-.73-.03-1.43-.23-2.33-.17-.76-.21-1.48-.13-2.21.05-.46.17-.8.3-.92.63.48,1.43.55,2.1.19.39-.21.74-.43,1.06-.64.84-.55,1.11-1.65.65-2.62-.32-.67-1.12-1.46-1.83-1.8-.76-.37-1.6-.31-2.24.16l-1.11.81c-.11.08-.21.15-.31.22-.76.54-1.36.97-1.67,2.1-.38,1.4-.9,2.54-1.55,3.88-1,2.08-1.39,3.7-1.33,5.57v.11c.01.23.02.46-.02.67-.01.07-.03.14-.04.22-.04.22-.09.44-.06.68.1.86.7,1.54,1.54,1.77Z"/>
        <path class="cls-1" d="M16.64,6.66l2-2v4.51c0,.23.19.42.42.42s.42-.19.42-.42v-4.51l2,2c.08.08.19.12.3.12s.21-.04.3-.12c.16-.16.16-.43,0-.59l-2.72-2.72h0c-.08-.08-.18-.12-.3-.12s-.22.05-.3.12h0l-2.72,2.72c-.16.16-.16.43,0,.59s.43.16.59,0Z"/>
      </g>
    </g>
  </g>
</svg>