<?xml version="1.0" encoding="UTF-8"?>
<svg id="Layer_2" data-name="Layer 2" xmlns="http://www.w3.org/2000/svg" viewBox="-8.13841 -2.20841 40.1268 40.1268">
  <defs>
    <style>
      .cls-1 {
        fill: #010101;
      }

      .cls-2 {
        fill: #231f20;
      }
    </style>
  </defs>
  <g id="perforation">
    <g>
      <path class="cls-1" d="M23.85,23.85H0V0h23.85v23.85ZM.79,23.06h22.27V.79H.79v22.27Z"/>
      <g>
        <path class="cls-1" d="M7.18,28.15c0-.11.07-.18.18-.18h.18c.11,0,.18.07.18.18v1.13h1.22v-1.13c0-.11.07-.18.18-.18h.18c.11,0,.18.07.18.18v2.8c0,.11-.07.18-.18.18h-.18c-.11,0-.18-.07-.18-.18v-1.22h-1.22v1.22c0,.11-.07.18-.18.18h-.18c-.11,0-.18-.07-.18-.18v-2.8Z"/>
        <path class="cls-1" d="M10.23,28.15c0-.11.07-.18.18-.18h.18c.11,0,.18.07.18.18v2.8c0,.11-.07.18-.18.18h-.18c-.11,0-.18-.07-.18-.18v-2.8Z"/>
        <path class="cls-1" d="M11.41,29.08c0-.75.44-1.17,1.16-1.17.32,0,.54.05.72.09.13.04.17.1.14.22l-.02.1c-.02.1-.11.15-.22.12-.14-.03-.3-.07-.55-.07-.46,0-.67.24-.67.76v.84c0,.52.21.76.67.76.22,0,.37-.04.54-.08v-.89c0-.11.06-.19.17-.19h.19c.11-.02.16.05.16.15v1.1c0,.11-.08.2-.19.23-.22.05-.55.14-.95.14-.72,0-1.16-.41-1.16-1.17v-.94Z"/>
        <path class="cls-1" d="M14.38,28.15c0-.11.07-.18.18-.18h.18c.11,0,.18.07.18.18v1.13h1.22v-1.13c0-.11.07-.18.18-.18h.18c.11,0,.18.07.18.18v2.8c0,.11-.07.18-.18.18h-.18c-.11,0-.18-.07-.18-.18v-1.22h-1.22v1.22c0,.11-.07.18-.18.18h-.18c-.11,0-.18-.07-.18-.18v-2.8Z"/>
        <path class="cls-1" d="M3.74,32.67c0-.11.07-.18.18-.18h.71c.71,0,1.11.47,1.11,1.02s-.39,1.01-1.11,1.01h-.36v.95c0,.11-.07.18-.18.18h-.18c-.11,0-.18-.07-.18-.18v-2.8ZM4.62,34.07c.39,0,.56-.28.56-.56s-.17-.56-.56-.56h-.34v1.12h.34Z"/>
        <path class="cls-1" d="M6.29,32.79c0-.11.08-.2.19-.23.16-.05.49-.13.81-.13.69,0,1.05.49,1.05,1.03,0,.3-.17.76-.64.92l.51,1.06c.05.11-.01.21-.12.21h-.22c-.11,0-.18-.06-.22-.16l-.48-1.03h-.34v1.01c0,.11-.07.18-.18.18h-.18c-.11,0-.18-.07-.18-.18v-2.67ZM7.24,34.02c.36,0,.54-.24.54-.57,0-.3-.14-.57-.49-.57-.15,0-.31.02-.46.07v1.07h.41Z"/>
        <path class="cls-1" d="M8.8,33.76c0-.77.46-1.33,1.24-1.33s1.24.55,1.24,1.33v.62c0,.78-.46,1.33-1.24,1.33s-1.24-.55-1.24-1.33v-.62ZM10.04,35.25c.54,0,.69-.43.69-.92v-.53c0-.49-.15-.92-.69-.92s-.69.43-.69.92v.53c0,.49.15.92.69.92Z"/>
        <path class="cls-1" d="M12.42,32.95h-.6c-.11,0-.18-.07-.18-.18v-.1c0-.11.07-.18.18-.18h1.74c.11,0,.18.07.18.18v.1c0,.11-.07.18-.18.18h-.6v2.52c0,.11-.07.18-.18.18h-.18c-.11,0-.18-.07-.18-.18v-2.52Z"/>
        <path class="cls-1" d="M14.13,33.33c0-.51.32-.84.96-.84h.67c.11,0,.18.07.18.18v.1c0,.11-.07.18-.18.18h-.67c-.33,0-.43.15-.43.42v.43h.96c.11,0,.18.07.18.18v.1c0,.11-.07.18-.18.18h-.96v.52c0,.28.1.42.43.42h.69c.11,0,.18.07.18.18v.1c0,.11-.07.18-.18.18h-.69c-.64,0-.96-.33-.96-.84v-1.48Z"/>
        <path class="cls-1" d="M16.57,32.67c0-.11.07-.18.18-.18h.18c.11,0,.18.07.18.18v2.8c0,.11-.07.18-.18.18h-.18c-.11,0-.18-.07-.18-.18v-2.8Z"/>
        <path class="cls-1" d="M17.87,32.67c0-.11.07-.18.18-.18h.15c.11,0,.19.06.25.17l1.16,2.01c-.02-.21-.03-.43-.03-.6v-1.4c0-.11.07-.18.18-.18h.18c.11,0,.18.07.18.18v2.8c0,.11-.07.18-.18.18h-.15c-.11,0-.2-.06-.26-.17l-1.15-2.01c.02.22.03.43.03.59v1.4c0,.11-.07.18-.18.18h-.17c-.11,0-.18-.07-.18-.18v-2.8Z"/>
      </g>
      <g>
        <path class="cls-1" d="M8.86,16.33c.06-.22.22-.41.51-.41s.44.2.5.41l.48,1.8c.02.09-.03.18-.13.18h-.16c-.1,0-.17-.07-.19-.16l-.11-.44h-.77l-.11.44c-.03.11-.08.17-.18.17h-.17c-.1,0-.15-.09-.13-.18l.47-1.8ZM9.65,17.31l-.23-.92s-.03-.06-.06-.06c-.03,0-.05.02-.06.06l-.23.92h.57Z"/>
        <path class="cls-1" d="M11.09,16.12c0-.1.06-.16.16-.16h.13c.1,0,.17.05.23.15l.75,1.32c-.02-.17-.03-.34-.03-.47v-.84c0-.1.06-.16.16-.16h.15c.1,0,.16.06.16.16v2.03c0,.1-.06.16-.16.16h-.13c-.1,0-.18-.05-.23-.15l-.74-1.31c.02.17.03.33.03.46v.84c0,.1-.06.16-.16.16h-.15c-.1,0-.16-.06-.16-.16v-2.03Z"/>
        <path class="cls-1" d="M13.66,16.12c0-.1.06-.16.16-.16h.72c.61,0,.89.28.89.88v.6c0,.6-.29.88-.89.88h-.72c-.1,0-.16-.06-.16-.16v-2.03ZM14.53,17.91c.37,0,.41-.2.41-.51v-.53c0-.31-.04-.51-.41-.51h-.38v1.54h.38Z"/>
        <path class="cls-1" d="M7.36,19.1c.01-.11.08-.17.18-.17h.2c.1,0,.17.06.2.16l.47,1.59s.01.04.03.04.02-.02.03-.04l.47-1.58c.03-.1.1-.16.2-.16h.2c.1,0,.17.06.18.17l.24,2.02c.01.11-.04.17-.14.17h-.16c-.1,0-.17-.06-.18-.16l-.09-.88c-.01-.12-.02-.28-.03-.44-.03.17-.06.32-.1.44l-.15.49c-.06.22-.19.41-.48.41s-.42-.19-.48-.41l-.14-.51c-.04-.12-.07-.28-.1-.44,0,.17-.01.33-.03.45l-.09.89c0,.1-.07.17-.17.17h-.17c-.1,0-.15-.06-.14-.17l.24-2.01Z"/>
        <path class="cls-1" d="M10.44,19.89c0-.58.35-1,.95-1s.95.42.95,1v.43c0,.58-.35,1-.95,1s-.95-.42-.95-1v-.43ZM11.83,20.29v-.36c0-.34-.09-.64-.45-.64s-.45.3-.45.64v.36c0,.34.09.64.45.64s.45-.29.45-.64Z"/>
        <path class="cls-1" d="M13.1,19.19c0-.1.07-.18.17-.21.1-.03.35-.09.6-.09.53,0,.81.37.81.78,0,.22-.11.54-.44.69l.34.74c.05.1-.01.19-.11.19h-.2c-.1,0-.16-.05-.2-.15l-.31-.71h-.17v.69c0,.1-.06.16-.16.16h-.16c-.1,0-.16-.06-.16-.16v-1.93ZM13.82,20.04c.23,0,.34-.15.34-.37,0-.21-.09-.38-.31-.38-.09,0-.18.01-.27.04v.71h.24Z"/>
        <path class="cls-1" d="M15.32,19.58c0-.39.25-.65.75-.65h.49c.1,0,.16.06.16.16v.08c0,.1-.06.16-.16.16h-.48c-.2,0-.27.09-.27.28v.26h.65c.1,0,.16.06.16.16v.08c0,.1-.06.16-.16.16h-.65v.32c0,.19.06.28.27.28h.5c.1,0,.16.06.16.16v.08c0,.1-.06.16-.16.16h-.5c-.49,0-.75-.26-.75-.64v-1.06Z"/>
      </g>
      <g>
        <path class="cls-2" d="M2.71,6.19c0-1.48.88-2.75,2.72-2.75.63,0,1.22.13,1.58.25.17.05.24.17.2.34l-.06.2c-.05.17-.18.22-.36.16-.35-.1-.82-.22-1.35-.22-1.47,0-1.91,1.1-1.91,2.01v.93c.59-.37,1.16-.55,1.79-.55,1.45,0,2.64,1.02,2.64,2.87s-1.19,2.73-2.64,2.73-2.61-.96-2.61-2.73v-3.24ZM5.32,11.43c1.24,0,1.79-.9,1.79-2,0-1.18-.58-2.14-1.83-2.14-.61,0-1.17.19-1.76.55v1.6c0,1.1.58,1.99,1.79,1.99Z"/>
        <path class="cls-2" d="M9.37,6.19c0-1.48.88-2.75,2.72-2.75.63,0,1.22.13,1.58.25.17.05.24.17.2.34l-.06.2c-.05.17-.18.22-.36.16-.35-.1-.82-.22-1.35-.22-1.47,0-1.91,1.1-1.91,2.01v.93c.59-.37,1.16-.55,1.79-.55,1.45,0,2.64,1.02,2.64,2.87s-1.19,2.73-2.64,2.73-2.61-.96-2.61-2.73v-3.24ZM11.98,11.43c1.24,0,1.79-.9,1.79-2,0-1.18-.58-2.14-1.83-2.14-.61,0-1.17.19-1.76.55v1.6c0,1.1.58,1.99,1.79,1.99Z"/>
        <path class="cls-2" d="M16.03,8.14c0-1.54.84-2.46,2.24-2.46.66,0,1.24.3,1.87.81l.06-.42c.01-.14.11-.23.28-.23h.16c.17,0,.24.11.24.28v6.37c0,1.2-.69,1.94-1.97,1.94h-1.32c-.17,0-.28-.08-.31-.24l-.04-.19c-.04-.2.07-.29.24-.29h1.43c.76,0,1.16-.49,1.16-1.2v-1.18c-.59.46-1.13.69-1.78.69-1.38,0-2.24-.92-2.24-2.46v-1.41ZM18.36,11.27c.63,0,1.13-.3,1.69-.7v-3.37c-.48-.39-1.07-.78-1.69-.78-1.05,0-1.51.63-1.51,1.91v1.02c0,1.29.46,1.91,1.51,1.91Z"/>
      </g>
    </g>
  </g>
</svg>