<?xml version="1.0" encoding="UTF-8"?>
<svg id="Layer_2" data-name="Layer 2" xmlns="http://www.w3.org/2000/svg" viewBox="-8.665 -1.00661 42.5832 42.5832">
  <g id="Layer_2-2" data-name="Layer 2">
    <g id="perforation">
      <g>
        <path d="M25.25,25.25H0V0h25.25v25.25ZM.84,24.41h23.57V.84H.84v23.57Z"/>
        <g>
          <path d="M7.6,27.69c0-.12.08-.19.19-.19h.19c.12,0,.19.08.19.19v1.2h1.29v-1.2c0-.12.08-.19.19-.19h.19c.12,0,.19.08.19.19v2.97c0,.12-.08.19-.19.19h-.19c-.12,0-.19-.08-.19-.19v-1.29h-1.29v1.29c0,.12-.07.19-.19.19h-.19c-.12,0-.19-.08-.19-.19v-2.97Z"/>
          <path d="M10.82,27.69c0-.12.08-.19.19-.19h.19c.12,0,.19.08.19.19v2.97c0,.12-.07.19-.19.19h-.19c-.12,0-.19-.08-.19-.19v-2.97Z"/>
          <path d="M12.07,28.68c0-.8.47-1.24,1.23-1.24.34,0,.58.05.77.09.13.04.18.11.15.24l-.02.1c-.02.11-.12.16-.24.13-.15-.03-.32-.07-.59-.07-.49,0-.71.26-.71.81v.89c0,.55.22.81.71.81.23,0,.39-.04.58-.08v-.95c0-.12.06-.2.18-.21h.21c.12-.02.17.05.17.16v1.16c0,.12-.09.22-.2.24-.23.06-.58.15-1.01.15-.76,0-1.23-.44-1.23-1.24,0,0,0-.99,0-.99Z"/>
          <path d="M15.22,27.69c0-.12.08-.19.19-.19h.19c.12,0,.19.08.19.19v1.2h1.29v-1.2c0-.12.08-.19.19-.19h.19c.12,0,.19.08.19.19v2.97c0,.12-.08.19-.19.19h-.19c-.12,0-.19-.08-.19-.19v-1.29h-1.29v1.29c0,.12-.07.19-.19.19h-.19c-.12,0-.19-.08-.19-.19v-2.97Z"/>
          <path d="M3.95,32.49c0-.12.08-.19.19-.19h.76c.76,0,1.18.5,1.18,1.08s-.42,1.07-1.18,1.07h-.38v1c0,.12-.07.19-.19.19h-.19c-.12,0-.19-.08-.19-.19v-2.97h0ZM4.88,33.96c.41,0,.59-.29.59-.59s-.18-.59-.59-.59h-.36v1.19h.36Z"/>
          <path d="M6.66,32.62c0-.12.08-.22.2-.24.17-.05.52-.14.86-.14.73,0,1.12.52,1.12,1.09,0,.32-.18.8-.68.98l.54,1.12c.05.12,0,.22-.13.22h-.24c-.12,0-.19-.06-.23-.17l-.5-1.09h-.36v1.07c0,.12-.07.19-.19.19h-.19c-.12,0-.19-.08-.19-.19v-2.84h0ZM7.67,33.91c.38,0,.57-.26.57-.6,0-.32-.14-.6-.52-.6-.16,0-.33.02-.49.07v1.13s.44,0,.44,0Z"/>
          <path d="M9.31,33.63c0-.82.48-1.41,1.31-1.41s1.31.59,1.31,1.41v.66c0,.83-.48,1.41-1.31,1.41s-1.31-.58-1.31-1.41v-.66ZM10.63,35.21c.57,0,.73-.45.73-.97v-.56c0-.52-.16-.97-.73-.97s-.73.46-.73.97v.56c0,.52.16.97.73.97Z"/>
          <path d="M13.15,32.77h-.63c-.12,0-.19-.08-.19-.19v-.1c0-.12.08-.19.19-.19h1.84c.12,0,.19.08.19.19v.1c0,.12-.07.19-.19.19h-.64v2.67c0,.12-.07.19-.19.19h-.19c-.12,0-.19-.08-.19-.19,0,0,0-2.67,0-2.67Z"/>
          <path d="M14.96,33.18c0-.54.34-.89,1.02-.89h.72c.12,0,.19.08.19.19v.1c0,.12-.08.19-.19.19h-.71c-.35,0-.45.16-.45.45v.46h1.02c.12,0,.19.08.19.19v.1c0,.12-.08.19-.19.19h-1.02v.55c0,.29.11.44.45.44h.73c.12,0,.19.08.19.19v.1c0,.12-.08.19-.19.19h-.73c-.68,0-1.02-.35-1.02-.89v-1.57h0Z"/>
          <path d="M17.54,32.49c0-.12.08-.19.19-.19h.19c.12,0,.19.08.19.19v2.97c0,.12-.07.19-.19.19h-.19c-.12,0-.19-.08-.19-.19v-2.97Z"/>
          <path d="M18.91,32.49c0-.12.08-.19.19-.19h.16c.12,0,.2.06.27.18l1.23,2.13c-.02-.23-.03-.46-.03-.63v-1.49c0-.12.07-.19.19-.19h.19c.12,0,.19.08.19.19v2.97c0,.12-.07.19-.19.19h-.16c-.12,0-.21-.07-.27-.18l-1.22-2.13c.02.23.03.46.03.63v1.49c0,.12-.08.19-.19.19h-.18c-.12,0-.19-.08-.19-.19v-2.97h-.02Z"/>
        </g>
        <g>
          <path d="M10.09,19.22c-.16,0-.33-.06-.45-.19l-3.1-3.1-3.1,3.1c-.25.25-.65.25-.9,0s-.25-.65,0-.9l3.55-3.55c.25-.25.65-.25.9,0l3.55,3.55c.25.25.25.65,0,.9-.12.12-.29.19-.45.19Z"/>
          <path d="M6.54,22.89c-.35,0-.64-.29-.64-.64v-7.23c0-.35.29-.64.64-.64s.64.29.64.64v7.23c0,.35-.29.64-.64.64Z"/>
        </g>
        <g>
          <path d="M22.28,7.17c-.16,0-.33-.06-.45-.19l-3.1-3.1-3.1,3.1c-.25.25-.65.25-.9,0s-.25-.65,0-.9l3.55-3.55c.25-.25.65-.25.9,0l3.55,3.55c.25.25.25.65,0,.9-.12.12-.29.19-.45.19Z"/>
          <path d="M18.72,10.84c-.35,0-.64-.29-.64-.64V2.97c0-.35.29-.64.64-.64s.64.29.64.64v7.23c0,.35-.29.64-.64.64Z"/>
        </g>
        <g>
          <path d="M16.18,13.21c-.16,0-.33-.06-.45-.19l-3.1-3.1-3.1,3.1c-.25.25-.65.25-.9,0s-.25-.65,0-.9l3.55-3.55c.25-.25.65-.25.9,0l3.55,3.55c.25.25.25.65,0,.9-.12.12-.29.19-.45.19Z"/>
          <path d="M12.63,16.88c-.35,0-.64-.29-.64-.64v-7.23c0-.35.29-.64.64-.64s.64.29.64.64v7.23c0,.35-.29.64-.64.64Z"/>
        </g>
      </g>
    </g>
  </g>
</svg>