<?xml version="1.0" encoding="UTF-8"?>
<svg id="Layer_2" data-name="Layer 2" xmlns="http://www.w3.org/2000/svg" viewBox="-8.63661 -1.00661 42.5832 42.5832">
  <defs>
    <style>
      .cls-1 {
        fill: #010101;
      }

      .cls-2 {
        fill: #fff;
      }
    </style>
  </defs>
  <g id="perforation">
    <g>
      <g>
        <path class="cls-1" d="M25.31,25.31H0V0h25.31v25.31ZM.84,24.47h23.63V.84H.84v23.63Z"/>
        <path class="cls-1" d="M13.45,22.27h-7.6c-.23,0-.42-.19-.42-.42v-11.42c0-.23.19-.42.42-.42h7.6c.23,0,.42.19.42.42v11.42c0,.23-.19.42-.42.42ZM6.27,21.43h6.76v-10.58h-6.76v10.58Z"/>
        <path class="cls-1" d="M19.46,22.27h-6.02c-.23,0-.42-.19-.42-.42v-11.42c0-.23.19-.42.42-.42h6.02c.23,0,.42.19.42.42v11.42c0,.23-.19.42-.42.42ZM13.87,21.43h5.18v-10.58h-5.18v10.58Z"/>
        <path class="cls-1" d="M13.45,10.85h-7.6c-.16,0-.31-.09-.38-.23-.07-.14-.05-.31.04-.44l3.22-4.25c.08-.1.2-.17.33-.17h7.6c.16,0,.31.09.38.23.07.14.05.31-.04.44l-3.22,4.25c-.08.1-.2.17-.33.17ZM6.69,10.01h6.55l2.58-3.41h-6.55l-2.58,3.41Z"/>
        <path class="cls-1" d="M19.46,10.85h-6.02c-.16,0-.31-.09-.38-.23-.07-.14-.05-.31.04-.44l3.22-4.25c.08-.11.21-.17.35-.17.14,0,.26.07.34.19l2.8,4.25c.08.13.09.29.02.43-.07.14-.22.22-.37.22ZM14.29,10.01h4.39l-2.04-3.1-2.35,3.1Z"/>
        <path class="cls-1" d="M16.67,6.6h-7.6c-.23,0-.42-.19-.42-.42v-2.58c0-.23.19-.42.42-.42h7.6c.23,0,.42.19.42.42v2.58c0,.23-.19.42-.42.42ZM9.49,5.76h6.76v-1.74h-6.76v1.74Z"/>
        <path class="cls-1" d="M14.63,17.57c-.19,0-.38-.01-.56-.03-1.38-.17-2.24-.94-2.99-1.62-.73-.66-1.37-1.22-2.38-1.29-.81-.06-1.69.22-2.62.82l-.46-.7c1.09-.7,2.14-1.03,3.14-.96,1.3.09,2.1.81,2.88,1.5.73.65,1.42,1.27,2.54,1.41,1.41.18,3.11-.48,5.03-1.96l.51.67c-1.87,1.43-3.58,2.16-5.09,2.16Z"/>
      </g>
      <g>
        <path class="cls-1" d="M3.48,27.74c0-.12.08-.19.19-.19h.19c.12,0,.19.08.19.19v2.67h1.28c.12,0,.19.08.19.19v.1c0,.12-.08.19-.19.19h-1.66c-.12,0-.19-.08-.19-.19v-2.97Z"/>
        <path class="cls-1" d="M6.61,28.06c.08-.32.31-.57.68-.57s.59.26.67.57l.69,2.64c.03.11-.03.21-.15.21h-.19c-.12,0-.2-.08-.23-.19l-.18-.71h-1.23l-.18.71c-.03.12-.11.19-.22.19h-.2c-.12,0-.18-.1-.15-.21l.69-2.63ZM7.79,29.52l-.35-1.39c-.02-.1-.08-.15-.15-.15s-.12.05-.15.15l-.35,1.39h1Z"/>
        <path class="cls-1" d="M9.11,28.73c0-.8.47-1.24,1.23-1.24.35,0,.6.05.81.11.09.02.13.1.11.19l-.03.16c-.02.1-.11.13-.2.11-.14-.03-.35-.08-.61-.08-.49,0-.71.26-.71.81v.89c0,.55.22.81.71.81.31,0,.51-.05.63-.08.1-.02.16.02.18.11l.03.16c.02.08-.02.16-.11.19-.13.03-.42.1-.81.1-.76,0-1.23-.44-1.23-1.24v-.99Z"/>
        <path class="cls-1" d="M12.52,28.04h-.63c-.12,0-.19-.08-.19-.19v-.1c0-.12.08-.19.19-.19h1.84c.12,0,.19.08.19.19v.1c0,.12-.07.19-.19.19h-.64v2.67c0,.12-.07.19-.19.19h-.19c-.12,0-.19-.08-.19-.19v-2.67Z"/>
        <path class="cls-1" d="M14.31,28.9c0-.82.48-1.41,1.32-1.41s1.32.59,1.32,1.41v.66c0,.83-.48,1.41-1.32,1.41s-1.32-.58-1.32-1.41v-.66ZM15.62,30.48c.57,0,.73-.45.73-.97v-.56c0-.52-.16-.97-.73-.97s-.73.46-.73.97v.56c0,.52.16.97.73.97Z"/>
        <path class="cls-1" d="M17.48,30.49c.03-.12.12-.16.23-.12.12.03.38.12.67.12.38,0,.55-.2.55-.48,0-.71-1.45-.48-1.45-1.59,0-.58.47-.92,1.11-.92.29,0,.51.07.64.11.11.04.17.12.13.24l-.03.1c-.04.11-.13.15-.24.12-.12-.04-.29-.08-.5-.08-.34,0-.51.17-.51.44,0,.62,1.45.48,1.45,1.59,0,.58-.46.96-1.15.96-.32,0-.59-.07-.78-.13-.12-.03-.17-.11-.14-.24l.02-.11Z"/>
        <path class="cls-1" d="M20.04,28.44c0-.54.34-.89,1.02-.89h.72c.12,0,.19.08.19.19v.1c0,.12-.08.19-.19.19h-.71c-.35,0-.45.16-.45.45v.46h1.02c.12,0,.19.08.19.19v.1c0,.12-.08.19-.19.19h-1.02v.55c0,.29.11.44.45.44h.73c.12,0,.19.08.19.19v.1c0,.12-.08.19-.19.19h-.73c-.68,0-1.02-.36-1.02-.89v-1.57Z"/>
        <path class="cls-1" d="M7.91,32.54c0-.12.08-.19.19-.19h1.54c.12,0,.19.08.19.19v.1c0,.12-.07.19-.19.19h-1.16v.96h1.01c.12,0,.19.08.19.19v.1c0,.12-.08.19-.19.19h-1.01v1.23c0,.12-.07.19-.19.19h-.19c-.12,0-.19-.08-.19-.19v-2.97Z"/>
        <path class="cls-1" d="M10.43,32.67c0-.12.08-.22.2-.24.17-.05.52-.14.86-.14.73,0,1.12.52,1.12,1.09,0,.32-.18.8-.68.98l.54,1.12c.05.12-.01.22-.13.22h-.24c-.12,0-.19-.06-.24-.17l-.5-1.09h-.36v1.07c0,.12-.07.19-.19.19h-.19c-.12,0-.19-.08-.19-.19v-2.84ZM11.43,33.98c.38,0,.57-.26.57-.6,0-.32-.14-.61-.52-.61-.16,0-.33.02-.49.07v1.13h.44Z"/>
        <path class="cls-1" d="M13.12,33.24c0-.54.34-.89,1.02-.89h.72c.12,0,.19.08.19.19v.1c0,.12-.08.19-.19.19h-.71c-.35,0-.45.16-.45.45v.46h1.02c.12,0,.19.08.19.19v.1c0,.12-.08.19-.19.19h-1.02v.55c0,.29.11.44.45.44h.73c.12,0,.19.08.19.19v.1c0,.12-.08.19-.19.19h-.73c-.68,0-1.02-.36-1.02-.89v-1.57Z"/>
        <path class="cls-1" d="M15.61,33.24c0-.54.34-.89,1.02-.89h.72c.12,0,.19.08.19.19v.1c0,.12-.08.19-.19.19h-.71c-.35,0-.45.16-.45.45v.46h1.02c.12,0,.19.08.19.19v.1c0,.12-.08.19-.19.19h-1.02v.55c0,.29.11.44.45.44h.73c.12,0,.19.08.19.19v.1c0,.12-.08.19-.19.19h-.73c-.68,0-1.02-.36-1.02-.89v-1.57Z"/>
      </g>
      <g>
        <line class="cls-2" x1="24.89" y1=".42" x2=".42" y2="24.89"/>
        <rect class="cls-1" x="-4.65" y="12.23" width="34.61" height=".84" transform="translate(-5.24 12.66) rotate(-45.01)"/>
      </g>
    </g>
  </g>
</svg>