<?xml version="1.0" encoding="UTF-8"?>
<svg xmlns="http://www.w3.org/2000/svg" viewBox="0 0 49.45 49.45">
  <path fill="#fff" d="M39.39,33.5l3.46,3.03-4.05,4.7-3.78-3.3c-3.3,2.49-7.4,3.94-11.83,3.94-10.64,0-19.72-8.81-19.72-19.23,0-10.43,9.08-19.18,19.72-19.18,10.75,0,19.72,8.75,19.72,19.18,0,4-1.3,7.73-3.51,10.86ZM29.13,32.86l-4.32-3.78,4.05-4.7,4.48,3.89c.92-1.67,1.4-3.62,1.4-5.62,0-6.43-5.29-11.94-11.56-11.94s-11.51,5.51-11.51,11.94c0,6.48,5.29,11.99,11.51,11.99,2.16,0,4.21-.65,5.94-1.78Z"/>
</svg>
