<?xml version="1.0" encoding="UTF-8"?>
<svg id="Layer_2" data-name="Layer 2" xmlns="http://www.w3.org/2000/svg" viewBox="-8.63661 -3.40661 42.5832 42.5832">
  <defs>
    <style>
      .cls-1 {
        fill: #010101;
      }

      .cls-2 {
        fill: #e5e5e5;
      }
    </style>
  </defs>
  <g id="perforation">
    <g>
      <g>
        <path class="cls-1" d="M3.6,27.74c0-.12.08-.19.19-.19h.19c.12,0,.19.08.19.19v2.67h1.28c.12,0,.19.08.19.19v.1c0,.12-.08.19-.19.19h-1.66c-.12,0-.19-.08-.19-.19v-2.97Z"/>
        <path class="cls-1" d="M6.07,28.9c0-.82.48-1.41,1.32-1.41s1.32.59,1.32,1.41v.66c0,.83-.48,1.41-1.32,1.41s-1.32-.58-1.32-1.41v-.66ZM7.38,30.48c.57,0,.73-.45.73-.97v-.56c0-.52-.16-.97-.73-.97s-.73.46-.73.97v.56c0,.52.16.97.73.97Z"/>
        <path class="cls-1" d="M9.16,27.77c-.03-.14.04-.22.15-.22h.21c.12,0,.19.07.21.19l.28,1.52c.04.24.08.57.12.87.03-.3.08-.63.13-.87l.22-.93c.07-.31.24-.56.61-.56s.54.25.61.56l.21.93c.05.24.1.58.13.88.03-.31.08-.64.12-.88l.29-1.52c.02-.12.1-.19.22-.19h.2c.12,0,.18.08.16.22l-.6,2.94c-.02.12-.12.2-.23.2h-.26c-.12,0-.21-.07-.24-.19l-.52-2.31c-.01-.07-.03-.11-.08-.11s-.07.03-.09.11l-.52,2.31c-.03.12-.12.19-.24.19h-.26c-.12,0-.21-.08-.23-.2l-.6-2.94Z"/>
        <path class="cls-1" d="M14.76,27.74c0-.12.08-.19.19-.19h1.54c.12,0,.19.08.19.19v.1c0,.12-.07.19-.19.19h-1.16v.96h1.01c.12,0,.19.08.19.19v.1c0,.12-.08.19-.19.19h-1.01v1.23c0,.12-.07.19-.19.19h-.19c-.12,0-.19-.08-.19-.19v-2.97Z"/>
        <path class="cls-1" d="M17.6,28.06c.08-.32.31-.57.68-.57s.59.26.67.57l.69,2.64c.03.11-.03.21-.15.21h-.19c-.12,0-.2-.08-.23-.19l-.18-.71h-1.23l-.18.71c-.03.12-.11.19-.22.19h-.2c-.12,0-.18-.1-.15-.21l.69-2.63ZM18.78,29.52l-.35-1.39c-.02-.1-.08-.15-.15-.15s-.12.05-.15.15l-.35,1.39h1Z"/>
        <path class="cls-1" d="M20.55,28.04h-.63c-.12,0-.19-.08-.19-.19v-.1c0-.12.08-.19.19-.19h1.84c.12,0,.19.08.19.19v.1c0,.12-.07.19-.19.19h-.64v2.67c0,.12-.07.19-.19.19h-.19c-.12,0-.19-.08-.19-.19v-2.67Z"/>
        <path class="cls-1" d="M2.93,32.54c0-.12.08-.19.19-.19h.76c.76,0,1.18.5,1.18,1.08s-.42,1.08-1.18,1.08h-.38v1c0,.12-.07.19-.19.19h-.19c-.12,0-.19-.08-.19-.19v-2.97ZM3.87,34.03c.41,0,.6-.29.6-.6s-.18-.6-.6-.6h-.36v1.19h.36Z"/>
        <path class="cls-1" d="M5.64,32.67c0-.12.08-.22.2-.24.17-.05.52-.14.86-.14.73,0,1.12.52,1.12,1.09,0,.32-.18.8-.68.98l.54,1.12c.05.12-.01.22-.13.22h-.24c-.12,0-.19-.06-.24-.17l-.5-1.09h-.36v1.07c0,.12-.07.19-.19.19h-.19c-.12,0-.19-.08-.19-.19v-2.84ZM6.65,33.98c.38,0,.57-.26.57-.6,0-.32-.14-.61-.52-.61-.16,0-.33.02-.49.07v1.13h.44Z"/>
        <path class="cls-1" d="M8.31,33.7c0-.82.48-1.41,1.32-1.41s1.32.59,1.32,1.41v.66c0,.83-.48,1.41-1.32,1.41s-1.32-.58-1.32-1.41v-.66ZM9.62,35.28c.57,0,.73-.45.73-.97v-.56c0-.52-.16-.97-.73-.97s-.73.46-.73.97v.56c0,.52.16.97.73.97Z"/>
        <path class="cls-1" d="M11.61,32.54c0-.12.08-.19.19-.19h1.02c.85,0,1.25.39,1.25,1.23v.9c0,.84-.4,1.22-1.25,1.22h-1.02c-.12,0-.19-.08-.19-.19v-2.97ZM12.81,35.22c.59,0,.68-.31.68-.79v-.79c0-.48-.09-.8-.68-.8h-.63v2.38h.63Z"/>
        <path class="cls-1" d="M14.68,32.54c0-.12.08-.19.19-.19h.19c.12,0,.19.08.19.19v1.99c0,.36.19.74.69.74s.68-.38.68-.74v-1.99c0-.12.08-.19.19-.19h.19c.12,0,.19.08.19.19v1.91c0,.82-.45,1.31-1.26,1.31s-1.26-.49-1.26-1.31v-1.91Z"/>
        <path class="cls-1" d="M17.8,33.53c0-.8.47-1.24,1.23-1.24.35,0,.6.05.81.11.09.02.13.1.11.19l-.03.16c-.02.1-.11.13-.2.11-.14-.03-.35-.08-.61-.08-.49,0-.71.26-.71.81v.89c0,.55.22.81.71.81.31,0,.51-.05.63-.08.1-.02.16.02.18.11l.03.16c.02.08-.02.16-.11.19-.13.03-.42.1-.81.1-.76,0-1.23-.44-1.23-1.24v-.99Z"/>
        <path class="cls-1" d="M21.21,32.84h-.63c-.12,0-.19-.08-.19-.19v-.1c0-.12.08-.19.19-.19h1.84c.12,0,.19.08.19.19v.1c0,.12-.07.19-.19.19h-.64v2.67c0,.12-.07.19-.19.19h-.19c-.12,0-.19-.08-.19-.19v-2.67Z"/>
      </g>
      <g>
        <path class="cls-1" d="M25.31,25.31H0V0h25.31v25.31ZM.84,24.47h23.63V.84H.84v23.63Z"/>
        <path class="cls-1" d="M12.66,22.57h0c-1.85,0-3.59-.72-4.89-2.03-2.38-2.38-2.66-6.06-.68-8.95,1.48-2.15,2.81-4.46,4.09-6.7.37-.65.74-1.3,1.12-1.94.08-.13.21-.21.36-.21h0c.15,0,.29.08.36.21.38.64.75,1.29,1.12,1.94,1.28,2.24,2.61,4.55,4.09,6.7,1.98,2.88,1.7,6.56-.68,8.95-1.31,1.31-3.04,2.03-4.89,2.03ZM12.67,21.73h0c1.62,0,3.14-.64,4.28-1.78,2.09-2.09,2.33-5.33.58-7.88-1.5-2.18-2.84-4.51-4.13-6.76-.25-.44-.5-.87-.75-1.31-.25.44-.5.87-.75,1.31-1.29,2.25-2.63,4.58-4.13,6.76-1.75,2.54-1.51,5.78.58,7.88,1.14,1.14,2.66,1.78,4.28,1.78h.04Z"/>
        <g>
          <path class="cls-2" d="M17.49,12.65c.69,0,1.37-.26,1.9-.78.95-.95,1-2.38.26-3.46-.79-1.14-1.45-2.37-2.15-3.57-.7,1.2-1.36,2.42-2.15,3.57-.74,1.08-.69,2.51.26,3.46.52.52,1.21.79,1.9.78h-.02Z"/>
          <path class="cls-1" d="M17.5,13.07h0c-.83,0-1.6-.32-2.19-.91-1.07-1.07-1.19-2.71-.31-4,.6-.88,1.15-1.82,1.67-2.74.15-.27.31-.54.46-.8.08-.13.21-.21.36-.21h0c.15,0,.29.08.36.21.15.27.31.53.46.8.53.92,1.07,1.86,1.67,2.74.88,1.29.76,2.93-.31,4-.58.58-1.36.91-2.19.91ZM17.51,12.23h0c.6,0,1.16-.24,1.59-.66.78-.78.86-1.98.21-2.93-.62-.91-1.18-1.87-1.71-2.8-.03-.05-.06-.11-.09-.16-.03.06-.07.11-.1.17-.53.93-1.09,1.89-1.71,2.79-.65.95-.56,2.15.21,2.93.42.42.99.66,1.59.66h.01Z"/>
        </g>
        <path class="cls-1" d="M12.65,18.57c-.11,0-.22-.04-.3-.12l-3.57-3.57c-.16-.16-.16-.43,0-.59.16-.16.43-.16.59,0l3.27,3.27,3.27-3.27c.16-.16.43-.16.59,0,.16.16.16.43,0,.59l-3.57,3.57c-.08.08-.19.12-.3.12Z"/>
        <path class="cls-1" d="M12.65,18.57c-.23,0-.42-.19-.42-.42v-7.25c0-.23.19-.42.42-.42s.42.19.42.42v7.25c0,.23-.19.42-.42.42Z"/>
      </g>
    </g>
  </g>
</svg>