<?xml version="1.0" encoding="UTF-8"?>
<svg id="Layer_2" data-name="Layer 2" xmlns="http://www.w3.org/2000/svg" viewBox="-8.62 -1.00661 42.5832 42.5832">
  <defs>
    <style>
      .cls-1 {
        fill: #010101;
      }
    </style>
  </defs>
  <g id="Layer_2-2" data-name="Layer 2">
    <g id="uuid-b963178b-78a2-4a70-979d-8f14175ff237" data-name="Layer 2-2">
      <g id="uuid-433cf118-5bfa-43ab-880a-456b6311bae1">
        <g>
          <g>
            <path class="cls-1" d="M25.34,25.34H0V0h25.34v25.34ZM.84,24.49h23.65V.84H.84v23.65Z"/>
            <path class="cls-1" d="M6.08,16.05c-.23,0-.41-.18-.43-.41-.11-6.5,4.9-12.08,11.38-12.69.36-.03.73-.05,1.11-.05h0c.23,0,.41.18.43.41.11,6.5-4.9,12.08-11.38,12.69-.36.03-.73.05-1.11.05h0ZM17.73,3.73c-.2,0-.41.02-.61.04-5.91.56-10.5,5.54-10.62,11.43.2,0,.41-.02.61-.04,5.91-.56,10.5-5.54,10.62-11.43Z"/>
            <path class="cls-1" d="M18.37,22.07c-2.86,0-5.68-1.34-7.43-3.79-.15-.21-.3-.44-.44-.67-.12-.2-.05-.46.15-.57,4.04-2.43,9.35-1.34,12.11,2.5.15.21.3.44.44.67.12.2.05.46-.15.57-1.45.87-3.06,1.3-4.67,1.3h-.01ZM11.44,17.54c.05.09.12.17.17.24,2.41,3.37,6.99,4.41,10.61,2.48-.05-.09-.12-.17-.17-.24-2.41-3.37-7-4.41-10.61-2.48Z"/>
            <path class="cls-1" d="M3.17,25.34h-.04c-.23-.02-.4-.22-.38-.46.63-6.45,3.93-12.38,9.07-16.27.18-.14.45-.11.58.09.14.18.11.45-.09.58-4.95,3.75-8.14,9.47-8.74,15.69-.02.21-.2.38-.41.38h.01Z"/>
            <path class="cls-1" d="M4.23,20.3c-.13,0-.26-.06-.34-.17-.14-.19-.1-.45.1-.58,3.64-2.65,8.29-3.24,12.47-1.59.21.09.32.33.23.54s-.33.32-.54.23c-3.9-1.54-8.26-.99-11.66,1.5-.07.05-.16.09-.24.09h-.01v-.02h0Z"/>
          </g>
          <g>
            <path class="cls-1" d="M6.98,30.71c0-.12.07-.19.19-.19h.5v-2.29l-.48.2c-.11.04-.2.02-.25-.09l-.04-.09c-.05-.12,0-.2.09-.24l.64-.26c.09-.04.17-.06.27-.06h.12c.12,0,.19.07.19.19v2.67h.39c.12,0,.19.07.19.19v.08c0,.12-.07.19-.19.19h-1.44c-.12,0-.19-.07-.19-.19v-.08h.01v-.03Z"/>
            <path class="cls-1" d="M9.21,28.94c0-.84.42-1.35,1.15-1.35s1.16.54,1.16,1.35v.76c0,.84-.41,1.35-1.16,1.35s-1.15-.53-1.15-1.35v-.76ZM10.95,29.63v-.61c0-.55-.14-.95-.6-.95s-.59.4-.59.95v.61c0,.55.14.95.59.95s.6-.4.6-.95Z"/>
            <path class="cls-1" d="M12.03,28.94c0-.84.42-1.35,1.15-1.35s1.16.54,1.16,1.35v.76c0,.84-.41,1.35-1.16,1.35s-1.15-.53-1.15-1.35v-.76ZM13.77,29.63v-.61c0-.55-.14-.95-.6-.95s-.59.4-.59.95v.61c0,.55.14.95.59.95s.6-.4.6-.95Z"/>
            <path class="cls-1" d="M14.91,28.62v-.27c0-.39.27-.75.74-.75s.74.36.74.75v.27c0,.4-.27.75-.74.75s-.74-.36-.74-.75ZM15.97,28.6v-.22c0-.23-.11-.42-.34-.42s-.34.18-.34.42v.22c0,.23.12.42.35.42s.34-.19.34-.42h-.01ZM17.1,27.8c.03-.08.09-.14.18-.14h.13c.08,0,.12.07.08.15l-1.2,3.03c-.03.08-.09.14-.18.14h-.13c-.08,0-.12-.07-.08-.15l1.2-3.03ZM16.97,30.02c0-.39.27-.75.74-.75s.74.35.74.75v.27c0,.39-.27.75-.74.75s-.74-.36-.74-.75v-.27ZM17.71,30.68c.22,0,.34-.18.34-.42v-.22c0-.24-.11-.42-.34-.42s-.34.18-.34.42v.22c0,.23.12.42.35.42h-.01Z"/>
            <path class="cls-1" d="M2.87,32.61c0-.12.07-.19.19-.19h.16c.12,0,.2.06.26.18l1.22,2.11c-.02-.22-.03-.45-.03-.63v-1.47c0-.12.07-.19.19-.19h.19c.12,0,.19.07.19.19v2.94c0,.12-.07.19-.19.19h-.16c-.12,0-.21-.06-.27-.18l-1.21-2.11c.02.23.03.45.03.62v1.47c0,.12-.07.19-.19.19h-.18c-.12,0-.19-.07-.19-.19v-2.94h-.01Z"/>
            <path class="cls-1" d="M6.53,32.92c.08-.32.31-.57.67-.57s.59.25.66.57l.68,2.61c.03.11-.03.2-.15.2h-.19c-.12,0-.2-.07-.22-.19l-.18-.7h-1.22l-.18.7c-.03.13-.11.19-.22.19h-.2c-.13,0-.18-.09-.15-.21l.68-2.61h.02ZM7.7,34.37l-.35-1.38c-.02-.09-.07-.15-.15-.15s-.13.05-.15.15l-.35,1.38h1Z"/>
            <path class="cls-1" d="M9.45,32.9h-.63c-.12,0-.19-.07-.19-.19v-.09c0-.12.07-.19.19-.19h1.83c.12,0,.19.07.19.19v.09c0,.12-.07.19-.19.19h-.63v2.65c0,.12-.07.19-.19.19h-.19c-.12,0-.19-.07-.19-.19,0,0,0-2.65,0-2.65Z"/>
            <path class="cls-1" d="M11.32,32.61c0-.12.07-.19.19-.19h.19c.12,0,.19.07.19.19v1.98c0,.36.19.74.68.74s.67-.38.67-.74v-1.98c0-.12.07-.19.19-.19h.19c.12,0,.19.07.19.19v1.89c0,.81-.44,1.29-1.24,1.29s-1.24-.48-1.24-1.29v-1.89s-.01,0,0,0h0Z"/>
            <path class="cls-1" d="M14.53,32.73c0-.12.08-.21.2-.24.17-.05.52-.14.85-.14.73,0,1.1.52,1.1,1.08,0,.32-.18.79-.67.97l.54,1.12c.05.12-.01.22-.13.22h-.23c-.12,0-.19-.06-.23-.17l-.49-1.08h-.36v1.06c0,.12-.07.19-.19.19h-.19c-.12,0-.19-.07-.19-.19v-2.81h-.01ZM15.53,34.03c.38,0,.57-.25.57-.6,0-.32-.15-.6-.52-.6-.16,0-.33.02-.48.07v1.13s.43,0,.43,0Z"/>
            <path class="cls-1" d="M17.79,32.92c.08-.32.31-.57.67-.57s.59.25.66.57l.68,2.61c.03.11-.03.2-.15.2h-.19c-.12,0-.2-.07-.22-.19l-.18-.7h-1.22l-.18.7c-.03.13-.11.19-.22.19h-.2c-.13,0-.18-.09-.15-.21l.68-2.61h.02,0ZM18.96,34.37l-.35-1.38c-.02-.09-.07-.15-.15-.15s-.13.05-.15.15l-.35,1.38h1Z"/>
            <path class="cls-1" d="M20.43,32.61c0-.12.07-.19.19-.19h.19c.12,0,.19.07.19.19v2.65h1.27c.12,0,.19.07.19.19v.11c0,.12-.07.19-.19.19h-1.64c-.12,0-.19-.07-.19-.19v-2.94h-.01Z"/>
            <path class="cls-1" d="M0,37.36c0-.12.07-.19.19-.19h.19c.12,0,.19.07.19.19v2.94c0,.12-.07.19-.19.19h-.19c-.12,0-.19-.07-.19-.19v-2.94Z"/>
            <path class="cls-1" d="M1.04,37.36c0-.12.07-.19.19-.19h.16c.12,0,.2.06.26.18l1.22,2.11c-.02-.22-.03-.45-.03-.63v-1.47c0-.12.07-.19.19-.19h.19c.12,0,.19.07.19.19v2.94c0,.12-.07.19-.19.19h-.16c-.12,0-.21-.06-.27-.18l-1.21-2.11c.02.23.03.45.03.62v1.47c0,.12-.07.19-.19.19h-.18c-.12,0-.19-.07-.19-.19v-2.94h0Z"/>
            <path class="cls-1" d="M3.88,38.34c0-.79.46-1.23,1.22-1.23.34,0,.57.05.76.09.14.04.18.11.15.23l-.02.09c-.02.11-.12.16-.23.13-.15-.03-.32-.07-.58-.07-.48,0-.7.25-.7.8v.88c0,.55.22.8.7.8.23,0,.39-.04.57-.08v-.94c0-.12.06-.2.18-.2h.2c.12-.02.17.05.17.16v1.15c0,.12-.08.21-.2.24-.23.05-.58.15-1,.15-.76,0-1.22-.43-1.22-1.23v-.99s0,.02,0,.02Z"/>
            <path class="cls-1" d="M6.83,37.49c0-.12.08-.21.2-.24.17-.05.52-.14.85-.14.73,0,1.1.52,1.1,1.08,0,.32-.18.79-.67.97l.54,1.12c.05.12-.01.22-.13.22h-.23c-.12,0-.19-.06-.23-.17l-.49-1.08h-.36v1.06c0,.12-.07.19-.19.19h-.19c-.12,0-.19-.07-.19-.19v-2.81h-.01ZM7.83,38.78c.38,0,.57-.25.57-.6,0-.32-.15-.6-.52-.6-.16,0-.33.02-.48.07v1.13s.43,0,.43,0Z"/>
            <path class="cls-1" d="M9.45,38.06c0-.54.34-.88,1.01-.88h.7c.12,0,.19.07.19.19v.09c0,.12-.07.19-.19.19h-.7c-.35,0-.45.16-.45.44v.45h1.01c.12,0,.19.07.19.19v.09c0,.12-.07.19-.19.19h-1.01v.55c0,.29.11.44.45.44h.73c.12,0,.19.07.19.19v.09c0,.12-.07.19-.19.19h-.73c-.67,0-1.01-.35-1.01-.88v-1.56.02h0Z"/>
            <path class="cls-1" d="M11.95,37.36c0-.12.07-.19.19-.19h1.01c.84,0,1.24.39,1.24,1.22v.89c0,.83-.4,1.21-1.24,1.21h-1.01c-.12,0-.19-.07-.19-.19v-2.94h0ZM13.14,40.01c.58,0,.67-.31.67-.79v-.79c0-.48-.09-.79-.67-.79h-.62v2.36h.62Z"/>
            <path class="cls-1" d="M14.89,37.36c0-.12.07-.19.19-.19h.19c.12,0,.19.07.19.19v2.94c0,.12-.07.19-.19.19h-.19c-.12,0-.19-.07-.19-.19v-2.94Z"/>
            <path class="cls-1" d="M15.9,38.06c0-.54.34-.88,1.01-.88h.7c.12,0,.19.07.19.19v.09c0,.12-.07.19-.19.19h-.7c-.35,0-.44.16-.44.44v.45h1.01c.12,0,.19.07.19.19v.09c0,.12-.07.19-.19.19h-1.01v.55c0,.29.11.44.44.44h.73c.12,0,.19.07.19.19v.09c0,.12-.07.19-.19.19h-.73c-.67,0-1.01-.35-1.01-.88v-1.56.02h0Z"/>
            <path class="cls-1" d="M18.17,37.36c0-.12.07-.19.19-.19h.16c.12,0,.2.06.26.18l1.22,2.11c-.02-.22-.03-.45-.03-.63v-1.47c0-.12.07-.19.19-.19h.19c.12,0,.19.07.19.19v2.94c0,.12-.07.19-.19.19h-.16c-.12,0-.21-.06-.27-.18l-1.21-2.11c.02.23.03.45.03.62v1.47c0,.12-.07.19-.19.19h-.18c-.12,0-.19-.07-.19-.19v-2.94h-.01,0Z"/>
            <path class="cls-1" d="M21.63,37.66h-.63c-.12,0-.19-.07-.19-.19v-.09c0-.12.07-.19.19-.19h1.83c.12,0,.19.07.19.19v.09c0,.12-.07.19-.19.19h-.63v2.65c0,.12-.07.19-.19.19h-.19c-.12,0-.19-.07-.19-.19v-2.65Z"/>
            <path class="cls-1" d="M23.17,40.09c.03-.13.12-.16.22-.13.13.03.38.12.66.12.38,0,.55-.2.55-.47,0-.7-1.44-.47-1.44-1.58,0-.58.46-.92,1.1-.92.29,0,.5.06.64.11.11.04.17.13.13.24l-.03.09c-.04.11-.13.15-.24.12-.12-.04-.28-.08-.49-.08-.34,0-.5.17-.5.43,0,.62,1.44.47,1.44,1.58,0,.58-.45.95-1.14.95-.32,0-.58-.07-.77-.13-.12-.03-.17-.11-.15-.23l.02-.11h0Z"/>
          </g>
        </g>
      </g>
    </g>
  </g>
</svg>