<?xml version="1.0" encoding="UTF-8"?>
<svg id="Layer_2" data-name="Layer 2" xmlns="http://www.w3.org/2000/svg" viewBox="-7.185 -0 40.11 40.11">
  <defs>
    <style>
      .cls-1 {
        fill: #010101;
      }
    </style>
  </defs>
  <g id="perforation">
    <g>
      <g>
        <path class="cls-1" d="M24.79,23.84H.95V0h23.84v23.84ZM1.74,23.04h22.25V.79H1.74v22.25Z"/>
        <path class="cls-1" d="M6.67,15.1c-.22,0-.39-.17-.4-.39-.1-6.12,4.61-11.37,10.71-11.94.34-.03.69-.05,1.04-.05h0c.22,0,.39.17.4.39.1,6.12-4.61,11.37-10.71,11.94-.34.03-.69.05-1.04.05h0ZM17.63,3.51c-.19,0-.39.02-.57.04-5.56.53-9.88,5.21-9.99,10.75.19,0,.39-.02.57-.04,5.56-.53,9.88-5.21,9.99-10.75Z"/>
        <path class="cls-1" d="M18.23,20.76c-2.69,0-5.34-1.26-6.99-3.57-.14-.2-.28-.41-.41-.63-.11-.19-.05-.43.14-.54,3.8-2.29,8.8-1.26,11.39,2.35.14.2.28.41.41.63.11.19.05.43-.14.54-1.36.82-2.88,1.22-4.39,1.22ZM11.71,16.5c.05.08.11.16.16.23,2.27,3.17,6.58,4.15,9.98,2.33-.05-.08-.11-.16-.16-.23-2.27-3.17-6.59-4.15-9.98-2.33Z"/>
        <path class="cls-1" d="M3.93,23.84s-.03,0-.04,0c-.22-.02-.38-.21-.36-.43.59-6.07,3.7-11.65,8.53-15.31.17-.13.42-.1.55.08.13.17.1.42-.08.55-4.66,3.53-7.66,8.91-8.22,14.76-.02.2-.19.36-.39.36Z"/>
        <path class="cls-1" d="M4.93,19.1c-.12,0-.24-.06-.32-.16-.13-.18-.09-.42.09-.55,3.42-2.49,7.8-3.05,11.73-1.5.2.08.3.31.22.51-.08.2-.31.3-.51.22-3.67-1.45-7.77-.93-10.97,1.41-.07.05-.15.08-.23.08Z"/>
      </g>
      <g>
        <path class="cls-1" d="M7.42,30.76c0-.11.07-.18.18-.18h.48v-2.18l-.46.19c-.1.04-.19.02-.24-.09l-.04-.09c-.05-.11,0-.19.09-.23l.61-.25c.09-.04.16-.06.26-.06h.11c.11,0,.18.07.18.18v2.54h.37c.11,0,.18.07.18.18v.08c0,.11-.07.18-.18.18h-1.37c-.11,0-.18-.07-.18-.18v-.08Z"/>
        <path class="cls-1" d="M9.54,29.07c0-.8.4-1.28,1.09-1.28s1.1.51,1.1,1.28v.72c0,.8-.39,1.28-1.1,1.28s-1.09-.5-1.09-1.28v-.72ZM11.2,29.73v-.58c0-.52-.13-.9-.57-.9s-.56.38-.56.9v.58c0,.52.13.9.56.9s.57-.38.57-.9Z"/>
        <path class="cls-1" d="M12.22,29.07c0-.8.4-1.28,1.09-1.28s1.1.51,1.1,1.28v.72c0,.8-.39,1.28-1.1,1.28s-1.09-.5-1.09-1.28v-.72ZM13.88,29.73v-.58c0-.52-.13-.9-.57-.9s-.56.38-.56.9v.58c0,.52.13.9.56.9s.57-.38.57-.9Z"/>
        <path class="cls-1" d="M14.96,28.77v-.26c0-.37.26-.71.7-.71s.7.34.7.71v.26c0,.38-.26.71-.7.71s-.7-.34-.7-.71ZM15.97,28.75v-.21c0-.22-.1-.4-.32-.4s-.32.17-.32.4v.21c0,.22.11.4.33.4s.32-.18.32-.4ZM17.04,27.99c.03-.08.09-.13.17-.13h.12c.08,0,.11.07.08.14l-1.14,2.88c-.03.08-.09.13-.17.13h-.12c-.08,0-.11-.07-.08-.14l1.14-2.88ZM16.92,30.1c0-.37.26-.71.7-.71s.7.33.7.71v.26c0,.37-.26.71-.7.71s-.7-.34-.7-.71v-.26ZM17.62,30.73c.21,0,.32-.17.32-.4v-.21c0-.23-.1-.4-.32-.4s-.32.17-.32.4v.21c0,.22.11.4.33.4Z"/>
        <path class="cls-1" d="M3.66,32.56c0-.11.07-.18.18-.18h.15c.11,0,.19.06.25.17l1.16,2.01c-.02-.21-.03-.43-.03-.6v-1.4c0-.11.07-.18.18-.18h.18c.11,0,.18.07.18.18v2.79c0,.11-.07.18-.18.18h-.15c-.11,0-.2-.06-.26-.17l-1.15-2.01c.02.22.03.43.03.59v1.4c0,.11-.07.18-.18.18h-.17c-.11,0-.18-.07-.18-.18v-2.79Z"/>
        <path class="cls-1" d="M7.14,32.86c.08-.3.29-.54.64-.54s.56.24.63.54l.65,2.48c.03.1-.03.19-.14.19h-.18c-.11,0-.19-.07-.21-.18l-.17-.67h-1.16l-.17.67c-.03.12-.1.18-.21.18h-.19c-.12,0-.17-.09-.14-.2l.65-2.48ZM8.25,34.24l-.33-1.31c-.02-.09-.07-.14-.14-.14s-.12.05-.14.14l-.33,1.31h.94Z"/>
        <path class="cls-1" d="M9.91,32.84h-.6c-.11,0-.18-.07-.18-.18v-.09c0-.11.07-.18.18-.18h1.74c.11,0,.18.07.18.18v.09c0,.11-.07.18-.18.18h-.6v2.52c0,.11-.07.18-.18.18h-.18c-.11,0-.18-.07-.18-.18v-2.52Z"/>
        <path class="cls-1" d="M11.69,32.56c0-.11.07-.18.18-.18h.18c.11,0,.18.07.18.18v1.88c0,.34.18.7.65.7s.64-.36.64-.7v-1.88c0-.11.07-.18.18-.18h.18c.11,0,.18.07.18.18v1.8c0,.77-.42,1.23-1.18,1.23s-1.18-.46-1.18-1.23v-1.8Z"/>
        <path class="cls-1" d="M14.74,32.68c0-.11.08-.2.19-.23.16-.05.49-.13.81-.13.69,0,1.05.49,1.05,1.03,0,.3-.17.75-.64.92l.51,1.06c.05.11-.01.21-.12.21h-.22c-.11,0-.18-.06-.22-.16l-.47-1.03h-.34v1.01c0,.11-.07.18-.18.18h-.18c-.11,0-.18-.07-.18-.18v-2.67ZM15.69,33.91c.36,0,.54-.24.54-.57,0-.3-.14-.57-.49-.57-.15,0-.31.02-.46.07v1.07h.41Z"/>
        <path class="cls-1" d="M17.84,32.86c.08-.3.29-.54.64-.54s.56.24.63.54l.65,2.48c.03.1-.03.19-.14.19h-.18c-.11,0-.19-.07-.21-.18l-.17-.67h-1.16l-.17.67c-.03.12-.1.18-.21.18h-.19c-.12,0-.17-.09-.14-.2l.65-2.48ZM18.95,34.24l-.33-1.31c-.02-.09-.07-.14-.14-.14s-.12.05-.14.14l-.33,1.31h.94Z"/>
        <path class="cls-1" d="M20.35,32.56c0-.11.07-.18.18-.18h.18c.11,0,.18.07.18.18v2.52h1.21c.11,0,.18.07.18.18v.1c0,.11-.07.18-.18.18h-1.56c-.11,0-.18-.07-.18-.18v-2.79Z"/>
        <path class="cls-1" d="M0,37.08c0-.11.07-.18.18-.18h.18c.11,0,.18.07.18.18v2.79c0,.11-.07.18-.18.18h-.18c-.11,0-.18-.07-.18-.18v-2.79Z"/>
        <path class="cls-1" d="M1.29,37.08c0-.11.07-.18.18-.18h.15c.11,0,.19.06.25.17l1.16,2.01c-.02-.21-.03-.43-.03-.6v-1.4c0-.11.07-.18.18-.18h.18c.11,0,.18.07.18.18v2.79c0,.11-.07.18-.18.18h-.15c-.11,0-.2-.06-.26-.17l-1.15-2.01c.02.22.03.43.03.59v1.4c0,.11-.07.18-.18.18h-.17c-.11,0-.18-.07-.18-.18v-2.79Z"/>
        <path class="cls-1" d="M4.18,38.01c0-.75.44-1.17,1.16-1.17.32,0,.54.05.72.09.13.04.17.1.14.22l-.02.09c-.02.1-.11.15-.22.12-.14-.03-.3-.07-.55-.07-.46,0-.67.24-.67.76v.84c0,.52.21.76.67.76.22,0,.37-.04.54-.08v-.89c0-.11.06-.19.17-.19h.19c.11-.02.16.05.16.15v1.09c0,.11-.08.2-.19.23-.22.05-.55.14-.95.14-.72,0-1.16-.41-1.16-1.17v-.94Z"/>
        <path class="cls-1" d="M7.15,37.2c0-.11.08-.2.19-.23.16-.05.49-.13.81-.13.69,0,1.05.49,1.05,1.03,0,.3-.17.75-.64.92l.51,1.06c.05.11-.01.21-.12.21h-.22c-.11,0-.18-.06-.22-.16l-.47-1.03h-.34v1.01c0,.11-.07.18-.18.18h-.18c-.11,0-.18-.07-.18-.18v-2.67ZM8.1,38.43c.36,0,.54-.24.54-.57,0-.3-.14-.57-.49-.57-.15,0-.31.02-.46.07v1.07h.41Z"/>
        <path class="cls-1" d="M9.68,37.74c0-.51.32-.84.96-.84h.67c.11,0,.18.07.18.18v.09c0,.11-.07.18-.18.18h-.67c-.33,0-.43.15-.43.42v.43h.96c.11,0,.18.07.18.18v.09c0,.11-.07.18-.18.18h-.96v.52c0,.28.1.42.43.42h.69c.11,0,.18.07.18.18v.09c0,.11-.07.18-.18.18h-.69c-.64,0-.96-.33-.96-.84v-1.48Z"/>
        <path class="cls-1" d="M12.12,37.08c0-.11.07-.18.18-.18h.96c.8,0,1.18.37,1.18,1.16v.85c0,.79-.38,1.15-1.18,1.15h-.96c-.11,0-.18-.07-.18-.18v-2.79ZM13.25,39.6c.55,0,.64-.29.64-.75v-.75c0-.46-.09-.75-.64-.75h-.59v2.24h.59Z"/>
        <path class="cls-1" d="M15.08,37.08c0-.11.07-.18.18-.18h.18c.11,0,.18.07.18.18v2.79c0,.11-.07.18-.18.18h-.18c-.11,0-.18-.07-.18-.18v-2.79Z"/>
        <path class="cls-1" d="M16.28,37.74c0-.51.32-.84.96-.84h.67c.11,0,.18.07.18.18v.09c0,.11-.07.18-.18.18h-.67c-.33,0-.42.15-.42.42v.43h.96c.11,0,.18.07.18.18v.09c0,.11-.07.18-.18.18h-.96v.52c0,.28.1.42.42.42h.69c.11,0,.18.07.18.18v.09c0,.11-.07.18-.18.18h-.69c-.64,0-.96-.33-.96-.84v-1.48Z"/>
        <path class="cls-1" d="M18.72,37.08c0-.11.07-.18.18-.18h.15c.11,0,.19.06.25.17l1.16,2.01c-.02-.21-.03-.43-.03-.6v-1.4c0-.11.07-.18.18-.18h.18c.11,0,.18.07.18.18v2.79c0,.11-.07.18-.18.18h-.15c-.11,0-.2-.06-.26-.17l-1.15-2.01c.02.22.03.43.03.59v1.4c0,.11-.07.18-.18.18h-.17c-.11,0-.18-.07-.18-.18v-2.79Z"/>
        <path class="cls-1" d="M22.27,37.36h-.6c-.11,0-.18-.07-.18-.18v-.09c0-.11.07-.18.18-.18h1.74c.11,0,.18.07.18.18v.09c0,.11-.07.18-.18.18h-.6v2.52c0,.11-.07.18-.18.18h-.18c-.11,0-.18-.07-.18-.18v-2.52Z"/>
        <path class="cls-1" d="M23.99,39.67c.03-.12.11-.15.21-.12.12.03.36.11.63.11.36,0,.52-.19.52-.45,0-.67-1.37-.45-1.37-1.5,0-.55.44-.87,1.05-.87.28,0,.48.06.61.1.1.04.16.12.12.23l-.03.09c-.04.1-.12.14-.23.11-.11-.04-.27-.08-.47-.08-.32,0-.48.16-.48.41,0,.59,1.37.45,1.37,1.5,0,.55-.43.9-1.08.9-.3,0-.55-.07-.73-.12-.11-.03-.16-.1-.14-.22l.02-.1Z"/>
      </g>
    </g>
  </g>
</svg>