<?xml version="1.0" encoding="UTF-8"?>
<svg id="Layer_2" data-name="Layer 2" xmlns="http://www.w3.org/2000/svg" viewBox="0 0 62.79 62.79">
  <defs>
    <style>
      .cls-1 {
        fill: #000000;
      }

      .cls-2 {
        fill: #9279b7;
      }
    </style>
  </defs>
  <g id="perforation">
    <g>
      <rect class="cls-2" width="62.79" height="62.79"/>
      <g>
        <path class="cls-1" d="M15.72,14.4H7.07c-1.03,0-1.63-.57-1.63-1.6v-.73c0-1.03.57-1.6,1.6-1.6h12.24c1.03,0,1.6.57,1.6,1.6v.73c0,.86-.27,1.3-.57,2.13-2.13,5.75-5.45,9.51-5.75,17.16-.03,1.06-.7,1.6-1.56,1.6h-1.8c-1.1,0-1.5-.57-1.46-1.63.3-7.51,3.23-11.21,5.99-17.66Z"/>
        <path class="cls-1" d="M23.66,30.76c0-8.71,9.84-9.64,9.84-14.06,0-1.23-.53-2.73-3.09-2.73-1.53,0-2.83.5-3.42.73-.96.4-1.7.03-2.06-.86l-.27-.67c-.37-.93,0-1.7.96-2.09.83-.33,2.69-1.03,4.85-1.03,4.79,0,7.75,2.79,7.75,6.65,0,6.82-9.81,8.35-9.81,13.13h8.25c.96,0,1.6.63,1.6,1.6v.67c0,.96-.63,1.6-1.6,1.6h-11.4c-.96,0-1.6-.63-1.6-1.6v-1.33Z"/>
        <path class="cls-1" d="M45.64,36.51h3.99c1.16,0,1.83-.86,1.83-2v-2.26c-1.23,1.06-2.39,1.43-3.72,1.43-3.92,0-6.35-2.63-6.35-7.21v-3.33c0-4.59,2.43-7.21,6.35-7.21,1.53,0,2.83.57,4.19,1.86l.07-.47c.1-.7.6-.96,1.56-.96h1.1c.96,0,1.46.63,1.46,1.6v16.42c0,3.66-2.26,5.98-6.48,5.98h-3.62c-.96,0-1.63-.4-1.76-1.53l-.07-.6c-.13-1.1.5-1.73,1.46-1.73ZM51.46,28.37v-6.98c-1.03-.96-1.89-1.53-2.96-1.53-1.76,0-2.39,1.16-2.39,3.82v2.26c0,2.69.63,3.82,2.39,3.82,1.06,0,1.93-.53,2.96-1.4Z"/>
      </g>
      <g>
        <path class="cls-1" d="M8.62,47.6c0-.31.2-.52.52-.52h1.67c1.75,0,2.72,1.14,2.72,2.46s-.97,2.46-2.72,2.46h-.63v2.06c0,.31-.2.52-.52.52h-.52c-.31,0-.52-.2-.52-.52v-6.47ZM10.74,50.73c.77,0,1.15-.55,1.15-1.18s-.38-1.17-1.16-1.17h-.57v2.35h.58Z"/>
        <path class="cls-1" d="M15.74,47.91c0-.31.21-.58.53-.67.33-.1,1.13-.3,1.9-.3,1.69,0,2.59,1.19,2.59,2.49,0,.69-.37,1.73-1.41,2.19l1.1,2.35c.15.31-.04.6-.35.6h-.63c-.31,0-.5-.17-.63-.46l-.99-2.27h-.55v2.21c0,.31-.2.52-.52.52h-.52c-.31,0-.52-.2-.52-.52v-6.16ZM18.05,50.63c.72,0,1.08-.46,1.08-1.19,0-.67-.28-1.2-.98-1.2-.29,0-.58.03-.87.13v2.27h.76Z"/>
        <path class="cls-1" d="M22.77,50.15c0-1.85,1.11-3.2,3.02-3.2s3.02,1.35,3.02,3.2v1.38c0,1.85-1.11,3.2-3.02,3.2s-3.02-1.35-3.02-3.2v-1.38ZM27.22,51.4v-1.14c0-1.08-.29-2.03-1.43-2.03s-1.43.95-1.43,2.03v1.14c0,1.1.3,2.03,1.43,2.03s1.43-.93,1.43-2.03Z"/>
        <path class="cls-1" d="M32.41,48.37h-1.22c-.31,0-.52-.2-.52-.52v-.26c0-.31.2-.52.52-.52h4c.31,0,.52.2.52.52v.26c0,.31-.2.52-.52.52h-1.22v5.69c0,.31-.2.52-.52.52h-.52c-.31,0-.52-.2-.52-.52v-5.69Z"/>
        <path class="cls-1" d="M37.55,49.15c0-1.25.79-2.06,2.37-2.06h1.56c.31,0,.52.2.52.52v.26c0,.31-.2.52-.52.52h-1.54c-.64,0-.85.29-.85.89v.84h2.06c.31,0,.52.2.52.52v.25c0,.31-.2.52-.52.52h-2.06v1.03c0,.61.2.88.85.88h1.58c.31,0,.52.2.52.52v.26c0,.31-.2.52-.52.52h-1.6c-1.57,0-2.37-.82-2.37-2.05v-3.38Z"/>
        <path class="cls-1" d="M44.44,47.6c0-.31.2-.52.52-.52h.52c.31,0,.52.2.52.52v6.47c0,.31-.2.52-.52.52h-.52c-.31,0-.52-.2-.52-.52v-6.47Z"/>
        <path class="cls-1" d="M48.69,47.6c0-.31.2-.52.52-.52h.43c.31,0,.55.17.72.47l2.38,4.21c-.06-.54-.1-1.07-.1-1.48v-2.69c0-.31.2-.52.52-.52h.49c.31,0,.52.2.52.52v6.47c0,.31-.2.52-.52.52h-.43c-.31,0-.56-.17-.73-.47l-2.37-4.19c.05.54.1,1.06.1,1.46v2.69c0,.31-.2.52-.52.52h-.49c-.31,0-.52-.2-.52-.52v-6.47Z"/>
      </g>
    </g>
  </g>
</svg>