<?xml version="1.0" encoding="UTF-8"?>
<svg id="Layer_2" data-name="Layer 2" xmlns="http://www.w3.org/2000/svg" viewBox="0 0 62.79 62.79">
  <defs>
    <style>
      .cls-1 {
        fill: #000000;
      }

      .cls-2 {
        fill: #9279b7;
      }
    </style>
  </defs>
  <g id="perforation">
    <g>
      <rect class="cls-2" width="62.79" height="62.79"/>
      <g>
        <path class="cls-1" d="M5.11,18.03c0-4.26,2.39-7.98,8.25-7.98,2,0,3.72.4,4.49.63.96.3,1.33,1.06,1.03,2.03l-.2.67c-.3,1-1.06,1.33-2.16,1-.96-.23-1.76-.4-3.03-.4-3.16,0-3.72,2.23-3.72,4.06v1c1.23-.6,2.26-.93,3.52-.93,4.39,0,7.65,2.76,7.65,8.05s-3.52,7.98-7.91,7.98-7.91-2.86-7.91-7.98v-8.11ZM13.02,30.2c2.36,0,3.19-1.83,3.19-4.02s-.9-4.29-3.29-4.29c-1.13,0-2.06.3-3.16.83v3.49c0,2.16.93,3.99,3.26,3.99Z"/>
        <path class="cls-1" d="M27.09,21.85c-1.63-1.06-2.86-2.63-2.86-5.32,0-3.92,3.39-6.48,7.41-6.48s7.42,2.53,7.42,6.48c0,2.43-1.23,3.82-2.83,4.85,1.93,1.2,3.46,2.96,3.46,6.15,0,3.89-3.42,6.58-8.05,6.58s-8.05-2.69-8.05-6.58c0-2.93,1.56-4.52,3.49-5.69ZM31.64,30.2c2.43,0,3.33-1.43,3.33-2.66,0-1.99-1.7-2.89-3.72-3.72-1.66.83-2.93,1.86-2.93,3.72,0,1.23.93,2.66,3.32,2.66ZM34.34,16.53c0-1.23-.86-2.56-2.69-2.56s-2.69,1.33-2.69,2.56c0,1.5,1.36,2.23,3.09,2.96,1.33-.7,2.29-1.56,2.29-2.96Z"/>
        <path class="cls-1" d="M46.74,36.51h3.99c1.16,0,1.83-.86,1.83-2v-2.26c-1.23,1.06-2.39,1.43-3.72,1.43-3.92,0-6.35-2.63-6.35-7.21v-3.33c0-4.59,2.43-7.21,6.35-7.21,1.53,0,2.83.57,4.19,1.86l.07-.47c.1-.7.6-.96,1.56-.96h1.1c.96,0,1.46.63,1.46,1.6v16.42c0,3.66-2.26,5.98-6.48,5.98h-3.62c-.96,0-1.63-.4-1.76-1.53l-.07-.6c-.13-1.1.5-1.73,1.46-1.73ZM52.56,28.37v-6.98c-1.03-.96-1.89-1.53-2.96-1.53-1.76,0-2.39,1.16-2.39,3.82v2.26c0,2.69.63,3.82,2.39,3.82,1.06,0,1.93-.53,2.96-1.4Z"/>
      </g>
      <g>
        <path class="cls-1" d="M8.62,47.6c0-.31.2-.52.52-.52h1.67c1.75,0,2.72,1.14,2.72,2.46s-.97,2.46-2.72,2.46h-.63v2.06c0,.31-.2.52-.52.52h-.52c-.31,0-.52-.2-.52-.52v-6.47ZM10.74,50.73c.77,0,1.15-.55,1.15-1.18s-.38-1.17-1.16-1.17h-.57v2.35h.58Z"/>
        <path class="cls-1" d="M15.74,47.91c0-.31.21-.58.53-.67.33-.1,1.13-.3,1.9-.3,1.69,0,2.59,1.19,2.59,2.49,0,.69-.37,1.73-1.41,2.19l1.1,2.35c.15.31-.04.6-.35.6h-.63c-.31,0-.5-.17-.63-.46l-.99-2.27h-.55v2.21c0,.31-.2.52-.52.52h-.52c-.31,0-.52-.2-.52-.52v-6.16ZM18.05,50.63c.72,0,1.08-.46,1.08-1.19,0-.67-.28-1.2-.98-1.2-.29,0-.58.03-.87.13v2.27h.76Z"/>
        <path class="cls-1" d="M22.77,50.15c0-1.85,1.11-3.2,3.02-3.2s3.02,1.35,3.02,3.2v1.38c0,1.85-1.11,3.2-3.02,3.2s-3.02-1.35-3.02-3.2v-1.38ZM27.22,51.4v-1.14c0-1.08-.29-2.03-1.43-2.03s-1.43.95-1.43,2.03v1.14c0,1.1.3,2.03,1.43,2.03s1.43-.93,1.43-2.03Z"/>
        <path class="cls-1" d="M32.41,48.37h-1.22c-.31,0-.52-.2-.52-.52v-.26c0-.31.2-.52.52-.52h4c.31,0,.52.2.52.52v.26c0,.31-.2.52-.52.52h-1.22v5.69c0,.31-.2.52-.52.52h-.52c-.31,0-.52-.2-.52-.52v-5.69Z"/>
        <path class="cls-1" d="M37.55,49.15c0-1.25.79-2.06,2.37-2.06h1.56c.31,0,.52.2.52.52v.26c0,.31-.2.52-.52.52h-1.54c-.64,0-.85.29-.85.89v.84h2.06c.31,0,.52.2.52.52v.25c0,.31-.2.52-.52.52h-2.06v1.03c0,.61.2.88.85.88h1.58c.31,0,.52.2.52.52v.26c0,.31-.2.52-.52.52h-1.6c-1.57,0-2.37-.82-2.37-2.05v-3.38Z"/>
        <path class="cls-1" d="M44.44,47.6c0-.31.2-.52.52-.52h.52c.31,0,.52.2.52.52v6.47c0,.31-.2.52-.52.52h-.52c-.31,0-.52-.2-.52-.52v-6.47Z"/>
        <path class="cls-1" d="M48.69,47.6c0-.31.2-.52.52-.52h.43c.31,0,.55.17.72.47l2.38,4.21c-.06-.54-.1-1.07-.1-1.48v-2.69c0-.31.2-.52.52-.52h.49c.31,0,.52.2.52.52v6.47c0,.31-.2.52-.52.52h-.43c-.31,0-.56-.17-.73-.47l-2.37-4.19c.05.54.1,1.06.1,1.46v2.69c0,.31-.2.52-.52.52h-.49c-.31,0-.52-.2-.52-.52v-6.47Z"/>
      </g>
    </g>
  </g>
</svg>